<?xml version="1.0" encoding="UTF-8"?>
<svg width="338px" height="142px" viewBox="0 0 338 142" version="1.1" xmlns="http://www.w3.org/2000/svg" xmlns:xlink="http://www.w3.org/1999/xlink">
    <title>Group 5 Copy@1x</title>
    <g id="Page-1" stroke="none" stroke-width="1" fill="none" fill-rule="evenodd">
        <g id="Group-5-Copy" transform="translate(1.000000, 1.000000)" fill="#000000">
            <g id="Group-4-Copy">
                <rect id="Rectangle" fill-opacity="0.12" x="78" y="92" width="180" height="1"></rect>
                <g id="Group-2" fill-rule="nonzero" stroke="#DFE0E1">
                    <path d="M32.8787879,138.634321 C32.8791851,138.633148 32.8796392,138.631388 32.8800364,138.629629 C32.9143718,138.492964 32.9729406,138.293539 33.0686256,138.049537 C33.2598821,137.560947 33.5993199,136.89346 34.1900018,136.193714 C35.3667119,134.7995 37.5648568,133.248093 41.6529795,132.752464 L41.6199494,132.461538 L41.6529795,132.752464 C44.2234787,132.441009 47.1432339,132.813464 49.4333181,133.269795 C50.5756928,133.497961 51.5559251,133.744895 52.2502374,133.935522 C52.578949,134.025263 52.8433597,134.102687 53.030303,134.158995 C52.9632781,134.285688 52.8704307,134.448747 52.7475612,134.639961 C52.4375213,135.121513 51.9368491,135.779028 51.1795413,136.467043 C49.6678769,137.840728 47.1208733,139.349317 42.9952371,139.817966 C39.457275,140.219748 36.8729281,139.890697 35.1803929,139.466626 C34.3338699,139.254884 33.7095336,139.018507 33.2997793,138.837265 C33.1170356,138.756322 32.9769133,138.686523 32.8787879,138.634321 Z" id="Path"></path>
                    <path d="M31.7897529,124.111862 L31.7876143,123.846154 L31.7897529,124.111862 C34.4261075,124.093794 37.1462734,124.691106 39.2165264,125.298515 C40.2496588,125.601954 41.1166138,125.905924 41.7247943,126.134433 C42.0248385,126.247094 42.2617064,126.341154 42.4242424,126.40705 C42.3712968,126.506425 42.2954043,126.635559 42.1909004,126.786482 C41.9328196,127.159005 41.49966,127.66385 40.8051828,128.174542 C39.419812,129.193267 36.970212,130.252912 32.7386117,130.30499 C29.0553103,130.350161 26.3899975,129.821401 24.6520415,129.285733 C23.7827745,129.0179 23.1447109,128.74794 22.7266374,128.547065 C22.5242188,128.449815 22.3733586,128.368509 22.2727273,128.311647 C22.2732475,128.309521 22.2738255,128.307396 22.2743457,128.30527 C22.3043443,128.193673 22.3576367,128.030528 22.4495979,127.831778 C22.6331734,127.435873 22.9715396,126.899142 23.5894306,126.357097 C24.8210512,125.276196 27.201348,124.142684 31.7897529,124.111862 Z" id="Path"></path>
                    <path d="M33.9233536,117.531525 C33.928813,117.536375 33.9341597,117.541226 33.9393939,117.546077 C33.8322333,117.669768 33.6758261,117.838934 33.4685963,118.034778 C33.0235757,118.45557 32.3452107,118.998841 31.4188677,119.477841 C29.5710222,120.433416 26.7184331,121.14464 22.7287819,120.096297 C19.252196,119.182559 16.7119149,117.686745 15.0432144,116.422548 C14.2087798,115.790753 13.5922684,115.21656 13.1858009,114.802437 C12.9826235,114.595072 12.8320132,114.427725 12.7329572,114.313735 C12.7310436,114.31131 12.72913,114.309491 12.7272727,114.307066 C12.7327321,114.298577 12.7384165,114.290089 12.7443261,114.280994 C12.8347148,114.145176 12.9750254,113.949938 13.1708862,113.721352 C13.5626079,113.263573 14.1759674,112.673009 15.0560467,112.152778 C16.8096201,111.116561 19.6529227,110.339854 23.9731172,111.505219 C26.4572291,112.175212 28.9993675,113.727415 30.9316358,115.126217 C31.895181,115.823495 32.7018124,116.478331 33.2673324,116.95915 C33.5499798,117.199256 33.7721806,117.395707 33.9233536,117.531525 Z" id="Path"></path>
                    <path d="M24.3764462,105.304366 C24.3824505,105.310237 24.3882815,105.316107 24.3939394,105.321977 C24.2940607,105.427642 24.1471293,105.570289 23.9489884,105.734656 C23.5167387,106.092155 22.840046,106.549449 21.8740515,106.932189 C19.945815,107.696497 16.8404531,108.171988 12.187895,106.92221 C8.72343159,105.991187 6.1630726,104.464919 4.47054414,103.173462 C3.62424238,102.527733 2.99520857,101.941294 2.57905498,101.517461 C2.37570077,101.310828 2.22325583,101.142352 2.12121212,101.025533 C2.47696508,100.628117 3.39412876,99.7094211 4.91401139,98.9867921 C6.85385224,98.0645742 9.79490499,97.4546541 13.8266564,98.7126509 L13.9113512,98.4320525 L13.8266564,98.7126509 C16.9263604,99.6800698 19.615638,101.378923 21.534002,102.841792 C22.4921448,103.572639 23.2553221,104.241849 23.7783286,104.728494 C24.0397452,104.971523 24.2410037,105.168763 24.3764462,105.304366 Z" id="Path"></path>
                    <path d="M19.601204,94.5169789 C19.8423453,94.8286331 20.0271151,95.0805029 20.1515152,95.2537671 C20.0320708,95.3013733 19.8760217,95.3578364 19.6842688,95.4170673 C19.1715199,95.5753854 18.4028188,95.7525246 17.3935396,95.8189518 C15.3770087,95.9518061 12.3884229,95.6445804 8.5498733,93.8504928 L8.42896479,94.1001483 L8.5498733,93.8504928 C5.74245314,92.5380022 3.56851587,90.5086517 2.09329688,88.7992587 C1.35661095,87.9456693 0.796613636,87.1745604 0.421284785,86.6176791 C0.234791714,86.3414527 0.0940417049,86.1178145 0,85.9639249 C0.133782705,85.8991584 0.322102638,85.8155708 0.560625227,85.7258941 C1.06729778,85.534916 1.79796362,85.3168134 2.71118611,85.1878339 C4.5351307,84.9315357 7.09266388,85.0322836 10.0588926,86.4372186 L10.0589489,86.4372186 C13.1256438,87.8880991 15.6961463,90.1565876 17.5044804,92.0713513 C18.4074366,93.0273492 19.117401,93.8920098 19.601204,94.5169789 Z" id="Shape"></path>
                    <path d="M13.8200151,73.8724431 C15.4357967,76.2211988 16.2895269,78.8486796 17.0317416,81.1916042 C17.0498331,81.2493318 17.0679245,81.3064763 17.0859578,81.3630377 C17.4347563,82.4651103 17.7644162,83.5071228 18.1420679,84.4068571 C18.4170463,85.0622695 18.7229721,85.6564557 19.0909091,86.1538462 C19.0409976,86.1450995 18.9887011,86.1357698 18.9341941,86.125857 C18.3477636,86.0173991 17.4990943,85.8173933 16.4607267,85.4523682 C14.3844567,84.7229012 11.5482877,83.3333568 8.53161139,80.6930476 C5.71731501,78.2294198 4.10317972,74.9506083 3.19277849,72.2723971 C2.73824103,70.9359155 2.46093578,69.7539573 2.29740305,68.9067026 C2.21566577,68.4839499 2.16242688,68.1445815 2.12971103,67.9119217 C2.12670354,67.8909299 2.12387639,67.8705211 2.12121212,67.8506955 C2.13839027,67.8501124 2.15633047,67.8495293 2.17502109,67.8489462 C2.39282235,67.8431151 2.70679914,67.8448644 3.09659714,67.8693549 C3.876356,67.9183359 4.95491463,68.0576985 6.17093917,68.4034811 C8.60170848,69.0944631 11.5745232,70.6082093 13.8200151,73.8724431 L14.0594505,73.7068407 L13.8200151,73.8724431 Z" id="Path"></path>
                    <path d="M18.0275936,71.3278797 C18.0314796,71.675328 18.0306039,71.9555464 18.0285788,72.1538462 C17.9371763,72.1289881 17.8261797,72.0962206 17.6972858,72.052154 C17.2788047,71.9097849 16.6708961,71.6515998 15.9314117,71.1911603 C14.4533733,70.2708461 12.442245,68.5386894 10.3648362,65.2941442 C8.42557102,62.2648474 7.72210028,58.7943195 7.50678448,56.0686868 C7.39923605,54.7076501 7.41379477,53.5372862 7.45517218,52.708043 C7.47586089,52.2935344 7.5032269,51.9646732 7.52528391,51.740216 C7.52692587,51.7236628 7.5285131,51.707731 7.53004559,51.6923077 C7.54104673,51.695076 7.55232153,51.6979008 7.56392472,51.7008385 C7.75816868,51.7502157 8.03566006,51.8311175 8.37494389,51.9523572 C9.05362102,52.194893 9.97558202,52.5973115 10.9707745,53.2279725 C12.9596816,54.488447 15.2369718,56.657428 16.4592474,60.2869346 C17.3421297,62.9088978 17.7345036,65.9568382 17.9048844,68.3601632 C17.989938,69.5595659 18.0193838,70.5940012 18.0275936,71.3278797 Z" id="Path"></path>
                    <path d="M14.5015841,37.6923077 C14.5132937,37.6960257 14.5253563,37.699918 14.5378308,37.7039846 C14.7289495,37.766436 15.0003876,37.866823 15.3280198,38.0147311 C15.9834018,38.3107215 16.8597355,38.7952861 17.7667258,39.5442378 C19.5758815,41.0381327 21.5184319,43.5924228 22.0658389,47.8354562 C22.4316007,50.6702256 22.2539567,53.5873728 21.982754,55.8015789 C21.8473586,56.9074039 21.688956,57.8347632 21.5645641,58.4854194 C21.5035449,58.8043571 21.4507637,59.0570673 21.4128694,59.2307692 C21.3645013,59.2162457 21.3090722,59.1976555 21.2468762,59.1738368 C20.958727,59.0634576 20.5224725,58.8415374 19.9710643,58.3930494 C18.8667179,57.4950858 17.300815,55.6906188 15.5453821,52.0727382 L15.2800636,52.1982219 L15.5453821,52.0727382 C13.9121051,48.7065221 13.665263,45.0462327 13.8324919,42.2139032 C13.9159887,40.7998299 14.1022824,39.5976845 14.2675695,38.7498563 C14.3501837,38.3261165 14.4274432,37.991261 14.4838727,37.7631246 C14.4899922,37.7382603 14.4959353,37.7146159 14.5015841,37.6923077 Z" id="Path"></path>
                    <path d="M26.7223319,44.1538462 C26.6162864,44.1033799 26.4802865,44.0345103 26.3203574,43.9446084 C25.905529,43.7115377 25.3302551,43.3375273 24.6986302,42.777769 C23.4371019,41.6597385 21.9458083,39.7962591 21.0606612,36.8201787 C19.5918047,31.8812867 20.1406246,28.2854373 21.040462,25.9340411 C21.4912128,24.7561141 22.0318842,23.8858426 22.457386,23.3123105 C22.6701083,23.0255158 22.8539664,22.8130203 22.983195,22.6735094 C23.0027055,22.652477 23.0209536,22.6331021 23.0378245,22.6153846 C23.0577367,22.6281869 23.0793131,22.6423609 23.1025536,22.6578494 C23.2539324,22.7591249 23.4679744,22.9145815 23.7247101,23.1267913 C24.2381242,23.5510965 24.9188123,24.1992707 25.609141,25.0899458 C26.9884785,26.8695815 28.4079274,29.6185923 28.6104927,33.4940923 C28.7567643,36.2941409 28.2587866,39.0261772 27.7210418,41.063688 C27.452485,42.0811289 27.1748042,42.9224237 26.9645494,43.5085868 C26.8664803,43.7820076 26.7831588,43.9997612 26.7223319,44.1538462 Z" id="Path"></path>
                    <path d="M34.1324841,32.3076923 C34.086911,32.2148304 34.0352975,32.1070074 33.97883,31.9848538 C33.7526366,31.4954372 33.4485644,30.7754134 33.1400698,29.8586599 C32.5228108,28.0246371 31.8889945,25.4065043 31.8235203,22.2731598 C31.7262259,17.6211791 32.9752517,14.7144291 34.2276213,12.9759624 C34.8553971,12.1045507 35.4875414,11.5217562 35.9597216,11.1581617 C36.1954611,10.9766797 36.3912366,10.8498831 36.5264996,10.7692308 C36.5510929,10.8184705 36.5792457,10.8780856 36.6106885,10.9490504 C36.7030751,11.1575885 36.8125044,11.4381232 36.9302393,11.7805085 C37.1655474,12.4648206 37.4304644,13.3866757 37.655795,14.4570526 C38.107265,16.6011884 38.3953192,19.3196923 37.9831121,21.9104824 C37.5415657,24.6857353 36.5206749,27.3875011 35.6054921,29.4014583 C35.1485209,30.4070611 34.7194329,31.2380033 34.4047899,31.8170145 C34.3002685,32.0093877 34.2084752,32.1739024 34.1324841,32.3076923 Z" id="Path"></path>
                    <path d="M43.7349665,21.5384615 C43.219448,20.2822092 42.213026,17.2487936 42.4636643,11.5814311 C42.650886,7.34996156 44.0311346,4.40769804 45.3572745,2.52574249 C46.0210454,1.58371457 46.6722562,0.906049349 47.1554778,0.465278605 C47.3813887,0.259196429 47.5704608,0.105041658 47.7066577,0 C47.8629842,0.320615688 48.0240207,0.788015719 48.1727215,1.38419731 C48.3649336,2.1549037 48.5301193,3.11406847 48.6408039,4.19148982 C48.862229,6.34727118 48.8634626,8.95745768 48.4367047,11.4541808 C47.9229243,14.4564438 46.6779755,17.0624649 45.5563833,18.9222323 C44.9962881,19.85106 44.4686021,20.5909188 44.0816548,21.0978081 C43.9476446,21.273342 43.8305679,21.4208327 43.7349665,21.5384615 Z" id="Path"></path>
                    <path d="M50.9090909,15.0746467 C51.559172,13.720835 53.6870107,10.144837 57.7992669,6.46622441 L57.6195768,6.24824021 L57.7992669,6.46622441 C60.8054922,3.77689466 63.9136889,3.17152025 66.2711561,3.23516888 C67.4518189,3.2670449 68.4445237,3.46687907 69.141236,3.65835354 C69.4890409,3.75404481 69.7629855,3.84748384 69.9481875,3.91647004 C69.966377,3.92319802 69.9834641,3.92969618 70,3.93593579 C69.8754296,4.29019745 69.6103041,4.80233391 69.2123403,5.42788651 C68.7250826,6.19423253 68.0592373,7.09874629 67.2715776,8.03451556 C65.6946046,9.90881194 63.6469099,11.8872167 61.5920495,13.1293934 C59.7819204,14.2237959 57.0242847,14.7145763 54.6828022,14.9257809 C53.5188407,15.0308086 52.4701343,15.0657986 51.7124597,15.0744743 C51.38549,15.0782664 51.1130336,15.0771173 50.9090909,15.0746467 Z" id="Path"></path>
                    <path d="M52.143292,25.7227925 C46.6440621,26.2130662 43.6456338,25.1174535 42.4242424,24.6132142 C42.5258036,24.5118406 42.6561479,24.3857123 42.8144837,24.2403061 C43.2509817,23.8393573 43.8995931,23.2920712 44.743919,22.7111582 C46.4333624,21.5487298 48.9002913,20.2558466 52.0158882,19.7251549 C56.6477769,18.9362918 60.2250359,19.6067487 62.5757576,20.8267372 C62.4660535,20.9451433 62.3150689,21.1017768 62.122804,21.2863414 C61.6726778,21.7191646 60.9974886,22.304678 60.1023256,22.9102361 C58.3125651,24.1212975 55.6474337,25.4104018 52.143292,25.7227925 Z" id="Path"></path>
                    <path d="M35.0344261,34.2620832 C35.0228594,34.2562549 35.0113475,34.2505387 35,34.2448785 C35.0938496,34.1459658 35.214067,34.0232355 35.3602684,33.8818435 C35.767023,33.4882099 36.3741399,32.9502141 37.1709843,32.3776969 C38.7651115,31.2323263 41.1143113,29.9520084 44.1363008,29.4087447 L44.0888826,29.1327977 L44.1363008,29.4087447 C46.4802928,28.9873707 48.1971043,28.9960571 49.6078631,29.2736293 C50.9095327,29.5296817 51.966108,30.0175766 53.030303,30.6323489 C52.9437443,30.7460566 52.8241848,30.8956306 52.6703087,31.071544 C52.3029688,31.4914609 51.7405839,32.0609519 50.9656122,32.6511781 C49.4169844,33.8307339 47.0170774,35.0954163 43.6194703,35.4150754 C40.6225329,35.6970749 38.6010392,35.4545845 37.2271186,35.1009643 C36.170927,34.8290523 35.5041674,34.4963916 35.0344261,34.2620832 Z" id="Path"></path>
                    <path d="M38.2980388,47.6576238 C32.9498649,49.2132899 29.0294448,48.1050636 27.5757576,47.6918898 C27.669469,47.5573899 27.7923979,47.3858849 27.9439782,47.184368 C28.3388684,46.6593052 28.9275797,45.9312686 29.7000899,45.1235693 C31.2463561,43.5068305 33.5215327,41.5786087 36.4452713,40.3143204 L36.3355921,40.0457284 L36.4452713,40.3143204 C39.4554169,39.0126775 41.714569,38.6803903 43.5327398,38.7881418 C45.1993302,38.8869189 46.5120257,39.3553378 47.7272727,39.8196775 C46.633709,41.4882233 43.3645123,46.1839514 38.2980388,47.6576238 L38.3749897,47.9379875 L38.2980388,47.6576238 Z" id="Path"></path>
                    <path d="M23.3333333,59.8635495 C23.41549,59.7187435 23.5236315,59.5338467 23.6575921,59.3160394 C24.006509,58.7481846 24.5304094,57.958334 25.2278561,57.0728037 C26.6239657,55.3001874 28.7087314,53.1535888 31.470211,51.6379731 C34.3133497,50.0774795 36.4909976,49.5665898 38.2690305,49.5396032 C39.8988387,49.5148905 41.2090874,49.8955147 42.4242424,50.2793103 C41.4725304,52.0707753 38.6076639,57.1268965 33.7735265,59.0186486 C28.6704174,61.0160134 24.7771004,60.1770962 23.3333333,59.8635495 Z" id="Path"></path>
                    <path d="M32.0017511,70.1186194 C27.7024888,73.3504473 22.9864887,73.2659626 21.2121212,73.217355 C21.9213688,72.2249495 22.5480013,71.2082402 23.177186,70.1869016 C23.5110312,69.6452738 23.8455422,69.1024888 24.1935357,68.5614397 C25.3047069,66.8335547 26.5743395,65.0877312 28.4487995,63.3459582 C30.7416617,61.2159031 32.8571427,60.5006767 34.7264427,60.3438593 C36.0992749,60.2287055 37.3276277,60.4109841 38.4357473,60.5759028 C38.711945,60.6169878 38.9807633,60.6569155 39.2424242,60.6904779 C37.9014951,63.3216544 35.9128498,67.179016 32.0017511,70.1186194 Z" id="Path"></path>
                    <path d="M20.3400457,86.1497235 C20.2741115,86.1509014 20.211268,86.1526683 20.1515152,86.1538462 C20.6440183,85.3075279 21.0793442,84.5059697 21.5055126,83.720902 C22.8082279,81.3215279 24.025721,79.078814 26.5313918,76.2035699 C28.6478105,73.7747484 30.6941742,72.7900274 32.5474858,72.3989659 C33.9232896,72.1086146 35.1831934,72.1427735 36.3316044,72.1739878 C36.6008929,72.1810552 36.8640573,72.1887115 37.1212121,72.1910673 C36.0251707,74.9767913 34.2106069,78.9150864 30.5225278,82.3568985 C26.608544,86.0089649 22.2297584,86.1073193 20.3400457,86.1497235 Z" id="Path"></path>
                    <path d="M25.9701272,95.5247773 C25.4272739,95.6222672 24.8977597,95.7191903 24.3939394,95.8461538 C25.5635066,93.9161943 26.1868858,92.5910121 26.7477248,91.3990283 C26.8087343,91.2692308 26.8689784,91.1411336 26.9291132,91.01417 C27.5951335,89.6062348 28.2490721,88.3116599 29.7568702,86.2689069 C32.6304936,82.3761134 36.1635771,82.0932794 38.8196219,81.8807287 C38.9631801,81.8688259 39.1042235,81.8574899 39.2424242,81.8461538 C38.4232789,84.5690688 37.1666803,88.1098785 33.8894977,91.6761943 C32.07288,93.6531984 30.225211,94.5119028 28.4910873,94.9925506 C27.6675139,95.2204049 26.8703451,95.3632389 26.1043918,95.5004049 C26.059564,95.5083401 26.0147909,95.5168421 25.9701272,95.5247773 Z" id="Path"></path>
                    <path d="M28.6363636,105.538462 C29.4319317,103.687803 29.8203366,102.127095 30.1731416,100.709362 C30.1879507,100.649885 30.2027018,100.590408 30.2174528,100.531502 C30.6265905,98.8901578 31.0060519,97.4478334 31.9364118,95.9151491 C33.4770227,93.3764979 34.9856925,92.0788634 36.4363454,91.3771457 C37.7413465,90.7451994 39.0209107,90.5833525 40.3030303,90.4615385 C39.8117166,91.8609706 39.459202,92.9407124 39.1766676,93.8220058 C39.115747,94.0118756 39.0581367,94.1920232 39.003256,94.3641642 C38.7778092,95.0704571 38.597022,95.6372072 38.4115308,96.1536302 C37.9554105,97.4243856 37.4727501,98.3880322 36.2273338,100.330767 L36.4728164,100.483463 L36.2273338,100.330767 C34.4018655,103.17767 32.1102299,104.109863 29.8997831,105.009457 C29.4743264,105.182742 29.0518895,105.354311 28.6363636,105.538462 Z" id="Path"></path>
                    <path d="M35.7827556,113.586356 C35.5187517,113.776691 35.257256,113.965268 35,114.153846 C35.4254756,112.162653 35.43085,110.761205 35.4355675,109.511438 C35.435687,109.486255 35.4357467,109.461073 35.4358661,109.43589 C35.4414197,108.022143 35.4577818,106.809858 36.0909492,105.093918 L35.8102249,104.994358 L36.0909492,105.093918 C37.1418887,102.247098 38.4070888,100.653558 39.7320048,99.6702596 C40.9337866,98.7777366 42.2042417,98.3707133 43.4848485,98 C43.4330151,98.7221003 43.4059638,99.3920782 43.3801069,100.033359 C43.2741112,102.659977 43.1878218,104.799924 41.4988779,108.000474 C40.7419195,109.434133 39.573698,110.627678 38.2772068,111.699408 C37.4582634,112.376414 36.6083275,112.99017 35.7827556,113.586356 Z" id="Path"></path>
                    <path d="M47.3300947,105.539021 C47.3302511,105.539021 47.3304075,105.539021 47.3305639,105.538462 C47.3307203,105.539021 47.3308246,105.53958 47.330981,105.53958 C47.3864041,105.667054 47.4654458,105.855469 47.5584084,106.098116 C47.7443337,106.58397 47.9856299,107.285635 48.2051844,108.146084 C48.6447627,109.868098 48.994246,112.212946 48.6462226,114.724403 C48.14997,118.30597 47.0131457,120.337724 46.023143,121.470452 C45.5270989,122.037934 45.0643712,122.383455 44.7302166,122.585847 C44.5923108,122.669712 44.4761987,122.728976 44.388502,122.769231 C44.3375107,122.673066 44.2702523,122.539442 44.1918884,122.368918 C44.0073186,121.966928 43.7610693,121.358632 43.5206073,120.541794 C43.0397355,118.909234 42.5809703,116.441945 42.6847777,113.127626 L42.4242424,113.118121 L42.6847777,113.127626 C42.7943203,109.628246 44.0254107,107.731235 45.199201,106.704735 C45.7902932,106.187572 46.3744511,105.884542 46.8094934,105.711222 C47.0269102,105.625121 47.2064747,105.570889 47.3300947,105.539021 Z" id="Path"></path>
                    <path d="M53.5045361,130.100072 C53.3817939,130.187933 53.2752826,130.256207 53.189854,130.307692 C53.1313999,130.204162 53.0565416,130.067055 52.9697845,129.898608 C52.7516789,129.473855 52.4584839,128.848197 52.1617655,128.049617 C51.5682709,126.453014 50.9619534,124.167517 50.9123944,121.418652 C50.8367852,117.220926 52.0722359,115.148085 53.2645391,114.119499 C53.8648494,113.601849 54.4676435,113.336028 54.9174864,113.20004 C55.1425812,113.132326 55.3290338,113.09651 55.45709,113.078042 C55.4595159,113.077483 55.4618841,113.077483 55.4642523,113.076923 C55.4677758,113.084198 55.4713569,113.091473 55.4750536,113.099308 C55.5372623,113.228581 55.6260987,113.419972 55.7315704,113.666205 C55.9418205,114.159233 56.2184959,114.870512 56.4784205,115.741285 C57.0000026,117.485627 57.4545819,119.858426 57.1998557,122.391836 C56.8729283,125.647718 55.7910642,127.662918 54.8090112,128.85883 C54.3170028,129.458186 53.8473478,129.854958 53.5045361,130.100072 Z" id="Path"></path>
                </g>
                <g id="Group" transform="translate(266.000000, 0.000000)" fill-rule="nonzero" stroke="#DFE0E1">
                    <path d="M37.1200771,138.629629 C37.1206446,138.631388 37.1206446,138.633148 37.1212121,138.634321 C37.0230311,138.686523 36.8828535,138.756322 36.700112,138.837265 C36.2903622,139.018507 35.6660898,139.254884 34.8199168,139.466626 C33.1270034,139.890697 30.5430829,140.219748 27.0045931,139.817966 C22.8792871,139.349317 20.3322555,137.840728 18.8203811,136.467043 C18.0633088,135.779028 17.5627558,135.121513 17.2523221,134.639961 C17.1297377,134.448747 17.0366644,134.285688 16.969697,134.158995 C17.1569787,134.102687 17.4214432,134.025263 17.7500376,133.935522 C18.444115,133.744895 19.4247903,133.497961 20.5672089,133.269795 C22.8571538,132.813464 25.7764789,132.441009 28.3473464,132.752464 L28.3802626,132.461538 L28.3473464,132.752464 C32.435196,133.248093 34.6332026,134.7995 35.8102399,136.193714 C36.4010287,136.89346 36.7404059,137.560947 36.9316603,138.049537 C37.0270037,138.293539 37.0854583,138.492964 37.1200771,138.629629 Z" id="Path"></path>
                    <path d="M38.2101716,124.111862 L38.2124837,123.846154 L38.2101716,124.111862 C42.7984952,124.142684 45.1793601,125.276196 46.4105429,126.357097 C47.0284464,126.899142 47.3671662,127.435873 47.5503986,127.831778 C47.6423038,128.030528 47.6960596,128.193673 47.7255387,128.30527 C47.7261167,128.307396 47.7266947,128.309521 47.7272727,128.311647 C47.6266972,128.368509 47.475834,128.449815 47.2735269,128.547065 C46.8556184,128.74794 46.2174842,129.0179 45.3481419,129.285733 C43.6100355,129.821401 40.9447847,130.350161 37.2616406,130.30499 C33.0299553,130.252912 30.5803061,129.193267 29.1947919,128.174542 C28.5000117,127.66385 28.0670747,127.159005 27.8086997,126.786482 C27.704078,126.635559 27.6283574,126.506425 27.5757576,126.40705 C27.7381812,126.341154 27.9751695,126.247094 28.2751619,126.134433 C28.8832391,125.905924 29.7502692,125.601954 30.7831912,125.298515 C32.8536592,124.691106 35.5738219,124.093794 38.2101716,124.111862 Z" id="Path"></path>
                    <path d="M57.2552803,114.280994 C57.2614712,114.290089 57.2670992,114.298577 57.2727273,114.307066 C57.2704761,114.309491 57.2687876,114.31131 57.2670992,114.313735 C57.1680455,114.427725 57.0172138,114.595072 56.8140412,114.802437 C56.407696,115.21656 55.7908617,115.790753 54.9567846,116.422548 C53.2880677,117.686745 50.7475659,119.182559 47.2711193,120.096297 C43.2819573,121.14464 40.4290986,120.433416 38.5814097,119.477841 C37.6550327,118.998841 36.9768526,118.45557 36.5316739,118.034778 C36.3245616,117.838934 36.1681018,117.669768 36.0606061,117.546077 C36.0662341,117.541226 36.0712994,117.536375 36.0769274,117.531525 C36.228322,117.395707 36.4500671,117.199256 36.7331581,116.95915 C37.2982143,116.478331 38.1052767,115.823495 39.0687989,115.126217 C41.0009085,113.727415 43.5430988,112.175212 46.0267574,111.505219 C50.3468487,110.339854 53.1901397,111.116561 54.9438401,112.152778 C55.8240672,112.673009 56.4369618,113.263573 56.8286741,113.721352 C57.0245303,113.949938 57.1652315,114.145176 57.2552803,114.280994 Z" id="Path"></path>
                    <path d="M46.0511803,105.734656 C45.8531569,105.570289 45.7059383,105.427642 45.6060606,105.321977 C45.6118339,105.316107 45.6176072,105.310237 45.6233804,105.304366 C45.7590525,105.168763 45.9599625,104.971523 46.221492,104.728494 C46.7445509,104.241849 47.5077782,103.572639 48.4661423,102.841792 C50.3840251,101.378923 53.0737951,99.6800698 56.1734677,98.7126509 L56.0886006,98.4320525 L56.1734677,98.7126509 C60.2049474,97.4546541 63.145855,98.0645742 65.0856762,98.9867921 C66.6057802,99.7094211 67.5225767,100.628117 67.8787879,101.025533 C67.7766009,101.142352 67.6241863,101.310828 67.420967,101.517461 C67.0047137,101.941294 66.3754264,102.527733 65.5290639,103.173462 C63.8369163,104.464919 61.2764677,105.991187 57.8119239,106.92221 C53.1598169,108.171988 50.0543709,107.696497 48.1260962,106.932189 C47.1602269,106.549449 46.4835988,106.092155 46.0511803,105.734656 Z" id="Path"></path>
                    <path d="M59.9405727,86.4366534 L59.8183774,86.1870019 L59.9405727,86.4366534 C62.9070451,85.0322947 65.4646984,84.9315484 67.2886172,85.1878425 C68.2019844,85.3168198 68.9323402,85.5349189 69.4391408,85.725894 C69.6779001,85.8155692 69.8659794,85.8991554 70,85.9639209 C69.9059603,86.117808 69.7651824,86.3414426 69.5787925,86.6182181 C69.203197,87.1745368 68.6434639,87.9456332 67.9069138,88.7992088 C66.4315612,90.508574 64.25795,92.5378917 61.4508382,93.850361 L61.5713441,94.100566 L61.4508382,93.850361 C57.6121058,95.6444196 54.6242351,95.9521939 52.6077322,95.8187881 C51.598636,95.752362 50.8299885,95.5757793 50.3169938,95.4169101 C50.1244096,95.3576802 49.9684276,95.301218 49.8484848,95.2536126 C49.9729325,95.0797976 50.1581963,94.827932 50.3992081,94.5162828 C50.882921,93.8913238 51.5930049,93.0266772 52.4956729,92.0706948 C54.3038246,90.1559621 56.8744295,87.8875104 59.9405727,86.4366534 Z" id="Shape"></path>
                    <path d="M67.8246868,67.8492031 C67.8433022,67.8497862 67.8613359,67.8497862 67.8787879,67.8509524 C67.8758792,67.8701953 67.8729706,67.8906044 67.8700619,67.9115966 C67.8374849,68.1442605 67.7839656,68.483635 67.7025232,68.9069783 C67.5390565,69.753665 67.2615705,70.9356443 66.807238,72.2727328 C65.8968278,74.9504086 64.2825222,78.2292786 61.468104,80.6929503 C58.4512431,83.3333066 55.6153008,84.7234588 53.5385184,85.4529389 C52.5001273,85.8173873 51.6519624,86.0173966 51.064995,86.1258565 C51.010894,86.1357695 50.9591198,86.1450994 50.9090909,86.1538462 C51.2767454,85.6564469 51.5827363,85.0628332 51.8573137,84.4074091 C52.2348576,83.5076587 52.5646995,82.4662108 52.9137385,81.3641186 C52.9317722,81.3069731 52.9498059,81.2498275 52.9678396,81.192682 C53.7101293,78.8491326 54.5641115,76.2216049 56.1795806,73.8728074 C58.4250652,70.6079322 61.3982961,69.0947422 63.8287714,68.4031647 C65.0451725,68.0579591 66.1237032,67.9185941 66.9032237,67.8696122 C67.292984,67.8451212 67.6071192,67.8427888 67.8246868,67.8492031 Z" id="Path"></path>
                    <path d="M52.3023355,72.052154 C52.1737135,72.0962206 52.0626059,72.1289881 51.9712021,72.1538462 C51.9695601,71.9555464 51.9684655,71.675328 51.9722968,71.3278797 C51.9805067,70.5940012 52.0100624,69.5595659 52.0948982,68.3601632 C52.2656646,65.9568382 52.6575514,62.9088978 53.5403914,60.2869346 C54.763122,56.657428 57.0405536,54.488447 59.0289961,53.2279725 C60.0245856,52.5973115 60.9462859,52.194893 61.6249725,51.9523572 C61.9643159,51.8311175 62.2418111,51.7502157 62.4361126,51.7008385 C62.4476065,51.6979008 62.4591003,51.695076 62.4700469,51.6923077 C62.4716889,51.707731 62.4733309,51.7236628 62.4749728,51.740216 C62.496866,51.9646732 62.5242324,52.2935344 62.5450308,52.708043 C62.5860804,53.5372862 62.6008583,54.7076501 62.4930347,56.0686868 C62.2779348,58.7943195 61.5746184,62.2648474 59.6348881,65.2941442 L59.8636712,65.4495072 L59.6348881,65.2941442 C57.5577785,68.5386894 55.5468956,70.2708461 54.0685628,71.1911603 C53.3291228,71.6515998 52.7210414,71.9097849 52.3023355,72.052154 Z" id="Path"></path>
                    <path d="M54.4546373,52.0727382 L54.7200161,52.1982219 L54.4546373,52.0727382 C52.6993717,55.6906188 51.1335783,57.4950858 50.0291084,58.3930494 C49.4777562,58.8415374 49.0411463,59.0634576 48.7534075,59.1738368 C48.6910347,59.1976555 48.6357229,59.2162457 48.5868838,59.2307692 C48.5492248,59.0570673 48.4962667,58.8043571 48.4356591,58.4854194 C48.3109135,57.8347632 48.1526277,56.9074039 48.0172904,55.8015789 C47.7460275,53.5873728 47.5683237,50.6702256 47.9343228,47.8354562 C48.4815561,43.5924228 50.4239402,41.0381327 52.2333407,39.5442378 C53.1401005,38.7952861 54.0168507,38.3107215 54.6717654,38.0147311 C54.999517,37.866823 55.2713684,37.766436 55.4620174,37.7039846 C55.4749627,37.699918 55.4867312,37.6960257 55.4984996,37.6923077 C55.5043838,37.7146159 55.5102681,37.7382603 55.5161523,37.7631246 C55.5726409,37.991261 55.6497243,38.3261165 55.7326919,38.7498563 C55.8980388,39.5976845 56.0839804,40.7998299 56.1675365,42.2139032 C56.3346486,45.0462327 56.0880994,48.7065221 54.4546373,52.0727382 Z" id="Path"></path>
                    <path d="M43.2774628,44.1538462 C43.2166355,43.9998179 43.1334284,43.7820637 43.0353013,43.5086422 C42.825275,42.9224776 42.5475353,42.0811806 42.278977,41.063737 C41.7412867,39.0262207 41.2431915,36.2941772 41.3895213,33.4941212 C41.5920876,29.6186109 43.0111999,26.8695928 44.3907171,25.0899524 C45.0810495,24.1992749 45.7616266,23.551099 46.2752156,23.1267926 C46.532297,22.9145823 46.7463402,22.7591252 46.8972608,22.6578495 C46.9207883,22.642361 46.9420205,22.628187 46.962105,22.6153846 C46.9793202,22.6331021 46.9971094,22.6524771 47.01662,22.6735096 C47.1457345,22.8130208 47.329938,23.0255169 47.5428335,23.3123123 C47.9680507,23.885846 48.5086103,24.7561198 48.9596504,25.93405 C49.8594353,28.2854523 50.4080287,31.8813113 48.9395659,36.8202164 C48.0541271,39.7963047 46.5627106,41.6597891 45.301405,42.7778225 C44.6696045,43.3375823 44.0946144,43.7115937 43.6797264,43.944665 C43.5196243,44.0345672 43.3836237,44.1034369 43.2774628,44.1538462 Z" id="Path"></path>
                    <path d="M36.0212409,31.9848538 C35.9646102,32.1070074 35.9133729,32.2148304 35.8675289,32.3076923 C35.7914819,32.1739024 35.699794,32.0093877 35.595162,31.8170145 C35.2807265,31.2380033 34.8514116,30.4070611 34.3945902,29.4014583 C33.4793295,27.3875011 32.4583581,24.6857353 32.0171777,21.9104824 C31.6045822,19.3196923 31.89259,16.6011884 32.344018,14.4570526 C32.5694623,13.3866757 32.8348177,12.4648206 33.0699702,11.7805085 C33.1875464,11.4381232 33.2970325,11.1575885 33.3892597,10.9490504 C33.4210808,10.8780856 33.4491265,10.8184705 33.4733968,10.7692308 C33.6087712,10.8498831 33.8045518,10.9766797 34.0402436,11.1581617 C34.5127058,11.5217562 35.1448128,12.1045507 35.772605,12.9759624 C37.0249535,14.7144291 38.2740659,17.6211791 38.1764453,22.2731598 C38.1111851,25.4065043 37.4774601,28.0246371 36.8599153,29.8586599 C36.5514126,30.7754134 36.2472246,31.4954372 36.0212409,31.9848538 Z" id="Shape"></path>
                    <path d="M26.2648337,21.5384615 C26.1689646,21.420837 26.0523519,21.273469 25.9183595,21.0980589 C25.5315193,20.5911881 25.003959,19.8512975 24.4438817,18.9225623 C23.3226058,17.0628628 22.0774289,14.4569367 21.5638845,11.4547832 C21.1366784,8.95768186 21.1377997,6.3473559 21.358691,4.19155342 C21.4696973,3.11412444 21.6350855,2.15498878 21.8273843,1.38431637 C21.9759534,0.788021592 22.1374171,0.320585809 22.2938351,0 C22.4300701,0.105039587 22.6190051,0.259221589 22.8449422,0.465360781 C23.3282121,0.906121315 23.9791128,1.58375595 24.6429081,2.52574952 C25.9688169,4.40763644 27.3491075,7.34983371 27.5363606,11.5811489 C27.7869657,17.2492434 26.78006,20.282607 26.2648337,21.5384615 Z" id="Path"></path>
                    <path d="M12.2006751,6.46622441 L12.3803724,6.24824021 L12.2006751,6.46622441 C16.313318,10.144837 18.4410222,13.720835 19.0909091,15.0746467 C18.8875094,15.0771173 18.6146561,15.0782664 18.2877834,15.0744743 C17.5298577,15.0657986 16.4814397,15.0308086 15.3172657,14.9257809 C12.9756886,14.7145763 10.2179414,14.2237959 8.40773911,13.1293934 L8.26938321,13.3778862 L8.40773911,13.1293934 C6.35334695,11.8872167 4.30501819,9.90881194 2.72798144,8.03451556 C1.94028989,7.09874629 1.27441768,6.19423253 0.78714033,5.42788651 C0.389160415,4.80233391 0.124024212,4.29019745 0,3.93593579 C0.0159853428,3.92969618 0.0336243418,3.92319802 0.0512633408,3.91647004 C0.237024049,3.84748384 0.510428533,3.75404481 0.858247544,3.65835354 C1.554988,3.46687907 2.54773292,3.2670449 3.72844341,3.23516888 C6.08600587,3.17152025 9.19432822,3.77689466 12.2006751,6.46622441 Z" id="Path"></path>
                    <path d="M27.5757576,24.6132176 C26.3542823,25.1174024 23.3560128,26.2130706 17.8565464,25.7227966 C14.3521563,25.4104057 11.6869651,24.1213006 9.89716443,22.9102383 C9.00198137,22.3046799 8.32677696,21.7191661 7.87664069,21.2863426 C7.68437143,21.1017779 7.53338351,20.9451443 7.42424242,20.8267381 C9.7744514,19.6067489 13.3517907,18.9362915 17.9837834,19.7251551 C21.0996764,20.2558471 23.566378,21.5487312 25.2560855,22.7111604 C26.1003737,23.2920737 26.7489997,23.8393602 27.1855641,24.2403092 C27.3439035,24.3857156 27.473968,24.5118439 27.5757576,24.6132176 Z" id="Path"></path>
                    <path d="M17.3298535,31.071544 C17.175814,30.8956306 17.05631,30.7460566 16.969697,30.6323489 C18.0342693,30.0175766 19.0906189,29.5296817 20.3925547,29.2736293 C21.8030308,28.9960571 23.5199414,28.9873707 25.863974,29.4087447 L25.9111178,29.1327977 L25.863974,29.4087447 C28.8855614,29.9520084 31.2350758,31.2323263 32.8291934,32.3776969 C33.625704,32.9502141 34.2330913,33.4882099 34.6398434,33.8818435 C34.7862084,34.0232355 34.9062606,34.1459658 35,34.2448785 C34.9884881,34.2505387 34.9769763,34.2562549 34.9654644,34.2620832 C34.4956712,34.4963916 33.8290801,34.8290523 32.7727305,35.1009643 C31.3989827,35.4545845 29.3778302,35.6970749 26.3809111,35.4150754 C22.9832698,35.0954163 20.5833225,33.8307339 19.0347042,32.6511781 C18.2595727,32.0609519 17.6971365,31.4914609 17.3298535,31.071544 Z" id="Path"></path>
                    <path d="M22.2727273,39.8196775 C23.4884204,39.3553378 24.8009387,38.8869189 26.4673499,38.7881418 C28.2855104,38.6803903 30.5447632,39.0126775 33.5548352,40.3143204 L33.6646836,40.0457284 L33.5548352,40.3143204 C36.4788405,41.5786087 38.7539476,43.5068305 40.2997521,45.1235693 C41.0726544,45.9312686 41.6609661,46.6593052 42.0561937,47.184368 C42.2073768,47.3858849 42.3308147,47.5573899 42.4242424,47.6918898 C40.9707332,48.1050636 37.0501653,49.2132899 31.7021347,47.6576238 L31.6251276,47.9379875 L31.7021347,47.6576238 C26.6355198,46.1839514 23.3666812,41.4882233 22.2727273,39.8196775 Z" id="Path"></path>
                    <path d="M46.6666667,59.8635495 C45.2225887,60.1770962 41.3293281,61.0160134 36.2264035,59.0186486 C31.3921702,57.1268965 28.5277875,52.0707753 27.5757576,50.2793103 C28.7909502,49.8955147 30.1012353,49.5148905 31.7310752,49.5396032 C33.5090823,49.5665898 35.6868093,50.0774795 38.5296304,51.6379731 C41.2911806,53.1535888 43.3760266,55.3001874 44.7720055,57.0728037 C45.4691656,57.958334 45.9932796,58.7481846 46.3421361,59.3160394 C46.475929,59.5338467 46.5842901,59.7187435 46.6666667,59.8635495 Z" id="Path"></path>
                    <path d="M41.5515663,63.3459582 C43.4258389,65.0877312 44.6953285,66.8335547 45.8066867,68.5614397 C46.1545757,69.1024888 46.4891483,69.6452738 46.8231661,70.1869016 C47.4523624,71.2082402 48.0787845,72.2249495 48.7878788,73.217355 C47.0140334,73.2659626 42.2978353,73.3504473 37.9983271,70.1186194 C34.0872117,67.179016 32.0986406,63.3216544 30.7575758,60.6904779 C31.0194635,60.6569155 31.2880093,60.6169878 31.5643231,60.5759028 C32.6723522,60.4109841 33.9007831,60.2287055 35.2734742,60.3438593 C37.1427532,60.5006767 39.2583842,61.2159031 41.5515663,63.3459582 Z" id="Path"></path>
                    <path d="M32.8787879,72.1910673 C33.1357744,72.1887115 33.3990568,72.1810552 33.6680628,72.1739878 C34.8167755,72.1427735 36.0765246,72.1086146 37.4524615,72.3989659 C39.3057408,72.7900274 41.3519031,73.7747484 43.4684649,76.2035699 C45.9742267,79.078814 47.1916218,81.3215279 48.4942974,83.720902 C48.9207005,84.5059697 49.3562612,85.3075279 49.8484848,86.1538462 C49.7889601,86.1526683 49.7260013,86.1509014 49.6601807,86.1497235 C47.7702708,86.1073193 43.3911972,86.0089649 39.4774467,82.3568985 C35.7892034,78.9150864 33.9748441,74.9767913 32.8787879,72.1910673 Z" id="Path"></path>
                    <path d="M30.7575758,81.8461538 C30.8958868,81.8574899 31.0369313,81.8688259 31.1807092,81.8807287 C33.8365002,82.0932794 37.3697191,82.3761134 40.2430903,86.2689069 C41.7513915,88.3116599 42.4052256,89.6062348 43.0710868,91.01417 C43.131222,91.1411336 43.1913573,91.2692308 43.2525859,91.3990283 C43.8134837,92.5910121 44.4367035,93.9161943 45.6060606,95.8461538 C45.1025646,95.7191903 44.5728278,95.6222672 44.0299706,95.5247773 C43.9856892,95.5168421 43.9408611,95.5083401 43.896033,95.5004049 C43.1301286,95.3632389 42.3325167,95.2204049 41.5092105,94.9925506 C39.7751288,94.5119028 37.9273368,93.6531984 36.1107057,91.6761943 C32.8338817,88.1098785 31.5770551,84.5690688 30.7575758,81.8461538 Z" id="Path"></path>
                    <path d="M38.0632398,95.9151491 C38.9935997,97.4478334 39.3734095,98.8901578 39.7822568,100.531502 C39.7973563,100.590408 39.811875,100.649885 39.8269745,100.709362 C40.1794892,102.127095 40.5680102,103.687803 41.3636364,105.538462 C40.9478201,105.354311 40.5256156,105.182742 40.0999265,105.009457 C37.8895958,104.109863 35.5979603,103.17767 33.7726662,100.330767 L33.5270094,100.483463 L33.7726662,100.330767 C32.5269596,98.3880322 32.0443572,97.4243856 31.5884692,96.1536302 C31.4026295,95.6372072 31.2220166,95.0704571 30.996686,94.3641642 C30.9415148,94.1920232 30.8840207,94.0118756 30.823042,93.8220058 C30.540798,92.9407124 30.1882834,91.8609706 29.6969697,90.4615385 C30.9792635,90.5833525 32.2586535,90.7451994 33.5635965,91.3771457 C35.0143075,92.0788634 36.5230934,93.3764979 38.0632398,95.9151491 Z" id="Path"></path>
                    <path d="M26.5151515,98 C27.7960298,98.3707133 29.0661595,98.7777366 30.2682146,99.6702596 C31.5926845,100.653558 32.8580371,102.247098 33.9090141,105.093918 C34.541989,106.809858 34.5587091,108.022143 34.5640834,109.43589 C34.5640834,109.461073 34.5640834,109.486255 34.5640834,109.512024 C34.5688605,110.761205 34.5742349,112.162653 35,114.153846 C34.74263,113.965268 34.4810801,113.776691 34.2171415,113.586356 C33.3918856,112.99017 32.5415496,112.376414 31.7228624,111.699408 C30.4264583,110.627678 29.2578434,109.434133 28.5012593,108.000474 C26.8125303,104.799924 26.7259441,102.659977 26.6202492,100.033359 C26.5939748,99.3920782 26.5671032,98.7221003 26.5151515,98 Z" id="Path"></path>
                    <path d="M22.8178446,105.53958 C22.8178446,105.53958 22.8183768,105.539021 22.8183768,105.538462 C22.8183768,105.539021 22.8189091,105.539021 22.8189091,105.539021 C22.9450464,105.570889 23.1281319,105.625121 23.3500698,105.711222 C23.7944778,105.884542 24.3905701,106.187572 24.9941134,106.704735 C26.1921523,107.731235 27.448736,109.628246 27.5605033,113.127626 C27.6669483,116.441945 27.1985902,118.909234 26.7073463,120.541794 C26.4619905,121.358632 26.2107802,121.966928 26.0223725,122.368918 C25.9425387,122.539442 25.8738817,122.673066 25.8217236,122.769231 C25.7323098,122.728976 25.6136235,122.669712 25.4725839,122.585847 C25.1319597,122.383455 24.6593438,122.037934 24.1531976,121.470452 C23.142502,120.337724 21.9817188,118.30597 21.4755727,114.724403 L21.2121212,114.765776 L21.4755727,114.724403 C21.1200463,112.212946 21.4766371,109.868098 21.925303,108.146084 C22.149902,107.285635 22.39579,106.58397 22.5857944,106.098116 C22.6805305,105.855469 22.7614287,105.667054 22.8178446,105.53958 Z" id="Path"></path>
                    <path d="M14.5249394,113.099308 C14.5284051,113.091473 14.5318709,113.084198 14.5353366,113.076923 C14.5382247,113.077483 14.5405352,113.077483 14.5428457,113.078042 C14.6710785,113.09651 14.8576515,113.132326 15.0823477,113.20004 C15.5323177,113.336028 16.1353584,113.601849 16.735511,114.119499 C17.9277293,115.148085 19.1632696,117.220926 19.0876007,121.418652 C19.0379249,124.167517 18.4319961,126.453014 17.8381974,128.049617 C17.5418757,128.848197 17.2484421,129.473855 17.0300998,129.898608 C16.943456,130.067055 16.8689424,130.204162 16.8100246,130.307692 C16.7245361,130.256207 16.618253,130.187933 16.4952189,130.100072 C16.1526871,129.854958 15.6830779,129.458186 15.1909412,128.85883 C14.2089784,127.662918 13.1270864,125.647718 12.8001506,122.391836 C12.5454179,119.858426 13.0000089,117.485627 13.5210268,115.741285 C13.7815358,114.870512 14.0576406,114.159233 14.2684738,113.666205 C14.3736016,113.419972 14.4625558,113.228581 14.5249394,113.099308 Z" id="Path"></path>
                </g>
            </g>
            <g id="re29" transform="translate(98.000000, 107.000000)" fill-rule="nonzero" stroke-width="0.4">
                <g id="Group" stroke="#000000">
                    <path d="M17.6857704,7.79453243 C16.9868685,7.79453243 16.3708872,7.98406513 15.8496723,8.31574738 C15.2573826,6.266425 13.4686677,5.1055372 10.755981,5.1055372 L6.4678035,5.1055372 L6.4678035,6.59810724 L10.8744388,6.59810724 C13.1251397,6.59810724 14.4518686,7.81822401 14.4518686,9.95046691 C14.4518686,12.0827098 13.1251397,13.3028266 10.8744388,13.3028266 L10.8389015,13.3028266 L11.0876631,12.935607 C11.6325697,12.1182472 12.130093,11.3127332 12.130093,10.5546024 C12.130093,8.99095763 11.1350463,7.80637821 9.19233608,7.80637821 C7.51023337,7.80637821 6.24273341,9.09756973 6.24273341,10.6138314 L7.8419156,10.6138314 C7.8419156,9.85570056 8.33943898,9.29894826 9.19233608,9.29894826 C10.1044622,9.29894826 10.5309108,9.83200896 10.5309108,10.6019856 C10.5309108,11.1942753 10.1518454,11.786565 9.73724261,12.3907005 L9.09756973,13.3146724 L6.4678035,13.3146724 L6.4678035,14.8072425 L8.07883148,14.8072425 L5.27137831,18.9177329 L11.9997893,18.9177329 L11.9997893,17.4133171 L8.0314483,17.4133171 L9.82016319,14.7953967 L10.755981,14.7953967 C10.9099763,14.7953967 11.0639716,14.7953967 11.2179669,14.7835508 L15.9207471,20.9196722 L17.9463779,20.9196722 L16.3945789,18.9058872 L19.3441815,14.5940182 C20.1023123,13.5278967 20.9907469,12.3670089 20.9907469,11.0284341 C20.9789011,9.26341089 19.6284806,7.79453243 17.6857704,7.79453243 Z M15.3995321,17.6265414 L12.9711444,14.4874061 C13.8595789,14.2031069 14.5821724,13.7292752 15.1033873,13.0777565 C15.6838312,13.8121957 16.5959573,14.2741818 17.6976161,14.2741818 C17.709462,14.2741818 17.768691,14.2741818 17.7805367,14.2741818 L15.3995321,17.6265414 Z M17.6857704,12.7934575 C16.6670321,12.7934575 16.0036676,12.0234809 16.0036676,11.04028 C16.0036676,10.9573594 16.0036676,10.8862847 16.0155134,10.8033641 C16.0155134,10.7915183 16.0155134,10.7796725 16.0155134,10.7559809 C16.1339713,9.91492954 16.7617985,9.2871025 17.6739246,9.2871025 C18.6926629,9.2871025 19.3560274,10.0570791 19.3560274,11.04028 C19.3678731,12.0234809 18.7045086,12.7934575 17.6857704,12.7934575 Z" id="Shape"></path>
                    <path d="M12.6394621,0.0947663519 C5.69782689,0.0947663519 0.0473831759,5.74521007 0.0473831759,12.6868454 C0.0473831759,19.6284806 5.69782689,25.2789243 12.6394621,25.2789243 C19.5810974,25.2789243 25.2315412,19.6284806 25.2315412,12.6749995 C25.2315412,5.73336428 19.5810974,0.0947663519 12.6394621,0.0947663519 Z M12.6394621,23.7863542 C6.51518667,23.7863542 1.53995321,18.8111208 1.53995321,12.6868454 C1.53995321,6.56256985 6.51518667,1.58733639 12.6394621,1.58733639 C18.7637376,1.58733639 23.7389711,6.56256985 23.7389711,12.6868454 C23.7389711,18.799275 18.7637376,23.7863542 12.6394621,23.7863542 Z" id="Shape"></path>
                </g>
                <g id="Group" transform="translate(32.922499, 6.915000)" stroke="#FFFFFF">
                    <polygon id="Path" points="15.8583519 6.96497499 19.4797804 6.96497499 19.4797804 4.78972755 15.8583519 4.78972755 15.8583519 2.17524744 20.6479831 2.17524744 20.6479831 0 13.5803566 0 13.5803566 12.6749995 20.8232135 12.6749995 20.8232135 10.4997521 15.8583519 10.4997521"></polygon>
                    <polygon id="Path" points="24.444642 12.6749995 26.7791165 12.6749995 26.7791165 6.96497499 30.4903324 6.96497499 30.4903324 4.78972755 26.7791165 4.78972755 26.7791165 2.17524744 31.6874989 2.17524744 31.6874989 0 24.444642 0"></polygon>
                    <rect id="Rectangle" x="33.498213" y="0" width="2.71607133" height="12.6749995"></rect>
                    <polygon id="Path" points="48.3329192 8.26175716 41.4946912 0 39.8357128 0 39.8357128 12.6749995 42.2027917 12.6749995 42.2027917 4.41324241 49.0410198 12.6749995 50.6999981 12.6749995 50.6999981 0 48.3329192 0"></polygon>
                    <polygon id="Path" points="56.5994219 6.96497499 60.2208503 6.96497499 60.2208503 4.78972755 56.5994219 4.78972755 56.5994219 2.17524744 61.389053 2.17524744 61.389053 0 54.3214266 0 54.3214266 12.6749995 61.5642835 12.6749995 61.5642835 10.4997521 56.5994219 10.4997521"></polygon>
                    <path d="M72.5751006,6.12834136 C73.2658933,5.4799503 73.7054886,4.5596533 73.7054886,3.5347771 C73.7054886,2.5099009 73.2658933,1.5896039 72.5751006,0.941212837 C71.9471072,0.355569294 71.1097827,0 69.8119297,0 L65.1857119,0 L65.1857119,12.6749995 L67.6348861,12.6749995 L67.6348861,7.0695542 L68.5140768,7.0695542 L73.0146959,12.6749995 L76.0499972,12.6749995 L71.2981807,6.86039579 C71.8215085,6.69306906 72.2192377,6.44207897 72.5751006,6.12834136 Z M70.8795184,4.51782162 C70.6701873,4.74789586 70.3561906,4.89430675 69.6444648,4.89430675 L67.6139529,4.89430675 L67.6139529,2.17524744 L69.6444648,2.17524744 C70.3561906,2.17524744 70.6701873,2.34257417 70.8795184,2.57264842 C71.0888496,2.80272267 71.2353813,3.1792078 71.2353813,3.55569294 C71.2563145,3.91126223 71.1097827,4.26683153 70.8795184,4.51782162 Z" id="Shape"></path>
                    <path d="M7.93260293,6.12834164 C8.62339562,5.47995057 9.06299103,4.55965358 9.06299103,3.53477737 C9.06299103,2.50990118 8.62339562,1.58960419 7.93260293,0.941213114 C7.30460956,0.355569573 6.46728506,2.79222519e-07 5.1694321,2.79222519e-07 L0.543214266,2.79222519e-07 L0.543214266,12.6749998 L2.99238841,12.6749998 L2.99238841,7.06955447 L3.87157913,7.06955447 L8.37219825,12.6749998 L11.4074996,12.6749998 L6.65568308,6.86039607 C7.17901088,6.69306934 7.57674002,6.44207925 7.93260293,6.12834164 Z M6.23702083,4.5178219 C6.0276897,4.74789615 5.71369302,4.89430703 5.0019672,4.89430703 L2.9714553,4.89430703 L2.9714553,2.17524773 L5.0019672,2.17524773 C5.71369302,2.17524773 6.0276897,2.34257445 6.23702083,2.5726487 C6.44635195,2.80272295 6.59288374,3.17920809 6.59288374,3.55569322 C6.61381685,3.91126251 6.46728506,4.26683181 6.23702083,4.5178219 Z" id="Shape-Copy"></path>
                    <polygon id="Path" points="80.5972043 4.4550741 77.8607114 0 75.1446401 0 79.3923306 6.94405915 79.3923306 12.6749995 81.7816561 12.6749995 81.7816561 6.94405915 86.0089254 0 83.2928541 0"></polygon>
                    <path d="M93.2801382,7.43923418 C94.1308095,6.32739211 94.6169071,5.37727253 94.6169071,3.86112426 L94.6169071,3.86112426 C94.6169071,1.61722482 92.7130238,0 90.6066005,0 L90.5255837,0 C88.4191604,0 86.6570559,1.55657889 86.5152771,3.82069364 L88.885004,3.82069364 C88.885004,2.9514353 89.6546584,2.14282289 90.5660917,2.14282289 C91.4977797,2.14282289 92.2471802,2.9514353 92.2471802,3.82069364 C92.2471802,4.46758357 92.1661642,5.1346888 91.2749849,6.26674618 L86.0089254,12.6749995 L95.0624967,12.6749995 L95.0624967,10.5321767 L90.7078705,10.5321767 L93.2801382,7.43923418 Z" id="Path"></path>
                    <path d="M101.327485,0 C98.8828132,0 96.8732107,1.96088509 96.8732107,4.38672232 C96.8732107,6.8934208 98.8828132,8.69258341 101.265332,8.69258341 L101.431072,8.69258341 L99.0485535,12.6749995 L101.721119,12.6749995 L104.683728,7.72224852 C105.34669,6.61040646 105.926782,5.5187797 105.926782,4.28564577 C105.926782,1.65765544 103.668568,0 101.327485,0 Z M101.389637,6.56997584 C100.146584,6.56997584 99.1314244,5.57942563 99.1314244,4.36650702 C99.1314244,3.1535884 100.146584,2.1630382 101.389637,2.1630382 C102.632691,2.1630382 103.647851,3.1535884 103.647851,4.36650702 C103.647851,5.57942563 102.632691,6.56997584 101.389637,6.56997584 Z" id="Shape"></path>
                </g>
            </g>
            <path d="M145.412784,26 C146.501799,26 147.417992,25.8259943 148.161364,25.477983 C148.904735,25.1299716 149.466998,24.6529356 149.848153,24.046875 C150.229309,23.4408144 150.419886,22.7518939 150.419886,21.9801136 C150.419886,21.2604167 150.268371,20.6425189 149.965341,20.1264205 C149.662311,19.610322 149.268134,19.2078598 148.782812,18.9190341 C148.297491,18.6302083 147.777841,18.4739583 147.223864,18.4502841 L147.223864,18.4502841 L147.223864,18.3082386 C147.981439,18.1377841 148.608807,17.788589 149.105966,17.2606534 C149.603125,16.7327178 149.851705,16.0402462 149.851705,15.1832386 C149.851705,14.0942235 149.448059,13.2005208 148.640767,12.5021307 C147.833475,11.8037405 146.627273,11.4545455 145.022159,11.4545455 L145.022159,11.4545455 L139.198295,11.4545455 L139.198295,26 L145.412784,26 Z M144.553409,17.5411932 L142.27358,17.5411932 L142.27358,13.9403409 L144.610227,13.9403409 C145.292045,13.9403409 145.818797,14.1013258 146.190483,14.4232955 C146.562169,14.7452652 146.748011,15.1690341 146.748011,15.6946023 C146.748011,16.2675189 146.539678,16.7185133 146.123011,17.0475852 C145.706345,17.3766572 145.183144,17.5411932 144.553409,17.5411932 L144.553409,17.5411932 Z M144.780682,23.4857955 L142.27358,23.4857955 L142.27358,19.6221591 L144.851705,19.6221591 C145.590341,19.6221591 146.173911,19.8139205 146.602415,20.1974432 C147.030919,20.5809659 147.24517,21.0733902 147.24517,21.6747159 C147.24517,22.2192235 147.049858,22.657197 146.659233,22.9886364 C146.268608,23.3200758 145.642424,23.4857955 144.780682,23.4857955 L144.780682,23.4857955 Z M164.04517,26 L164.04517,23.4644886 L157.290909,23.4644886 L157.290909,19.9914773 L163.5125,19.9914773 L163.5125,17.4559659 L157.290909,17.4559659 L157.290909,13.9900568 L164.016761,13.9900568 L164.016761,11.4545455 L154.215625,11.4545455 L154.215625,26 L164.04517,26 Z M173.65767,26.2059659 C175.433239,26.2059659 176.816998,25.8117898 177.808949,25.0234375 C178.8009,24.2350852 179.299242,23.1756629 179.303977,21.8451705 C179.303977,21.0355114 179.115767,20.3477746 178.739347,19.7819602 C178.362926,19.2161458 177.846828,18.7533144 177.191051,18.3934659 C176.535275,18.0336174 175.785985,17.7589962 174.943182,17.5696023 L174.943182,17.5696023 L173.636364,17.2571023 C173.006629,17.110322 172.463305,16.9031723 172.006392,16.6356534 C171.549479,16.3681345 171.325758,15.9739583 171.335227,15.453125 C171.335227,14.984375 171.536458,14.5961174 171.93892,14.2883523 C172.341383,13.9805871 172.919034,13.8267045 173.671875,13.8267045 C174.405777,13.8267045 174.989347,13.985322 175.422585,14.3025568 C175.855824,14.6197917 176.100852,15.0648674 176.15767,15.6377841 L176.15767,15.6377841 L179.105114,15.6377841 C179.090909,14.7713068 178.858902,14.0089962 178.409091,13.3508523 C177.95928,12.6927083 177.330729,12.1789773 176.523437,11.8096591 C175.716146,11.4403409 174.772727,11.2556818 173.693182,11.2556818 C172.632576,11.2556818 171.685606,11.4391572 170.852273,11.806108 C170.018939,12.1730587 169.364347,12.6867898 168.888494,13.3473011 C168.412642,14.0078125 168.177083,14.7784091 168.181818,15.6590909 C168.177083,16.7291667 168.52983,17.5838068 169.240057,18.2230114 C169.950284,18.8622159 170.918561,19.3285985 172.144886,19.6221591 L172.144886,19.6221591 L173.728693,20.0198864 C174.519413,20.2092803 175.127841,20.436553 175.553977,20.7017045 C175.980114,20.9668561 176.195549,21.3456439 176.200284,21.8380682 C176.195549,22.3683712 175.959991,22.7992424 175.493608,23.1306818 C175.027225,23.4621212 174.403409,23.6278409 173.622159,23.6278409 C172.82197,23.6278409 172.160275,23.4443655 171.637074,23.0774148 C171.113873,22.710464 170.826231,22.1624053 170.774148,21.4332386 L170.774148,21.4332386 L167.798295,21.4332386 C167.836174,23.0052083 168.380682,24.1936553 169.431818,24.9985795 C170.482955,25.8035038 171.891572,26.2059659 173.65767,26.2059659 Z M190.102557,26 L190.102557,13.9900568 L194.555682,13.9900568 L194.555682,11.4545455 L182.609659,11.4545455 L182.609659,13.9900568 L187.062784,13.9900568 L187.062784,26 L190.102557,26 Z M128.165341,50 L128.165341,40.4971591 L128.28608,40.4971591 L132.050284,49.9289773 L134.081534,49.9289773 L137.845739,40.5326705 L137.966477,40.5326705 L137.966477,50 L140.949432,50 L140.949432,35.4545455 L137.156818,35.4545455 L133.151136,45.2272727 L132.980682,45.2272727 L128.975,35.4545455 L125.182386,35.4545455 L125.182386,50 L128.165341,50 Z M151.833239,50.1988636 C153.121117,50.1988636 154.278788,49.9064867 155.30625,49.321733 C156.333712,48.7369792 157.146922,47.8882576 157.745881,46.7755682 C158.344839,45.6628788 158.644318,44.313447 158.644318,42.7272727 C158.644318,41.1410985 158.344839,39.7916667 157.745881,38.6789773 C157.146922,37.5662879 156.333712,36.7175663 155.30625,36.1328125 C154.278788,35.5480587 153.121117,35.2556818 151.833239,35.2556818 C150.540625,35.2556818 149.380587,35.5480587 148.353125,36.1328125 C147.325663,36.7175663 146.513636,37.5662879 145.917045,38.6789773 C145.320455,39.7916667 145.022159,41.1410985 145.022159,42.7272727 C145.022159,44.3039773 145.320455,45.649858 145.917045,46.7649148 C146.513636,47.8799716 147.325663,48.7310606 148.353125,49.3181818 C149.380587,49.905303 150.540625,50.1988636 151.833239,50.1988636 Z M151.833239,47.4786932 C150.715814,47.4786932 149.820928,47.0714962 149.14858,46.2571023 C148.476231,45.4427083 148.140057,44.2660985 148.140057,42.7272727 C148.140057,41.1837121 148.476231,40.0059186 149.14858,39.193892 C149.820928,38.3818655 150.715814,37.9758523 151.833239,37.9758523 C152.950663,37.9758523 153.845549,38.3818655 154.517898,39.193892 C155.190246,40.0059186 155.52642,41.1837121 155.52642,42.7272727 C155.52642,44.2660985 155.190246,45.4427083 154.517898,46.2571023 C153.845549,47.0714962 152.950663,47.4786932 151.833239,47.4786932 Z M168.931534,50 C170.020549,50 170.936742,49.8259943 171.680114,49.477983 C172.423485,49.1299716 172.985748,48.6529356 173.366903,48.046875 C173.748059,47.4408144 173.938636,46.7518939 173.938636,45.9801136 C173.938636,45.2604167 173.787121,44.6425189 173.484091,44.1264205 C173.181061,43.610322 172.786884,43.2078598 172.301562,42.9190341 C171.816241,42.6302083 171.296591,42.4739583 170.742614,42.4502841 L170.742614,42.4502841 L170.742614,42.3082386 C171.500189,42.1377841 172.127557,41.788589 172.624716,41.2606534 C173.121875,40.7327178 173.370455,40.0402462 173.370455,39.1832386 C173.370455,38.0942235 172.966809,37.2005208 172.159517,36.5021307 C171.352225,35.8037405 170.146023,35.4545455 168.540909,35.4545455 L168.540909,35.4545455 L162.717045,35.4545455 L162.717045,50 L168.931534,50 Z M168.072159,41.5411932 L165.79233,41.5411932 L165.79233,37.9403409 L168.128977,37.9403409 C168.810795,37.9403409 169.337547,38.1013258 169.709233,38.4232955 C170.080919,38.7452652 170.266761,39.1690341 170.266761,39.6946023 C170.266761,40.2675189 170.058428,40.7185133 169.641761,41.0475852 C169.225095,41.3766572 168.701894,41.5411932 168.072159,41.5411932 L168.072159,41.5411932 Z M168.299432,47.4857955 L165.79233,47.4857955 L165.79233,43.6221591 L168.370455,43.6221591 C169.109091,43.6221591 169.692661,43.8139205 170.121165,44.1974432 C170.549669,44.5809659 170.76392,45.0733902 170.76392,45.6747159 C170.76392,46.2192235 170.568608,46.657197 170.177983,46.9886364 C169.787358,47.3200758 169.161174,47.4857955 168.299432,47.4857955 L168.299432,47.4857955 Z M180.809659,50 L180.809659,35.4545455 L177.734375,35.4545455 L177.734375,50 L180.809659,50 Z M194.45625,50 L194.45625,47.4644886 L188.220455,47.4644886 L188.220455,35.4545455 L185.14517,35.4545455 L185.14517,50 L194.45625,50 Z M208.124148,50 L208.124148,47.4644886 L201.369886,47.4644886 L201.369886,43.9914773 L207.591477,43.9914773 L207.591477,41.4559659 L201.369886,41.4559659 L201.369886,37.9900568 L208.095739,37.9900568 L208.095739,35.4545455 L198.294602,35.4545455 L198.294602,50 L208.124148,50 Z M107.228693,74 L107.228693,71.4644886 L100.474432,71.4644886 L100.474432,67.9914773 L106.696023,67.9914773 L106.696023,65.4559659 L100.474432,65.4559659 L100.474432,61.9900568 L107.200284,61.9900568 L107.200284,59.4545455 L97.3991477,59.4545455 L97.3991477,74 L107.228693,74 Z M114.284375,74 L117.26733,69.0355114 L117.380966,69.0355114 L120.36392,74 L123.900852,74 L119.3625,66.7272727 L123.80142,59.4545455 L120.328409,59.4545455 L117.380966,64.4119318 L117.26733,64.4119318 L114.334091,59.4545455 L110.846875,59.4545455 L115.314205,66.7272727 L110.761648,74 L114.284375,74 Z M130.615625,74 L130.615625,69.2840909 L133.200852,69.2840909 C134.318277,69.2840909 135.271165,69.0769413 136.059517,68.662642 C136.847869,68.2483428 137.450379,67.6730587 137.867045,66.9367898 C138.283712,66.2005208 138.492045,65.3494318 138.492045,64.3835227 C138.492045,63.4176136 138.287263,62.5641572 137.877699,61.8231534 C137.468134,61.0821496 136.875095,60.5021307 136.09858,60.0830966 C135.322064,59.6640625 134.382197,59.4545455 133.278977,59.4545455 L133.278977,59.4545455 L127.540341,59.4545455 L127.540341,74 L130.615625,74 Z M132.703693,66.8196023 L130.615625,66.8196023 L130.615625,61.96875 L132.689489,61.96875 C133.57964,61.96875 134.241335,62.1901042 134.674574,62.6328125 C135.107812,63.0755208 135.324432,63.6590909 135.324432,64.3835227 C135.324432,65.1032197 135.107812,65.6891572 134.674574,66.1413352 C134.241335,66.5935133 133.584375,66.8196023 132.703693,66.8196023 L132.703693,66.8196023 Z M152.124432,74 L152.124432,71.4644886 L145.37017,71.4644886 L145.37017,67.9914773 L151.591761,67.9914773 L151.591761,65.4559659 L145.37017,65.4559659 L145.37017,61.9900568 L152.096023,61.9900568 L152.096023,59.4545455 L142.294886,59.4545455 L142.294886,74 L152.124432,74 Z M159.421591,74 L159.421591,68.84375 L161.665909,68.84375 L164.421591,74 L167.816477,74 L164.726989,68.3465909 C165.555587,67.9914773 166.191241,67.4611742 166.633949,66.7556818 C167.076657,66.0501894 167.298011,65.2002841 167.298011,64.2059659 C167.298011,62.7618371 166.842282,61.6089015 165.930824,60.7471591 C165.019366,59.8854167 163.737405,59.4545455 162.084943,59.4545455 L162.084943,59.4545455 L156.346307,59.4545455 L156.346307,74 L159.421591,74 Z M161.509659,66.3721591 L159.421591,66.3721591 L159.421591,61.96875 L161.495455,61.96875 C163.252083,61.96875 164.130398,62.7144886 164.130398,64.2059659 C164.130398,65.6500947 163.256818,66.3721591 161.509659,66.3721591 L161.509659,66.3721591 Z M174.346591,74 L174.346591,59.4545455 L171.271307,59.4545455 L171.271307,74 L174.346591,74 Z M188.511648,74 L188.511648,71.4644886 L181.757386,71.4644886 L181.757386,67.9914773 L187.978977,67.9914773 L187.978977,65.4559659 L181.757386,65.4559659 L181.757386,61.9900568 L188.483239,61.9900568 L188.483239,59.4545455 L178.682102,59.4545455 L178.682102,74 L188.511648,74 Z M195.808807,74 L195.808807,64.8451705 L195.915341,64.8451705 L202.243466,74 L204.899716,74 L204.899716,59.4545455 L201.838636,59.4545455 L201.838636,68.6022727 L201.710795,68.6022727 L195.432386,59.4545455 L192.733523,59.4545455 L192.733523,74 L195.808807,74 Z M215.755114,74.1988636 C217.000379,74.1988636 218.074006,73.9550189 218.975994,73.4673295 C219.877983,72.9796402 220.591761,72.342803 221.11733,71.5568182 C221.642898,70.7708333 221.960133,69.9327652 222.069034,69.0426136 L222.069034,69.0426136 L218.958239,69.0284091 C218.811458,69.8049242 218.453977,70.4074337 217.885795,70.8359375 C217.317614,71.2644413 216.623958,71.4786932 215.80483,71.4786932 C214.70161,71.4786932 213.807907,71.0750473 213.123722,70.2677557 C212.439536,69.460464 212.097443,68.280303 212.097443,66.7272727 C212.097443,65.2121212 212.437169,64.0414299 213.116619,63.2151989 C213.79607,62.3889678 214.699242,61.9758523 215.826136,61.9758523 C216.668939,61.9758523 217.372064,62.2043087 217.935511,62.6612216 C218.498958,63.1181345 218.839867,63.7466856 218.958239,64.546875 L218.958239,64.546875 L222.069034,64.546875 C221.936458,63.4247159 221.582528,62.4694602 221.007244,61.681108 C220.43196,60.8927557 219.693324,60.2914299 218.791335,59.8771307 C217.889347,59.4628314 216.877273,59.2556818 215.755114,59.2556818 C214.476705,59.2556818 213.326136,59.5480587 212.303409,60.1328125 C211.280682,60.7175663 210.471023,61.5662879 209.874432,62.6789773 C209.277841,63.7916667 208.979545,65.1410985 208.979545,66.7272727 C208.979545,68.3087121 209.27429,69.6557765 209.863778,70.7684659 C210.453267,71.8811553 211.258191,72.7310606 212.278551,73.3181818 C213.298911,73.905303 214.457765,74.1988636 215.755114,74.1988636 Z M235.907386,74 L235.907386,71.4644886 L229.153125,71.4644886 L229.153125,67.9914773 L235.374716,67.9914773 L235.374716,65.4559659 L229.153125,65.4559659 L229.153125,61.9900568 L235.878977,61.9900568 L235.878977,59.4545455 L226.077841,59.4545455 L226.077841,74 L235.907386,74 Z" id="BESTMOBILEEXPERIENCE" fill-rule="nonzero"></path>
        </g>
    </g>
</svg>