<?xml version="1.0" encoding="UTF-8"?>
<svg width="306px" height="141px" viewBox="0 0 306 141" version="1.1" xmlns="http://www.w3.org/2000/svg" xmlns:xlink="http://www.w3.org/1999/xlink">
    <title>Group 11@1x</title>
    <g id="Page-1" stroke="none" stroke-width="1" fill="none" fill-rule="evenodd">
        <g id="Group-11" transform="translate(1.000000, 1.000000)">
            <g id="Group-10" fill="#000000" fill-rule="nonzero">
                <g id="hitchd-the-insider-logo-copy" transform="translate(197.000000, 7.000000)">
                    <g id="Group-13">
                        <g id="Group-11">
                            <path d="M10.2098063,0.0105536591 C13.7725442,3.38260593 17.3345811,6.7560603 20.9008244,10.1246073 C20.9050307,6.83738214 20.9015254,3.55015697 20.9036286,0.263632842 C21.7511985,0.263632842 22.6001705,0.263632842 23.4477403,0.263632842 C23.4491424,5.49907699 23.4477403,10.7345212 23.4491424,15.9706663 C19.8807961,12.5502416 16.3271718,9.1150948 12.7637328,5.69046374 C12.7637328,9.03517506 12.7644338,12.3791853 12.7630317,15.7238966 C11.9105545,15.7238966 11.0587783,15.7252987 10.2070021,15.7238966 C10.2084042,10.4856483 10.2027958,5.24810096 10.2098063,0.0105536591" id="Fill-9"></path>
                            <path d="M32.5095174,0.569290802 C33.5176278,0.10799966 34.6449168,-0.0406230178 35.7455659,0.00915155831 C37.2156685,0.0652355877 38.6906785,0.457823794 39.9350429,1.25491806 C39.9385481,2.16137619 39.937146,3.06783431 39.936445,3.97359139 C39.3132112,3.50458869 38.6479144,3.08255637 37.9223273,2.79162047 C36.9639914,2.39763016 35.9124159,2.24059488 34.8811708,2.32401987 C34.3911366,2.37239235 33.896195,2.48526146 33.4699564,2.74044379 C33.1502774,2.92902634 32.8838783,3.21926119 32.7576892,3.57188953 C32.5557867,4.16778234 32.6525317,4.90388522 33.1194312,5.35395956 C33.4811732,5.71570155 33.9634959,5.9155009 34.4331996,6.09707295 C35.3698029,6.43778343 36.3078083,6.77358655 37.2451126,7.11289495 C37.9889271,7.38560355 38.7159163,7.73963398 39.324428,8.25560705 C39.9203208,8.75615701 40.3689931,9.43267062 40.5680914,10.1877019 C40.7650865,10.9518468 40.8043453,11.7636631 40.6410006,12.5376227 C40.4839653,13.2849424 40.0913771,13.9796833 39.53264,14.5005637 C38.9465619,15.0635072 38.1992422,15.4350639 37.4238805,15.6608021 C36.456431,15.9461296 35.4364027,16.0001105 34.4339007,15.9391191 C33.3956451,15.868313 32.3629979,15.6488842 31.4011568,15.2471824 C30.9896402,15.0677135 30.5802268,14.8700173 30.2177837,14.601515 C30.2268974,13.6824379 30.2184848,12.7633609 30.2226911,11.8435828 C31.5799246,12.9386235 33.2904875,13.6214466 35.0445155,13.6347665 C35.7932373,13.6452823 36.5742074,13.5653625 37.2423084,13.2015174 C37.6306903,12.9883981 37.9559777,12.639976 38.0863731,12.2116343 C38.2160674,11.7846946 38.2034485,11.3114856 38.0429079,10.8943606 C37.8732538,10.4590084 37.4974908,10.1435357 37.0992942,9.92060167 C36.4171721,9.54063238 35.6649451,9.31419311 34.9351517,9.04639187 C34.1037059,8.73863075 33.2477234,8.48274737 32.4632481,8.0614161 C31.7565893,7.68915836 31.1025093,7.17528844 30.6762707,6.49106326 C30.2465268,5.8026318 30.0782747,4.97819656 30.0915947,4.17409179 C30.0866873,3.41205004 30.3012087,2.64299779 30.7351589,2.01345456 C31.1705112,1.37199347 31.808467,0.888268721 32.5095174,0.569290802" id="Fill-10"></path>
                            <path d="M0.00111078545,0.263632842 C0.887939501,0.263632842 1.77476822,0.263632842 2.66229798,0.263632842 C2.66229798,5.41705409 2.66229798,10.5704754 2.66229798,15.7238966 C1.77476822,15.7252987 0.887939501,15.7247514 0.00111078545,15.7238966 C0.000409735086,10.5704754 -0.000992365651,5.41705409 0.00111078545,0.263632842" id="Fill-11"></path>
                            <path d="M47.5631719,0.263632842 C48.4464954,0.263632842 49.3298189,0.262931791 50.2131423,0.263632842 C50.2131423,5.41705409 50.2131423,10.5704754 50.2131423,15.7238966 C49.3298189,15.7252987 48.4464954,15.7238966 47.5631719,15.7238966 C47.5624709,10.5704754 47.5617698,5.41705409 47.5631719,0.263632842" id="Fill-12"></path>
                            <path d="M57.9211911,0.263632842 C59.9640519,0.263632842 62.0062116,0.263632842 64.0490724,0.263632842 C65.6348483,0.284664353 67.2521715,0.69898512 68.5477126,1.64049577 C69.6441554,2.42146587 70.4629818,3.56137377 70.9186646,4.82256338 C71.300036,5.86853053 71.453566,6.98740692 71.4437513,8.09787072 C71.4297303,9.68364665 71.0630809,11.303073 70.1804585,12.6385739 C69.4527686,13.7637598 68.3605321,14.6393717 67.1182709,15.1357154 C66.1473161,15.5297057 65.0978437,15.7105767 64.0532787,15.7252987 C62.0090158,15.7238966 59.9647529,15.7252987 57.9211911,15.7238966 C57.9203363,10.5704754 57.919789,5.41705409 57.9211911,0.263632842 Z M60.5592436,2.58831586 C60.5599447,6.18470425 60.5599447,9.7803916 60.5592436,13.37678 C61.3969988,13.3781774 62.234053,13.37678 63.0718082,13.377481 C63.584977,13.3739758 64.1009501,13.3957083 64.6127169,13.3284075 C65.5864758,13.2148374 66.5525232,12.8425796 67.2703988,12.1597565 C67.9076536,11.5659669 68.3282838,10.7681716 68.5498157,9.93251953 C68.7678424,9.10738325 68.8239264,8.2450913 68.7678424,7.39541825 C68.7159647,6.63267543 68.5596304,5.87063368 68.2399515,5.17238752 C67.9349946,4.49937916 67.4631877,3.89647585 66.8588822,3.46743302 C66.1641413,2.96407886 65.3179735,2.70539127 64.4711047,2.62266733 C63.9593379,2.57008855 63.444767,2.59182111 62.9322991,2.58691376 C62.1415143,2.58761481 61.3500285,2.58621271 60.5592436,2.58831586 L60.5592436,2.58831586 Z" id="Fill-13"></path>
                            <path d="M77.0023797,0.263632842 C80.1500958,0.262230741 83.298513,0.265034943 86.4469302,0.262230741 C86.4511365,1.03759245 86.4476313,1.81225311 86.4483323,2.58691376 C84.1671144,2.58761481 81.8865976,2.58691376 79.6060807,2.58691376 C79.6074828,3.82566976 79.6018744,5.06372471 79.6088849,6.30248071 C81.6510446,6.29897546 83.6932044,6.30107861 85.7360651,6.30107861 C85.7388693,7.06171828 85.7318588,7.82305898 85.7388693,8.58369862 C83.6953075,8.59771963 81.6503436,8.58510072 79.6053797,8.59000808 C79.6053797,10.1855987 79.6053797,11.7811893 79.6053797,13.377481 C81.8865976,13.377481 84.1671144,13.37678 86.4483323,13.377481 C86.4490398,14.1598532 86.4490398,14.9415244 86.4476313,15.7238966 C83.2992141,15.7247514 80.1500958,15.7252987 77.0023797,15.7238966 C77.0016786,10.5704754 77.0016786,5.41705409 77.0023797,0.263632842" id="Fill-14"></path>
                            <path d="M94.3204269,0.262931791 C96.2497175,0.263632842 98.1797091,0.262931791 100.109701,0.263632842 C101.068738,0.282561202 102.043899,0.437493333 102.911098,0.862329858 C103.596725,1.18972038 104.20033,1.70288925 104.599227,2.35346399 C105.07454,3.11830994 105.265926,4.03388172 105.250503,4.92701989 C105.258215,5.84118957 105.105386,6.78620546 104.633579,7.5825987 C104.28095,8.18129571 103.731327,8.65029841 103.101784,8.93772906 C102.643998,9.15154942 102.151159,9.27843954 101.653414,9.35976138 C103.515403,11.4811398 105.380197,13.599714 107.240084,15.7231956 C106.236881,15.7259998 105.233678,15.7238966 104.230475,15.7238966 C102.423167,13.6347665 100.621468,11.5407291 98.8120566,9.45370213 C98.1944312,9.45440318 97.5761048,9.45300108 96.9591805,9.45440318 C96.9549742,11.5449354 96.9647889,13.6354676 96.9535721,15.7267008 C96.075857,15.7217935 95.1974409,15.7259998 94.3197258,15.7238966 C94.3197258,10.5704754 94.3183237,5.41705409 94.3204269,0.262931791 Z M96.9591805,2.54064444 C96.9577784,4.11310041 96.9577784,5.68555638 96.9591805,7.25801238 C97.9778066,7.25801238 98.9978349,7.25801238 100.017162,7.25801238 C100.7098,7.24609452 101.43749,7.06452248 101.958371,6.58570506 C102.312401,6.26322189 102.53183,5.8110444 102.603337,5.3406396 C102.69237,4.74684994 102.611049,4.10679096 102.278751,3.59572524 C101.967484,3.10849523 101.440995,2.79442467 100.887867,2.65771985 C100.329831,2.50699402 99.7479588,2.54414969 99.1773038,2.54064444 C98.4376957,2.54064444 97.6980875,2.53994339 96.9591805,2.54064444 L96.9591805,2.54064444 Z" id="Fill-15"></path>
                        </g>
                    </g>
                </g>
                <g id="re29-copy" transform="translate(0.000000, -0.000000)">
                    <g id="Group" stroke="#000000">
                        <path d="M20.6757724,9.6406367 C19.9199322,9.6406367 19.2537679,9.84438202 18.6900904,10.2009363 C18.0495479,7.99794007 16.1151093,6.75 13.1814243,6.75 L8.54389601,6.75 L8.54389601,8.35449438 L13.3095328,8.35449438 C15.7435946,8.35449438 17.1784099,9.66610487 17.1784099,11.9582397 C17.1784099,14.2503745 15.7435946,15.561985 13.3095328,15.561985 L13.2711002,15.561985 L13.5401281,15.1672285 C14.1294273,14.2885768 14.667483,13.4226592 14.667483,12.6076779 C14.667483,10.926779 13.5913715,9.65337079 11.4903919,9.65337079 C9.67125094,9.65337079 8.30048983,11.0413858 8.30048983,12.6713483 L10.0299548,12.6713483 C10.0299548,11.856367 10.5680106,11.2578652 11.4903919,11.2578652 C12.4768274,11.2578652 12.9380181,11.8308989 12.9380181,12.6586142 C12.9380181,13.2953184 12.5280708,13.9320225 12.079691,14.5814607 L11.387905,15.5747191 L8.54389601,15.5747191 L8.54389601,17.1792135 L10.2861718,17.1792135 L7.25,21.5979401 L14.5265637,21.5979401 L14.5265637,19.9807116 L10.2349284,19.9807116 L12.169367,17.1664794 L13.1814243,17.1664794 C13.3479653,17.1664794 13.5145064,17.1664794 13.6810475,17.1537453 L18.7669555,23.75 L20.9576112,23.75 L19.2793896,21.585206 L22.4692916,16.95 C23.2891861,15.8039326 24.25,14.5559925 24.25,13.1170412 C24.2371891,11.2196629 22.7767521,9.6406367 20.6757724,9.6406367 Z M18.2032781,20.2099251 L15.5770535,16.8353933 C16.5378674,16.5297753 17.3193293,16.020412 17.8830068,15.3200375 C18.5107385,16.1095506 19.4971741,16.6061798 20.6885833,16.6061798 C20.7013941,16.6061798 20.7654484,16.6061798 20.7782592,16.6061798 L18.2032781,20.2099251 Z M20.6757724,15.0144195 C19.5740392,15.0144195 18.8566315,14.1867041 18.8566315,13.1297753 C18.8566315,13.0406367 18.8566315,12.9642322 18.8694424,12.8750936 C18.8694424,12.8623596 18.8694424,12.8496255 18.8694424,12.8241573 C18.9975509,11.9200375 19.676526,11.2451311 20.6629616,11.2451311 C21.7646948,11.2451311 22.4821025,12.0728464 22.4821025,13.1297753 C22.4949133,14.1867041 21.7775057,15.0144195 20.6757724,15.0144195 Z" id="Shape" stroke-width="0.5"></path>
                        <path d="M14.9828436,0.112336222 C6.75421536,0.112336222 0.0561681111,6.81038347 0.0561681111,15.0390118 C0.0561681111,23.26764 6.75421536,29.9656873 14.9828436,29.9656873 C23.2114719,29.9656873 29.9095192,23.26764 29.9095192,15.0249697 C29.9095192,6.79634144 23.2114719,0.112336222 14.9828436,0.112336222 Z M14.9828436,28.1963918 C7.72311528,28.1963918 1.82546361,22.2987401 1.82546361,15.0390118 C1.82546361,7.77928339 7.72311528,1.88163172 14.9828436,1.88163172 C22.242572,1.88163172 28.1402237,7.77928339 28.1402237,15.0390118 C28.1402237,22.2846981 22.242572,28.1963918 14.9828436,28.1963918 Z" id="Shape" stroke-width="0.2"></path>
                    </g>
                    <g id="Group" transform="translate(39.725516, 7.777931)" stroke="#DFE0E1" stroke-width="0.2">
                        <polygon id="Path" points="18.1719046 7.9810854 22.3216582 7.9810854 22.3216582 5.48849417 18.1719046 5.48849417 18.1719046 2.49259124 23.6602883 2.49259124 23.6602883 0 15.5615758 0 15.5615758 14.5241374 23.8610829 14.5241374 23.8610829 12.0315462 18.1719046 12.0315462"></polygon>
                        <polygon id="Path" points="28.0108364 14.5241374 30.6858841 14.5241374 30.6858841 7.9810854 34.9385241 7.9810854 34.9385241 5.48849417 30.6858841 5.48849417 30.6858841 2.49259124 36.3103435 2.49259124 36.3103435 0 28.0108364 0"></polygon>
                        <rect id="Rectangle" x="38.3852203" y="0" width="3.11231516" height="14.5241374"></rect>
                        <polygon id="Path" points="55.3841409 9.46705325 47.5482934 0 45.647289 0 45.647289 14.5241374 48.3596977 14.5241374 48.3596977 5.05708414 56.1955452 14.5241374 58.0965496 14.5241374 58.0965496 0 55.3841409 0"></polygon>
                        <polygon id="Path" points="64.856632 7.9810854 69.0063855 7.9810854 69.0063855 5.48849417 64.856632 5.48849417 64.856632 2.49259124 70.3450157 2.49259124 70.3450157 0 62.2463031 0 62.2463031 14.5241374 70.5458102 14.5241374 70.5458102 12.0315462 64.856632 12.0315462"></polygon>
                        <path d="M83.16298,7.02239646 C83.9545514,6.27941254 84.4582787,5.22485471 84.4582787,4.05046076 C84.4582787,2.87606681 83.9545514,1.82150898 83.16298,1.07852505 C82.4433695,0.407442798 81.4838889,0 79.996694,0 L74.6955638,0 L74.6955638,14.5241374 L77.5020445,14.5241374 L77.5020445,8.10092152 L78.5094991,8.10092152 L83.6667073,14.5241374 L87.1448244,14.5241374 L81.6997721,7.86124928 C82.2994474,7.6695115 82.7552007,7.38190482 83.16298,7.02239646 Z M81.2200318,5.17692026 C80.9801616,5.44055972 80.6203564,5.60833028 79.8047979,5.60833028 L77.4780575,5.60833028 L77.4780575,2.49259124 L79.8047979,2.49259124 C80.6203564,2.49259124 80.9801616,2.68432902 81.2200318,2.94796848 C81.4599019,3.21160794 81.627811,3.64301796 81.627811,4.07442798 C81.651798,4.48187078 81.4838889,4.88931358 81.2200318,5.17692026 Z" id="Shape"></path>
                        <path d="M9.08987922,7.02239678 C9.8814507,6.27941286 10.385178,5.22485503 10.385178,4.05046108 C10.385178,2.87606713 9.8814507,1.8215093 9.08987922,1.07852537 C8.37026878,0.407443118 7.41078819,3.19958417e-07 5.92359328,3.19958417e-07 L0.622463031,3.19958417e-07 L0.622463031,14.5241377 L3.42894375,14.5241377 L3.42894375,8.10092184 L4.43639837,8.10092184 L9.59360653,14.5241377 L13.0717237,14.5241377 L7.62667132,7.8612496 C8.22634669,7.66951182 8.68209997,7.38190514 9.08987922,7.02239678 Z M7.14693103,5.17692058 C6.90706088,5.44056004 6.54725566,5.6083306 5.73169716,5.6083306 L3.40495674,5.6083306 L3.40495674,2.49259156 L5.73169716,2.49259156 C6.54725566,2.49259156 6.90706088,2.68432934 7.14693103,2.9479688 C7.38680118,3.21160826 7.55471028,3.64301828 7.55471028,4.0744283 C7.57869729,4.4818711 7.41078819,4.8893139 7.14693103,5.17692058 Z" id="Shape-Copy"></path>
                        <polygon id="Path" points="92.3554172 5.10501859 89.2197012 -2.82440737e-13 86.107386 -2.82440737e-13 90.9747661 7.95711818 90.9747661 14.5241374 93.7126674 14.5241374 93.7126674 7.95711818 98.5566466 -2.82440737e-13 95.4443315 -2.82440737e-13"></polygon>
                        <path d="M106.888646,8.52453359 C107.863421,7.25048645 108.420434,6.16175526 108.420434,4.42441825 L108.420434,4.42441825 C108.420434,1.85315948 106.238797,-2.82440737e-13 103.82507,-2.82440737e-13 L103.732234,-2.82440737e-13 C101.318507,-2.82440737e-13 99.2993318,1.783666 99.1368694,4.37808926 L101.852312,4.37808926 C101.852312,3.38201604 102.734251,2.45543631 103.778652,2.45543631 C104.846262,2.45543631 105.704992,3.38201604 105.704992,4.37808926 C105.704992,5.11935305 105.612156,5.88378134 104.590964,7.18099297 L98.5566466,14.5241374 L108.93103,14.5241374 L108.93103,12.0687011 L103.941114,12.0687011 L106.888646,8.52453359 Z" id="Path"></path>
                        <path d="M116.110009,-2.59348099e-13 C113.308688,-2.59348099e-13 111.005907,2.24695587 111.005907,5.02669508 C111.005907,7.89909227 113.308688,9.96073219 116.038789,9.96073219 L116.228709,9.96073219 L113.498608,14.5241374 L116.561069,14.5241374 L119.955891,8.8488365 C120.715571,7.57478936 121.380291,6.32390671 121.380291,4.91087261 C121.380291,1.89948846 118.79263,-2.59348099e-13 116.110009,-2.59348099e-13 Z M116.181229,7.52846037 C114.756829,7.52846037 113.593568,6.39340019 113.593568,5.00353059 C113.593568,3.61366098 114.756829,2.4786008 116.181229,2.4786008 C117.60563,2.4786008 118.76889,3.61366098 118.76889,5.00353059 C118.76889,6.39340019 117.60563,7.52846037 116.181229,7.52846037 Z" id="Shape"></path>
                    </g>
                </g>
            </g>
            <g id="Group-8" transform="translate(1.000000, 52.000000)">
                <g id="hitchd-new-nbc-logo-copy" transform="translate(164.000000, -0.000000)">
                    <g id="nbc_logo">
                        <path d="M23.509832,3.57131455 C22.7791953,1.74905021 20.9996106,-0.218982076 17.6668034,0.0513406904 C13.4211958,0.51249895 12.0981352,4.57765812 12.7396317,7.00288668 C11.0487743,5.85886422 8.17339975,5.35577498 5.66367406,7.50366473 C2.42331162,10.7491062 4.15654987,15.138075 5.93786937,16.1908893 C3.9746342,16.0092158 0.871906409,17.3346641 0.185468059,20.801729 C-0.544755627,25.106423 2.7397226,27.6159262 5.93786937,27.6159262 L41.402419,27.6159262 C45.1007099,27.6159262 47.152755,24.4193492 46.9225102,21.4046932 C46.5595876,17.4701969 42.9560548,15.960599 40.9904238,16.2839958 C42.6327042,15.3686128 44.8261841,11.0682935 41.490981,7.68764931 C38.8436207,5.17179041 35.4685977,6.08709092 34.2819326,7.18447754 C34.9216941,5.08272835 33.8727462,0.738166871 29.578727,0.0509279839 C29.2821433,0.0177463801 28.996382,0 28.7240042,0 C25.4460524,0.000330165211 23.9723042,2.39427557 23.509832,3.57131455" id="path3113"></path>
                        <path d="M6.25444559,8.188675 C4.38200302,9.88217492 3.7005215,13.719355 7.07587495,15.9624975 L20.5413517,25.1926787 L14.0122977,10.2478329 C12.6442126,6.72117322 8.90147545,5.95213589 6.25444559,8.188675" id="path3115" fill="#000000" fill-rule="nonzero"></path>
                        <path d="M17.8455797,0.922481599 C15.6568087,0.966971362 12.3701826,3.57123201 13.8328605,7.54790687 L20.5853849,23.4594764 L22.9583021,6.72356691 C23.5074362,2.56505353 20.3576186,0.645390447 17.8455797,0.922481599" id="path3117" fill="#000000" fill-rule="nonzero"></path>
                        <path d="M24.0122894,6.08535755 L25.2890862,6.08535755 C25.2890862,6.08535755 25.9709808,6.08535755 26.0637562,6.40669085 C25.5612988,6.8166735 24.1934615,6.86801419 24.3750467,9.05800006 L26.5216846,23.4573303 L33.2282757,7.50391236 C34.6000785,3.94184246 31.7205732,0.966971362 29.1663187,0.87601085 C29.047107,0.867426551 28.9273168,0.86049308 28.8035613,0.86049308 C26.5108622,0.86049308 23.8836597,2.52510354 24.0122894,6.08535755" id="path3119" fill="#000000" fill-rule="nonzero"></path>
                        <path d="M32.9582937,10.3832832 L26.6147904,25.1487667 L40.0764669,15.8698861 C43.1795252,13.6708207 42.678968,10.1550565 40.9420121,8.41731445 C40.2138537,7.59941265 38.8768314,6.96755885 37.4604173,6.96755885 C35.7871567,6.96731138 33.9963366,7.85405257 32.9582937,10.3832832" id="path3121" fill="#000000" fill-rule="nonzero"></path>
                        <path d="M38.5692602,17.9708925 L25.9271129,26.7934847 L41.4930463,26.7934847 C44.6865668,26.7934847 46.7388597,23.5034709 45.8265551,20.4845228 C45.2155432,18.5869807 43.4077046,17.0973578 41.3093958,17.0952118 C40.4261713,17.0956245 39.4894956,17.3614075 38.5692602,17.9708925" id="path3123" fill="#000000" fill-rule="nonzero"></path>
                        <path d="M5.89168824,26.7934847 L21.2279553,26.7934847 L8.5827513,17.9708925 C5.6615261,16.0955541 2.37655219,17.1928581 1.1907132,20.3048304 C0.185550673,23.867313 2.69527636,26.7934847 5.89168824,26.7934847" id="path3125" fill="#000000" fill-rule="nonzero"></path>
                    </g>
                </g>
                <g id="hitchd-abc-logo-copy" transform="translate(251.000000, 1.000000)">
                    <g id="Group-15">
                        <rect id="Rectangle" x="0" y="0" width="50.3193552" height="26.8369894"></rect>
                        <g id="ABC_Broadcast" transform="translate(0.000000, 2.795520)" fill="#000000" fill-rule="nonzero">
                            <path d="M12.1976553,21.0130723 L12.1976553,18.8763368 C11.1076556,20.1069463 9.86615124,20.9269848 8.03697552,20.9173275 C3.70894565,20.8935983 0.199596985,17.4202993 0.199596985,13.1070956 C0.199596985,8.79389185 3.70894565,5.29741549 8.03697552,5.29741549 C12.3650054,5.29741549 16.1301051,8.76657563 16.1301051,13.0800553 L16.134553,20.9857561 L12.1976553,21.0130723 Z M25.1136374,21.1355814 C20.7853295,21.1355814 17.0202298,17.6666972 17.0202298,13.3529416 L17.01606,0.212183578 L20.9471198,0.212183578 L20.9524017,7.55666012 C22.0429573,6.3263265 23.2844617,5.50628802 25.1136374,5.51594526 C29.4411113,5.53995043 32.95046,9.01297344 32.95046,13.3261772 C32.95046,17.6393809 29.4411113,21.1355814 25.1136374,21.1355814 Z M41.9651272,20.9523696 C37.6368193,20.9523696 34.1277486,17.4558932 34.1277486,13.1426894 C34.1277486,8.82948568 37.6368193,5.33300936 41.9651272,5.33300936 C45.7427364,5.33300936 48.9073772,8.08118678 49.6487771,11.6265012 L45.7079876,11.6135329 C45.1039148,10.190882 43.6844967,9.22984769 42.0368487,9.22984769 C39.8401698,9.22984769 38.0593644,11.0040225 38.0593644,13.1931831 C38.0593644,15.3828956 39.8401698,17.1576222 42.0368487,17.1576222 C43.6844967,17.1576222 45.1211502,16.2070729 45.725223,14.784146 L49.6657345,14.7659352 C48.9351762,18.3250457 45.7521881,20.9523696 41.9651272,20.9523696 Z M8.08562383,9.15341747 C5.88894503,9.15341747 4.10758364,10.9281441 4.10758364,13.1173047 C4.10758364,15.3061894 5.88894503,17.0814679 8.08562383,17.0814679 C10.2823027,17.0814679 12.0636641,15.3061894 12.0636641,13.1173047 C12.0636641,10.9281441 10.2823027,9.15341747 8.08562383,9.15341747 Z M25.0127269,9.15341747 C22.8160481,9.15341747 21.0346867,10.9281441 21.0346867,13.1173047 C21.0346867,15.3061894 22.8160481,17.0814679 25.0127269,17.0814679 C27.2094057,17.0814679 28.9907671,15.3061894 28.9907671,13.1173047 C28.9907671,10.9281441 27.2094057,9.15341747 25.0127269,9.15341747 Z" id="Combined-Shape"></path>
                        </g>
                    </g>
                </g>
                <g id="entrepreneur-wordmark" transform="translate(0.000000, 4.000000)" fill-rule="nonzero">
                    <path d="M13.1448932,0 L12.8130777,5.019 L10.379301,5.019 L10.157165,1.8956 L6.28505825,1.8956 L6.28505825,9.3695 L7.95107767,9.3695 C8.06214563,8.8116 8.17321359,8.2537 8.39326699,7.6895 L10.1634126,7.6895 L10.1634126,12.8205 L8.4973932,12.8205 C8.38632524,12.2626 8.16557767,11.7047 8.05520388,11.1405 L6.38918447,11.1405 L6.38918447,19.075 L10.2612913,19.075 L10.5931068,15.617 L13.2483252,15.729 L13.4704612,20.979 L0.755262136,20.979 L0.755262136,19.18 L2.52540777,18.8454 L2.52540777,2.1196 C1.8234328,2.01667679 1.1227271,1.90513519 0.423446602,1.785 L0.423446602,0 L13.1455874,0 L13.1448932,0 Z M58.058,28 C58.058,27.4421 58.169068,26.9962 58.169068,26.5496 L59.4963301,26.215 L59.4963301,8.3664 C58.9430728,8.2544 58.5008835,8.2544 57.9483204,8.1424 L57.9483204,6.692 L62.1522427,6.1341 C62.2633107,6.692 62.4840583,7.2499 62.594432,7.6951 C62.7055,7.6951 62.7055,7.5831 62.816568,7.5831 C63.8120146,6.356 65.1399709,6.0221 66.6886748,6.1327 C68.5629466,6.3567 69.6757087,7.5831 70.1178981,9.2561 C70.340034,10.0373 70.5600874,10.8171 70.5600874,11.599 C70.6711553,13.279 70.6711553,14.945 70.4490194,16.5074 C70.3379515,17.0653 70.1172039,17.7345 69.8957621,18.2924 C69.1210631,19.9724 67.793801,20.9699 66.0236553,21.0812 C65.0282087,21.1932 64.1493835,21.0812 63.2580631,20.6353 L63.0359272,20.6353 L63.0359272,26.2129 C63.5124884,26.3366765 63.992086,26.4482457 64.4742573,26.5475 C64.4742573,26.9934 64.3631893,27.44 64.3631893,27.9979 L58.0573058,27.9979 L58.058,28 Z M63.035233,18.7411 C64.1417476,19.187 65.247568,19.299 66.3533883,18.8531 C66.5510073,18.7656224 66.7088281,18.6064773 66.7955777,18.4072 C66.9066456,17.8493 67.1273932,17.2914 67.1273932,16.7272 C67.3495291,15.0472 67.3495291,13.2692 67.2384612,11.5962 C67.2356461,10.9858775 67.1232263,10.3811157 66.9066456,9.8112 C66.5748301,8.5841 65.6897573,8.1312 64.4728689,8.3608 L64.250733,8.3608 C63.476034,8.4728 63.0338447,9.03 63.0338447,9.8112 L63.0338447,18.7362 L63.035233,18.7411 Z M105.074456,19.075 L106.512786,19.4096 C106.512786,19.9675 106.512786,20.4134 106.401718,20.9706 L101.534165,20.9706 L101.534165,10.9326 C101.534165,10.4867 101.423097,10.0401 101.312029,9.5942 C101.200961,9.0363 100.758772,8.813 100.205515,8.7017 C99.6522573,8.5904 99.210068,8.5897 98.7671845,8.8137 C98.324301,9.0377 97.9924854,9.2596 97.9924854,9.8175 L97.9924854,19.075 L99.4308155,19.4096 C99.4308155,19.8555 99.3197476,20.4134 99.3197476,20.9706 L93.124932,20.9706 L93.124932,19.4096 L94.5632621,19.075 L94.5632621,8.47 C94.0100049,8.358 93.5678155,8.358 93.0152524,8.246 L93.0152524,6.685 L97.1081068,6.1271 L97.4399223,7.4655 C97.7717379,7.2415 98.1035534,6.9076 98.4353689,6.6843 C99.7626311,5.7918 101.311335,5.6805 102.749665,6.2384 C103.966553,6.6843 104.623937,7.6888 104.851626,9.0272 C104.962694,9.3618 104.962694,9.8084 104.962694,10.143 L104.962694,18.5094 C105.073762,18.7334 105.073762,18.9553 105.073762,19.0673 L105.074456,19.075 Z M19.4507767,19.18 L20.8891068,19.5146 C20.8891068,20.0725 20.7780388,20.5184 20.7780388,21.0756 L14.4735437,21.0756 C14.4735437,20.6297 14.4735437,20.0718 14.5846117,19.5146 L15.9118738,19.18 C16.0229417,18.8454 16.0229417,9.1399 15.9118738,8.582 C15.4696845,8.47 14.9164272,8.47 14.3638641,8.358 L14.3638641,6.79 C15.6911262,6.566 17.0190825,6.4554 18.4567184,6.2321 L18.788534,7.5705 L19.1203495,7.2359 C20.4476117,6.1201 21.9963155,5.7855 23.6560874,6.2321 C25.0944175,6.5667 25.8684223,7.5705 26.2002379,9.0209 C26.3113058,9.3555 26.3113058,9.8021 26.3113058,10.1367 L26.3113058,19.0617 C26.8645631,19.1737 27.3067524,19.2857 27.7496359,19.3963 L27.7496359,20.9573 L22.88,20.9573 L22.88,11.2672 C22.88,10.9326 22.88,10.486 22.768932,10.1514 C22.6578641,9.2589 22.105301,8.813 21.3306019,8.701 C20.6669709,8.589 20.1137136,8.701 19.6645825,9.2589 C19.4424466,9.4829 19.4424466,9.7048 19.4424466,10.0401 L19.4424466,19.18 L19.4507767,19.18 Z M127.42133,8.1431 C126.868073,8.1431 126.425883,8.0311 125.87332,8.0311 L125.87332,6.692 L130.6305,6.1341 C130.852636,6.692 131.072689,7.2499 131.072689,7.9191 L131.072689,19.18 C131.554861,19.2792543 132.034458,19.3908235 132.511019,19.5146 C132.511019,20.0725 132.399951,20.5184 132.399951,21.0756 L128.307097,21.0756 C128.196029,20.741 128.084961,20.2944 127.975282,19.8485 C127.864214,19.9605 127.753146,20.0725 127.643466,20.0725 C125.977447,21.6335 123.771359,21.4109 122.333029,20.7417 C121.226515,20.1838 120.66701,19.2913 120.458757,18.0642 C120.347689,17.6183 120.347689,17.283 120.347689,16.8371 L120.347689,8.2481 C119.794432,8.1361 119.241175,8.1361 118.79968,8.0241 L118.79968,6.685 L123.445791,6.1271 C123.556859,6.685 123.777607,7.1309 123.777607,7.6881 L123.777607,16.1665 C123.777607,16.5011 123.777607,16.9477 123.888675,17.2823 C123.999743,18.2861 124.663374,18.9623 125.65882,18.9623 C125.990636,18.9623 126.433519,18.8503 126.765335,18.8503 C127.09715,18.7383 127.650408,18.0691 127.650408,17.7345 L127.650408,8.4784 C127.428272,8.3664 127.428272,8.2544 127.428272,8.1438 L127.42133,8.1431 Z M50.204801,14.5019 C50.204801,15.729 50.4269369,16.7328 50.9795,17.7373 C51.5327573,18.5185 52.3067621,18.9644 53.3029029,19.0757 C54.2983495,19.0757 55.1771748,18.8517 56.0684951,18.5178 C56.1795631,18.5178 56.2906311,18.4058 56.5106845,18.4058 C56.7328204,18.8517 56.8425,19.2983 57.0639417,19.7442 C56.8418058,19.9682 56.5106845,20.0788 56.2892427,20.3021 C54.5190971,21.3059 52.6378835,21.6405 50.7580583,20.9713 C49.0920388,20.5254 48.1028398,19.4103 47.328835,17.8479 C46.5541359,16.1679 46.3333883,14.3899 46.5541359,12.5979 C46.6652039,11.4821 46.8859515,10.367 47.328835,9.3625 C48.103534,7.6825 49.3211165,6.5737 51.0898738,6.2391 C52.8586311,5.9045 54.4080291,6.1271 55.7359854,7.3549 C56.5106845,8.1361 56.9528738,9.1399 57.2839951,10.1437 C57.6158107,11.2595 57.7261845,12.2633 57.7261845,13.3791 C57.7261845,13.7137 57.5040485,14.0483 57.3943689,14.4949 L50.2027184,14.4949 L50.204801,14.5019 Z M54.5190971,12.6119 C54.5190971,12.166 54.4080291,11.8307 54.4080291,11.4961 C54.2969612,10.6036 54.1858932,9.8161 53.7443981,9.0419 C53.3022087,8.1494 52.5275097,7.9261 51.6424369,8.2607 C51.3106214,8.3727 51.0891796,8.5953 50.8677379,8.9299 C50.4255485,10.157 50.2041068,11.3841 50.0930388,12.6119 L50.0930388,12.9465 L54.5184029,12.6119 L54.5190971,12.6119 Z M117.907665,14.5019 C115.473888,14.5019 113.150485,14.6139 110.716015,14.6139 C110.604947,15.1718 110.716015,15.6177 110.827083,16.0643 C110.93815,16.8455 111.269272,17.5147 111.712155,18.0733 C112.265413,18.7425 112.929044,19.0771 113.814117,19.0771 C114.699189,19.0771 115.584262,18.9651 116.469335,18.6312 C116.691471,18.5192 116.80115,18.5192 117.022592,18.4072 C117.244728,18.8531 117.354408,19.2997 117.57585,19.7456 C117.464782,19.7456 117.464782,19.8576 117.353714,19.8576 C115.805704,20.9734 114.145238,21.308 112.265413,21.196 C110.053078,20.972 108.504374,19.635 107.729675,17.514 C106.62316,14.8365 106.734228,12.159 107.840743,9.4822 C108.504374,7.8022 109.715015,6.5821 111.601782,6.2468 C113.040112,5.9122 114.477748,6.0228 115.694636,6.916 C116.579709,7.5852 117.132966,8.477 117.568908,9.3702 C118.011097,10.5973 118.232539,12.0477 118.232539,13.3861 C118.232539,13.7207 118.010403,14.0553 117.900723,14.5019 L117.907665,14.5019 Z M115.142073,12.6119 C115.142073,11.6081 115.031005,10.7219 114.699883,9.8231 C114.588816,9.3772 114.368068,8.9306 114.036252,8.596 C113.482995,7.8148 111.71285,8.0381 111.492102,9.0419 C111.269966,9.8231 111.049913,10.6029 110.938845,11.4961 C110.827777,11.942 110.827777,12.3886 110.827777,12.9465 L115.142073,12.6119 L115.142073,12.6119 Z M92.4633835,14.5019 C90.0296068,14.5019 87.7062039,14.6139 85.271733,14.6139 C85.271733,15.9523 85.4938689,17.0681 86.2671796,18.0719 C86.8204369,18.7411 87.484068,19.0757 88.2594612,19.0757 C89.144534,19.0757 90.133733,18.9637 90.9146796,18.6298 C91.1368155,18.5178 91.2464951,18.5178 91.4679369,18.4058 C91.6900728,18.8517 91.7997524,19.2983 92.0211942,19.7442 C91.7990583,19.8562 91.6893786,19.9682 91.5790049,20.0788 C89.9129854,21.0826 88.1497816,21.4172 86.268568,21.0826 C84.4984223,20.748 83.281534,19.6322 82.5075291,18.0705 C81.7328301,16.3905 81.5120825,14.7245 81.6224563,12.9395 C81.7335243,11.7124 81.9542718,10.5966 82.3971553,9.4815 C82.9504126,8.1431 83.8354854,7.1386 85.1627476,6.5814 C86.7107573,5.9122 88.2601553,5.9122 89.8088592,6.6934 C90.8043058,7.2513 91.4748786,8.1438 91.9108204,9.1476 C92.4640777,10.486 92.6855194,11.9364 92.6855194,13.3868 C92.7965874,13.7214 92.5744515,14.056 92.4633835,14.5026 L92.4633835,14.5019 Z M89.6977913,12.6119 C89.6977913,12.166 89.5867233,11.7194 89.5867233,11.2735 C89.4756553,10.4923 89.3645874,9.7125 88.9230922,9.0426 C88.369835,8.1501 87.5958301,7.8155 86.7107573,8.2614 C86.4886214,8.3734 86.268568,8.4854 86.1575,8.8193 C85.7153107,9.7118 85.4938689,10.7093 85.382801,11.7194 C85.382801,12.054 85.271733,12.3886 85.271733,12.8352 C86.7100631,12.8352 88.147699,12.7232 89.6970971,12.6112 L89.6977913,12.6119 Z M40.8015097,6.2468 L41.1333252,7.5852 C41.3554612,7.4732 41.4651408,7.3612 41.6865825,7.2506 C42.6775279,6.7001157 43.7691399,6.35859523 44.8950583,6.2468 C45.4483155,6.1348 45.8905049,6.3588 46.2223204,6.8047 L45.7808252,10.7107 C45.0061262,10.7107 44.2328155,10.5987 43.4574223,10.5987 C43.3463544,9.9295 43.2352864,9.2603 43.2352864,8.4791 C42.6820291,8.4791 42.2398398,8.7031 41.7969563,9.037 L41.7969563,19.075 L43.2352864,19.4096 C43.2352864,19.8555 43.2352864,20.4134 43.1242184,20.86 L36.9300971,20.86 L36.9300971,19.411 L38.2573592,19.0764 L38.2573592,8.4784 C37.7041019,8.3664 37.2619126,8.3664 36.7093495,8.2544 L36.7093495,6.6934 C38.0366117,6.6934 39.364568,6.4694 40.8022039,6.2475 L40.8015097,6.2468 Z M133.173956,20.972 C133.173956,20.4141 133.173956,19.9682 133.285024,19.5216 L134.612286,19.187 L134.612286,8.589 C134.170097,8.477 133.61684,8.477 133.064277,8.365 L133.064277,6.804 L137.268199,6.2461 L137.600015,7.4732 L139.37016,6.692 C140.033791,6.468 140.587049,6.3574 141.244432,6.2461 C141.797689,6.1341 142.239879,6.2461 142.571694,6.804 L142.129505,10.7086 C141.354806,10.7086 140.581495,10.5966 139.806102,10.5966 C139.695034,9.9274 139.583966,9.1462 139.583966,8.477 L138.145636,9.0349 L138.145636,19.18 C138.622197,19.3037765 139.101795,19.4153457 139.583966,19.5146 C139.583966,19.9605 139.472898,20.5184 139.472898,20.965 L133.167015,20.965 L133.173956,20.972 Z M78.1918447,8.4784 L76.7535146,9.0363 L76.7535146,19.18 L78.1918447,19.5146 C78.1918447,20.0725 78.0807767,20.5184 78.0807767,20.965 L71.8859612,20.965 L71.8859612,19.5146 L73.2132233,19.18 L73.2132233,8.589 C72.659966,8.477 72.2177767,8.477 71.6652136,8.365 L71.6652136,6.804 L75.8691359,6.2461 L76.2009515,7.4732 L77.4178398,6.804 C78.1929634,6.46407173 79.012665,6.23868363 79.8516165,6.1348 C80.5152476,6.1348 80.9581311,6.3588 81.2899466,6.804 L80.8477573,10.7086 C80.0730583,10.7086 79.2997476,10.5966 78.5243544,10.5966 L78.1925388,8.477 L78.1918447,8.4784 Z M32.8365485,3.458 L32.8365485,6.4701 L35.380699,6.4701 C35.2696311,7.1393 35.2696311,7.6972 35.2696311,8.3601 C34.494932,8.3601 33.7216214,8.4721 32.9462282,8.5841 L32.9462282,18.074 C33.0572961,18.6319 33.3884175,19.0778 34.0527427,19.0778 L35.4910728,19.0778 C35.4910728,19.6357 35.6021408,20.0816 35.6021408,20.6388 C35.2703252,20.8628 34.8274417,20.9734 34.3852524,21.0847 C33.5001796,21.3087 32.6151068,21.3087 31.730034,21.1967 C30.4027718,20.9727 29.517699,20.0809 29.2962573,18.6312 L29.2962573,8.589 C28.743,8.477 28.1897427,8.365 27.6302379,8.365 C27.6302379,7.8071 27.6302379,7.1379 27.7413058,6.58 C28.4049369,6.58 28.9581942,6.468 29.6155777,6.468 L30.3902767,3.6792 L32.8240534,3.4552 L32.8365485,3.458 Z" id="Shape" fill="#000000"></path>
                    <path d="M64.4194175,25.77 C64.4194175,26.0557143 64.1417476,26.27 63.8640777,26.27 C63.5169903,26.27 63.2393204,26.0557143 63.2393204,25.77 C63.2393204,25.4842857 63.5169903,25.27 63.8640777,25.27 C64.211165,25.27 64.4194175,25.4842857 64.4194175,25.77 Z M63.4475728,25.77 C63.4475728,25.9842857 63.6558252,26.1271429 63.8640776,26.1271429 C64.0723301,26.1271429 64.2805825,25.9842857 64.2805825,25.77 C64.2805825,25.5557143 64.0723301,25.4128571 63.8640776,25.4128571 C63.5864078,25.4128571 63.4475728,25.5557143 63.4475728,25.77 Z M63.7946602,26.0557143 L63.6558252,26.0557143 L63.6558252,25.5557143 L63.8640777,25.5557143 C64.0029126,25.5557143 64.0029126,25.5557143 64.0723301,25.6271429 L64.1417476,25.6985714 C64.1417476,25.77 64.0723301,25.77 64.0029126,25.8414286 C64.0723301,25.8414286 64.0723301,25.9128571 64.1417476,25.9842857 C64.1417476,26.0557143 64.1417476,26.0557143 64.211165,26.1271429 L64.0029126,26.1271429 C64.0029126,26.1271429 64.0029126,26.0557143 63.9334951,26.0557143 C63.9334951,25.9842857 63.8640777,25.9842857 63.8640777,25.9842857 L63.7946602,25.9842857 L63.7946602,26.0557143 Z M63.7946602,25.77 C63.9334951,25.77 63.9334951,25.77 63.9334951,25.6985715 C63.9334951,25.6271429 63.8640776,25.6271429 63.8640776,25.6271429 L63.7946602,25.6271429 L63.7946602,25.77 Z" id="Shape" fill="#9D9E9E"></path>
                </g>
            </g>
            <g id="Group-9" transform="translate(2.000000, 107.000000)" fill="#000000">
                <g id="hitchd-fox-logo-copy" transform="translate(259.000000, 7.000000)" fill-rule="nonzero">
                    <g id="fox_network_logo">
                        <polyline id="Fill-1" points="1.67245035e-13 17.1661356 1.67245035e-13 -1.84849776e-13 10.3069529 -1.84849776e-13 10.6234227 4.69357583 4.85461217 4.69357583 4.85461217 6.93355455 9.55442464 6.93355455 9.55442464 11.6163633 4.81553652 11.6163633 4.8273451 17.1661356 1.67245035e-13 17.1661356"></polyline>
                        <polyline id="Fill-2" points="39.8502877 17.1407253 34.6976701 8.2342151 39.3803065 0.0254102564 34.2216772 0.0254102564 32.0804607 3.72303324 29.9776757 0.0254102564 24.6376237 0.0254102564 29.4136552 8.29192655 24.3552915 17.1407253 29.5418319 17.1504157 32.0158355 12.8117221 34.5186092 17.1407253 39.8502877 17.1407253"></polyline>
                        <path d="M18.6702145,13.4282438 C17.905663,13.4282438 17.2862496,12.7938487 17.2862496,12.0115143 L17.2879672,5.17400195 C17.2879672,4.39166753 17.9058777,3.69159343 18.6704292,3.69159343 C19.4349807,3.69159343 20.1024872,4.39166753 20.1024872,5.17400195 L20.1233132,12.0313257 C20.1233132,12.8138755 19.434766,13.4282438 18.6702145,13.4282438 Z M18.6476709,0.258840069 C14.1434513,0.258840069 10.4920254,3.99565514 10.4920254,8.60546325 C10.4920254,13.2150561 14.1432366,16.9520864 18.6476709,16.9520864 C23.151461,16.9520864 26.8026721,13.2150561 26.8026721,8.60546325 C26.8026721,3.99565514 23.1516757,0.258840069 18.6476709,0.258840069 L18.6476709,0.258840069 Z" id="Fill-3"></path>
                    </g>
                </g>
                <g id="hitchd-cbs-logo-copy" transform="translate(0.000000, 7.000000)" fill-rule="nonzero">
                    <g id="cbs">
                        <path d="M19.8949444,9.74100577 C19.8949444,4.65153283 23.7624403,1.21780137 28.8774707,1.21780137 C33.1609662,1.21780137 35.314089,3.73794761 36.2937308,6.01078651 L32.0343781,8.01149363 C31.6195393,6.72694737 30.3460049,5.61546944 28.8774707,5.61546944 C26.5035804,5.61546944 24.9120106,7.44381082 24.9120106,9.74100577 C24.9120106,12.0391374 26.5035804,13.8674788 28.8774707,13.8674788 C30.3460049,13.8674788 31.6195393,12.7552983 32.0343781,11.4705179 L36.2937308,13.446869 C35.3391604,15.6464056 33.1609662,18.2651469 28.8774707,18.2651469 C23.7624403,18.2651469 19.8949444,14.8063568 19.8949444,9.74100577" id="Fill-1"></path>
                        <path d="M47.408487,12.780357 C47.408487,12.1873814 46.9667196,11.7185278 46.2570597,11.7185278 L42.292296,11.7185278 L42.292296,13.8180642 L46.2570597,13.8180642 C46.9667196,13.8180642 47.408487,13.3986253 47.408487,12.780357 Z M47.089523,6.57846929 C47.089523,6.01078651 46.6247736,5.63982547 46.1110419,5.63982547 L42.292296,5.63982547 L42.292296,7.56699611 L46.1110419,7.56699611 C46.6247736,7.56699611 47.089523,7.17144489 47.089523,6.57846929 Z M37.3483547,17.9688933 L37.3483547,1.48899636 L47.2606122,1.48899636 C50.6394479,1.48899636 52.10775,3.76206945 52.10775,5.68924011 C52.10775,7.74029863 50.9073405,9.12390836 49.3169314,9.46981076 C51.0781975,9.74100577 52.4246246,11.3716886 52.4246246,13.4974546 C52.4246246,15.7944153 50.8831976,17.9688933 47.6034868,17.9688933 L37.3483547,17.9688933 Z" id="Fill-2"></path>
                        <path d="M52.6734815,15.6464056 L55.2435323,11.9403082 C56.466924,13.1262594 58.3022435,14.0651374 60.505509,14.0651374 C61.4350081,14.0651374 62.3157571,13.8180642 62.3157571,13.175674 C62.3157571,11.5944058 53.2113559,13.2007326 53.2113559,6.70259135 C53.2113559,3.91031334 55.5135142,1.2419232 59.9917774,1.2419232 C62.6597925,1.2419232 65.057826,2.00843548 66.9182168,3.54005489 L64.2741122,7.07261562 C62.8557208,5.9857279 61.0201692,5.44193275 59.4768851,5.44193275 C58.4981719,5.44193275 58.2293507,5.76371334 58.2293507,6.18315224 C58.2293507,7.74029863 67.3089128,6.40610355 67.3089128,12.533518 C67.3089128,16.1656106 64.6420585,18.2651469 60.25967,18.2651469 C56.7858879,18.2651469 54.4108368,17.2276738 52.6734815,15.6464056" id="Fill-3"></path>
                        <path d="M14.1948244,9.50072419 C14.1948244,12.293939 11.9897017,14.5185342 9.24577602,14.5185342 C6.4999932,14.5185342 4.27397767,12.293939 4.27397767,9.50072419 C4.27397767,6.75294274 6.4999932,4.5042257 9.24577602,4.5042257 C11.9897017,4.5042257 14.1948244,6.75294274 14.1948244,9.50072419 Z M0.651160032,9.50072419 C1.95649795,12.2709881 5.01636974,14.9731019 9.24577602,14.9731019 C13.4524323,14.9731019 16.5334291,12.2709881 17.8385349,9.50072419 C16.5334291,6.77519104 13.4524323,4.07307718 9.24577602,4.07307718 C5.01636974,4.07307718 1.95649795,6.77519104 0.651160032,9.50072419 Z M18.4685699,9.50072419 C18.4685699,14.7239211 14.4195385,18.9695982 9.24577602,18.9695982 C4.09337071,18.9695982 0,14.7239211 0,9.50072419 C0,4.32296065 4.09337071,0.076346778 9.24577602,0.076346778 C14.4195385,0.076346778 18.4685699,4.32296065 18.4685699,9.50072419 L18.4685699,9.50072419 Z" id="Fill-4"></path>
                    </g>
                </g>
                <g id="Business_Insider_Logo" transform="translate(109.000000, 0.000000)" stroke="#000000" stroke-width="0.1">
                    <path d="M7.90723077,32 L10.2801923,32 L10.2801923,19.2 L7.90723077,19.2 L7.90723077,32 Z M16.6057788,31.808 L18.7311442,31.808 L18.7311442,23.732 L27.6772885,32 L27.6772885,19.392 L25.5578654,19.392 L25.5578654,27.33 L16.6057788,19.2 L16.6057788,31.808 Z M32.5291827,28.708 C33.6859519,29.618 35.0744712,30.144 36.5630192,30.144 C38.0129423,30.144 39.0300673,29.64 39.0300673,28.527 C39.0300673,27.557 38.3813654,27.177 37.2453942,26.752 L35.40625,26.107 C33.7107115,25.499 32.4212308,24.611 32.4212308,22.57 C32.4212308,20.387 34.3732788,19.2 36.7076154,19.2 C38.1377308,19.2 39.4410769,19.563 40.4591923,20.206 L40.4591923,22.371 C39.4004712,21.581 38.2417212,21.037 36.7531731,21.037 C35.4716154,21.037 34.5139135,21.52 34.5139135,22.527 C34.5139135,23.437 35.1150769,23.801 36.1737981,24.167 L38.2229038,24.893 C40.208625,25.598 41.1197788,26.691 41.1197788,28.489 C41.1197788,30.751 39.1489135,32 36.5630192,32 C34.8635192,32 33.4185481,31.52 32.5291827,30.914 L32.5291827,28.708 Z M46.6560288,32 L49.028,32 L49.028,19.2 L46.6560288,19.2 L46.6560288,32 Z M60.1559615,30.063 C62.83,30.063 64.259125,28.331 64.259125,25.597 C64.259125,22.843 62.8290096,21.117 60.1559615,21.117 L57.5116346,21.117 L57.5116346,30.063 L60.1559615,30.063 L60.1559615,30.063 Z M55.3525962,19.2 L60.2351923,19.2 C63.9937019,19.2 66.4241058,21.7 66.4241058,25.597 C66.4241058,29.497 63.9937019,32 60.2351923,32 L55.3525962,32 L55.3525962,19.2 Z M78.2869327,19.2 L78.2869327,21.117 L72.5456731,21.117 L72.5456731,24.197 L77.6946827,24.197 L77.6946827,26.092 L72.5446827,26.092 L72.5446827,30.063 L78.2869327,30.063 L78.2869327,32 L70.3787115,32 L70.3787115,19.2 L78.2869327,19.2 Z M86.7071827,24.996 L89.0613269,24.996 C90.4547981,24.996 91.2401731,24.224 91.2401731,23.037 C91.2401731,21.85 90.4547981,21.077 89.0613269,21.077 L86.7071827,21.077 L86.7071827,24.997 L86.7071827,24.996 Z M86.7071827,26.806 L86.7071827,32 L84.6125192,32 L84.6125192,19.2 L89.1009423,19.2 C91.6600962,19.2 93.3160192,20.531 93.3160192,23.037 C93.3160192,25.18 92.3969423,26.411 90.4389519,26.727 L94.8927115,32 L92.5098462,32 L88.1977115,26.807 L86.7081731,26.807 L86.7071827,26.806 Z M7.07827885,6.59 C8.00626923,6.247 8.72925,5.218 8.72925,3.803 C8.72925,1.445 7.07827885,0.223 4.43692308,0.223 L0,0.223 L0,13.386 L4.84892308,13.386 C7.49027885,13.386 9.14125,12.078 9.14125,9.613 C9.14125,8.219 8.27466346,6.997 7.07827885,6.59 Z M2.08376923,5.754 L2.08376923,2.153 L4.41711538,2.153 C5.88288462,2.153 6.66627885,2.689 6.66627885,3.932 C6.66627885,5.175 5.88189423,5.754 4.41711538,5.754 L2.08376923,5.754 Z M2.08376923,7.598 L4.80732692,7.598 C6.25328846,7.598 7.03668269,8.326 7.03668269,9.527 C7.03668269,10.706 6.25229808,11.457 4.80831731,11.457 L2.08475962,11.457 L2.08475962,7.597 L2.08376923,7.598 Z M18.8222596,13.6 C21.8558077,13.6 23.8989712,11.756 23.8989712,8.155 L23.8989712,0.223 L21.7528077,0.223 L21.7528077,7.897 C21.7528077,10.427 20.7208269,11.607 18.8222596,11.607 C16.9236923,11.607 15.8927019,10.427 15.8927019,7.897 L15.8927019,0.223 L13.7465385,0.223 L13.7465385,8.133 C13.7465385,11.756 15.8095096,13.6 18.8222596,13.6 L18.8222596,13.6 Z M28.9519135,12.442 C29.8392981,13.086 31.2842692,13.6 32.9758462,13.6 C35.5557981,13.6 37.5157692,12.27 37.5157692,9.87 C37.5157692,7.962 36.6085769,6.804 34.6268173,6.054 L32.5846442,5.282 C31.5318654,4.897 30.9336731,4.511 30.9336731,3.546 C30.9336731,2.474 31.8824615,1.96 33.1620385,1.96 C34.6476154,1.96 35.8033942,2.538 36.8561731,3.375 L36.8561731,1.08 C35.8449904,0.395 34.5446154,0.009 33.1204423,0.009 C30.7890769,0.009 28.8489135,1.274 28.8489135,3.589 C28.8489135,5.754 30.1284904,6.697 31.8200673,7.34 L33.6572308,8.026 C34.7922115,8.476 35.432,8.884 35.432,9.913 C35.432,11.092 34.4208173,11.628 32.9758462,11.628 C31.4902692,11.628 30.1076923,11.07 28.9519135,10.106 L28.9519135,12.442 L28.9519135,12.442 Z M45.1843173,0.223 L43.0391442,0.223 L43.0391442,13.385 L45.1843173,13.385 L45.1843173,0.223 Z M51.306875,13.369 L53.3747981,13.369 L53.3747981,4.806 L62.0782981,13.573 L62.0782981,0.203 L60.0163173,0.203 L60.0163173,8.62 L51.306875,0 L51.306875,13.369 L51.306875,13.369 Z M75.4890962,0.226 L75.4890962,2.197 L69.9171923,2.197 L69.9171923,5.365 L74.9136827,5.365 L74.9136827,7.314 L69.9171923,7.314 L69.9171923,11.397 L75.4890962,11.397 L75.4890962,13.389 L67.8136154,13.389 L67.8136154,0.226 L75.4890962,0.226 Z M80.4855865,12.433 C81.3729712,13.077 82.8169519,13.591 84.5095192,13.591 C87.0884808,13.591 89.0494423,12.262 89.0494423,9.861 C89.0494423,7.953 88.1412596,6.796 86.1604904,6.045 L84.1173269,5.274 C83.0645481,4.888 82.4663558,4.502 82.4663558,3.537 C82.4663558,2.465 83.4151442,1.951 84.6947212,1.951 C86.1802981,1.951 87.3360769,2.53 88.3888558,3.366 L88.3888558,1.072 C87.3776731,0.386 86.0772981,0 84.653125,0 C82.3217596,0 80.3815962,1.265 80.3815962,3.58 C80.3815962,5.745 81.6611731,6.688 83.35275,7.331 L85.1899135,8.017 C86.3248942,8.467 86.9646827,8.875 86.9646827,9.904 C86.9646827,11.083 85.9544904,11.619 84.5085288,11.619 C83.0229519,11.619 81.640375,11.062 80.4855865,10.097 L80.4855865,12.433 Z M93.4457596,12.433 C94.3331442,13.077 95.7781154,13.591 97.4696923,13.591 C100.049644,13.591 102.009615,12.262 102.009615,9.861 C102.009615,7.953 101.101433,6.796 99.1206635,6.045 L97.0775,5.274 C96.0257115,4.888 95.4265288,4.502 95.4265288,3.537 C95.4265288,2.465 96.3763077,1.951 97.6548942,1.951 C99.1404712,1.951 100.29724,2.53 101.349029,3.366 L101.349029,1.072 C100.338837,0.386 99.0384615,0 97.6142885,0 C95.2819327,0 93.3427596,1.265 93.3427596,3.58 C93.3427596,5.745 94.6223365,6.688 96.3139135,7.331 L98.1510769,8.017 C99.2860577,8.467 99.9258462,8.875 99.9258462,9.904 C99.9258462,11.083 98.9146635,11.619 97.4696923,11.619 C95.9841154,11.619 94.6015385,11.062 93.4457596,10.097 L93.4457596,12.433 Z" id="Shape"></path>
                </g>
            </g>
        </g>
    </g>
</svg>