<?xml version="1.0" encoding="UTF-8"?>
<svg width="61px" height="22px" viewBox="0 0 61 22" version="1.1" xmlns="http://www.w3.org/2000/svg" xmlns:xlink="http://www.w3.org/1999/xlink">
    <!-- Generator: Sketch 61.2 (89653) - https://sketch.com -->
    <title>hitchd-logo-light copy</title>
    <desc>Created with Sketch.</desc>
    <g id="Page-1" stroke="none" stroke-width="1" fill="none" fill-rule="evenodd">
        <g id="hitchd-logo-light-copy" fill="#111212" fill-rule="nonzero">
            <path d="M0,16.7268479 L0,0.156430108 L2.16170062,0.156430108 L2.16170062,7.00583412 C2.91229488,5.93316515 4.03441644,5.39683872 5.528099,5.39683872 C6.81161516,5.39683872 7.79487888,5.8009458 8.47791964,6.60917206 C9.16096041,7.41739832 9.50247567,8.46211753 9.50247567,9.74336101 L9.50247567,16.7268479 L7.32951619,16.7268479 L7.32951619,10.1120891 C7.32951619,9.27034195 7.12685878,8.59807166 6.72153789,8.09525808 C6.31621699,7.59244451 5.65945688,7.34104149 4.75123784,7.34104149 C3.95560793,7.34104149 3.3307476,7.6129292 2.87663807,8.15671277 C2.42252855,8.70049634 2.18421845,9.39697581 2.16170062,10.246172 L2.16170062,16.7268479 L0,16.7268479 Z M12.2630496,1.5531275 C12.2630496,1.12108028 12.4131662,0.7542181 12.7134039,0.452529955 C13.0136416,0.15084181 13.3776744,0 13.8055131,0 C14.2408578,0 14.6105199,0.15084181 14.9145105,0.452529955 C15.2185012,0.7542181 15.3704943,1.12108028 15.3704943,1.5531275 C15.3704943,1.97772563 15.2185012,2.33900108 14.9145105,2.63696468 C14.6105199,2.93492827 14.2408578,3.08390784 13.8055131,3.08390784 C13.3776744,3.08390784 13.0136416,2.93492827 12.7134039,2.63696468 C12.4131662,2.33900108 12.2630496,1.97772563 12.2630496,1.5531275 Z M12.7471804,16.7268479 L12.7471804,5.72087252 L14.8863634,5.72087252 L14.8863634,16.7268479 L12.7471804,16.7268479 Z M40.4600505,9.81042165 C40.4600134,10.8119073 40.4599702,11.4777405 40.4599211,11.4843091 C40.4163989,17.2993545 35.6529865,22 29.7833003,22 C23.8865995,22 19.106379,17.2559865 19.106379,11.4039492 L19.106379,7.66507529 L16.9939236,7.66507529 L16.9939236,5.72087252 L17.590643,5.72087252 C18.1610946,5.72087252 18.5889269,5.56444397 18.8741528,5.2515822 C19.1593786,4.93872042 19.3019894,4.52902661 19.3019894,4.02248849 L19.3019894,2.24588941 L21.2835483,2.24588941 L21.2835483,5.72087252 L23.6816849,5.72087252 L23.6816849,7.66507529 L21.3119402,7.66507529 L21.3119402,11.4039492 C21.3119402,16.0471149 25.1046973,19.8111445 29.7833003,19.8111445 C34.4378974,19.8111445 38.2198733,16.0839621 38.2544207,11.4680513 C38.2544377,11.4657772 38.2545327,8.85341456 38.2545853,5.97196817 C38.2546197,3.90987871 38.2546197,3.90987871 38.2546417,2.18979151 C38.2546573,0.811707429 38.2546573,0.811707429 38.2546605,0.45967133 L38.2546605,0.153076011 L40.4602217,0.146349596 L40.4602217,0.45967133 C40.4602217,0.474690466 40.4601902,3.92435965 40.4601273,6.960444 C41.2104644,5.91803534 42.3218486,5.39683872 43.794312,5.39683872 C45.0778282,5.39683872 46.0610919,5.8009458 46.7441326,6.60917206 C47.4271734,7.41739832 47.7686886,8.46211753 47.7686886,9.74336101 L47.7686886,16.7268479 L45.5957292,16.7268479 L45.5957292,10.1120891 C45.5957292,9.27034195 45.3930718,8.59807166 44.9877509,8.09525808 C44.58243,7.59244451 43.9256699,7.34104149 43.0174509,7.34104149 C42.2218209,7.34104149 41.5969606,7.6129292 41.1428511,8.15671277 C40.768963,8.60443346 40.541364,9.15566586 40.4600505,9.81042165 Z M24.5200293,11.2070998 C24.5200293,9.50870735 25.0510667,8.11202393 26.1131575,7.0170077 C27.1752484,5.92199147 28.5056568,5.37449157 30.1044225,5.37449157 C30.8099811,5.37449157 31.4573589,5.47691502 32.0465754,5.681765 C32.6357919,5.88661497 33.1255473,6.16222716 33.5158563,6.50860984 C33.9061653,6.85499253 34.2270396,7.22744145 34.4784887,7.62596776 C34.7299377,8.02449407 34.915707,8.44349911 35.035802,8.88299542 L33.0767609,9.69866669 C32.9041242,9.05059586 32.5794971,8.49937147 32.1028697,8.04497698 C31.6262424,7.59058249 30.9600999,7.36338865 30.1044225,7.36338865 C29.1661798,7.36338865 28.3705617,7.70045492 27.7175447,8.37459756 C27.0645278,9.04874021 26.7380242,9.99289822 26.7380242,11.2070998 C26.7380242,12.4138525 27.0645278,13.361735 27.7175447,14.0507757 C28.3705617,14.7398166 29.1736856,15.0843318 30.1269402,15.0843318 C30.6148265,15.0843318 31.052041,15.0098421 31.4385971,14.8608603 C31.8251532,14.7118784 32.1328922,14.5144805 32.3618234,14.2686605 C32.5907547,14.0228406 32.7708946,13.7826111 32.9022486,13.5479647 C33.0336025,13.3133184 33.1368077,13.0693644 33.2118671,12.8160952 L35.1258729,13.6429401 C34.98326,14.0600891 34.7806026,14.462334 34.5178946,14.8496866 C34.2551867,15.2370394 33.9230536,15.6020393 33.5214858,15.9446974 C33.1199179,16.2873555 32.6264095,16.5611056 32.040946,16.7659555 C31.4554824,16.9708055 30.817487,17.0732289 30.1269402,17.0732289 C29.0686023,17.0732289 28.1097326,16.8181015 27.2503022,16.3078387 C26.3908717,15.7975761 25.7209764,15.0955098 25.2405961,14.201619 C24.7602158,13.3077283 24.5200293,12.3095652 24.5200293,11.2070998 Z M50.0901671,11.1847527 C50.0901671,10.1418801 50.3059598,9.18468641 50.7375515,8.31314288 C51.1691431,7.44159935 51.7902506,6.74139539 52.6008924,6.21251 C53.4115342,5.68362461 54.3272455,5.41918588 55.3480536,5.41918588 C56.2487667,5.41918588 56.9862145,5.5998236 57.560419,5.96110447 C58.1346237,6.32238534 58.5268033,6.7600128 58.7369697,7.27400002 L58.7369697,0.156430108 L60.8761526,0.156430108 L60.8761526,14.6932565 C60.8761526,15.393471 60.9174347,16.071328 61,16.7268479 L58.8945937,16.7268479 C58.8195343,16.2948008 58.7820051,15.7994437 58.7820051,15.2407619 L58.7820051,15.0508111 C58.4967793,15.6243911 58.0576883,16.0974011 57.4647188,16.4698557 C56.8717493,16.8423102 56.1662013,17.0285346 55.3480536,17.0285346 C54.2897157,17.0285346 53.3571164,16.7678203 52.5502276,16.2463841 C51.7433387,15.7249478 51.1316136,15.0247438 50.7150338,14.1457512 C50.2984539,13.2667586 50.0901671,12.279769 50.0901671,11.1847527 Z M52.3081621,11.1847527 C52.3081621,12.3468107 52.5952601,13.2946932 53.1694647,14.0284286 C53.7436693,14.762164 54.5374108,15.1290262 55.5507131,15.1290262 C56.5264856,15.1290262 57.3052154,14.7528528 57.886926,14.0004946 C58.4686365,13.2481366 58.7594874,12.2946673 58.7594874,11.1400584 C58.7594874,9.99289851 58.4742659,9.06922523 57.9038142,8.36901077 C57.3333626,7.66879632 56.5565093,7.31869434 55.5732308,7.31869434 C54.5899523,7.31869434 53.7999636,7.67624529 53.2032412,8.39135793 C52.6065188,9.10647057 52.3081621,10.0375928 52.3081621,11.1847527 Z" id="Combined-Shape-Copy-2"></path>
        </g>
    </g>
</svg>