<?xml version="1.0" encoding="UTF-8"?>
<svg width="24px" height="24px" viewBox="0 0 24 24" version="1.1" xmlns="http://www.w3.org/2000/svg" xmlns:xlink="http://www.w3.org/1999/xlink">
    <!-- Generator: Sketch 57.1 (83088) - https://sketch.com -->
    <title>Group 18</title>
    <desc>Created with Sketch.</desc>
    <g id="Page-1" stroke="none" stroke-width="1" fill="none" fill-rule="evenodd">
        <g id="Group-18">
            <g id="Group-2">
                <rect id="Rectangle-Copy-2" x="0" y="0" width="24" height="24"></rect>
                <rect id="Rectangle-Copy-3" x="2" y="2" width="20" height="20"></rect>
                <rect id="Rectangle-Copy-4" x="4" y="4" width="16" height="16"></rect>
                <path d="M19.6066017,4.29289322 C19.997126,4.68341751 19.997126,5.31658249 19.6066017,5.70710678 L13.363961,11.9491434 L19.6066017,18.1923882 C19.997126,18.5829124 19.997126,19.2160774 19.6066017,19.6066017 C19.2160774,19.997126 18.5829124,19.997126 18.1923882,19.6066017 L11.9497475,13.363357 L5.70710678,19.6066017 C5.31658249,19.997126 4.68341751,19.997126 4.29289322,19.6066017 C3.90236893,19.2160774 3.90236893,18.5829124 4.29289322,18.1923882 L10.5355339,11.9491434 L4.29289322,5.70710678 C3.90236893,5.31658249 3.90236893,4.68341751 4.29289322,4.29289322 C4.68341751,3.90236893 5.31658249,3.90236893 5.70710678,4.29289322 L11.9497475,10.5349299 L18.1923882,4.29289322 C18.5829124,3.90236893 19.2160774,3.90236893 19.6066017,4.29289322 Z" id="Path" fill="#111212"></path>
            </g>
        </g>
    </g>
</svg>