<?xml version="1.0" encoding="UTF-8"?>
<svg width="1006px" height="34px" viewBox="0 0 1006 34" version="1.1" xmlns="http://www.w3.org/2000/svg" xmlns:xlink="http://www.w3.org/1999/xlink">
    <title>Group 7@1x</title>
    <g id="Page-1" stroke="none" stroke-width="1" fill="none" fill-rule="evenodd">
        <g id="Group-7" transform="translate(-0.000000, 1.000000)">
            <g id="Business_Insider_Logo" transform="translate(716.000000, 1.000000)" fill="#000000" stroke="#000000" stroke-width="0.1">
                <path d="M7.44661538,30 L9.68134615,30 L9.68134615,18 L7.44661538,18 L7.44661538,30 Z M15.6384519,29.82 L17.6400096,29.82 L17.6400096,22.24875 L26.0650192,30 L26.0650192,18.18 L24.0690577,18.18 L24.0690577,25.621875 L15.6384519,18 L15.6384519,29.82 Z M30.6342788,26.91375 C31.7236635,27.766875 33.0312981,28.26 34.4331346,28.26 C35.7985962,28.26 36.7564712,27.7875 36.7564712,26.7440625 C36.7564712,25.8346875 36.1455577,25.4784375 35.0757596,25.08 L33.34375,24.4753125 C31.7469808,23.9053125 30.5326154,23.0728125 30.5326154,21.159375 C30.5326154,19.1128125 32.3709519,18 34.5693077,18 C35.9161154,18 37.1435385,18.3403125 38.1023462,18.943125 L38.1023462,20.9728125 C37.1052981,20.2321875 36.0140481,19.7221875 34.6122115,19.7221875 C33.4053077,19.7221875 32.5033942,20.175 32.5033942,21.1190625 C32.5033942,21.9721875 33.0695385,22.3134375 34.0665865,22.6565625 L35.9963269,23.3371875 C37.866375,23.998125 38.7244519,25.0228125 38.7244519,26.7084375 C38.7244519,28.8290625 36.8683942,30 34.4331346,30 C32.8326346,30 31.4718365,29.55 30.6342788,28.981875 L30.6342788,26.91375 Z M43.9382019,30 L46.172,30 L46.172,18 L43.9382019,18 L43.9382019,30 Z M56.6517308,28.1840625 C59.17,28.1840625 60.515875,26.5603125 60.515875,23.9971875 C60.515875,21.4153125 59.1690673,19.7971875 56.6517308,19.7971875 L54.1614423,19.7971875 L54.1614423,28.1840625 L56.6517308,28.1840625 L56.6517308,28.1840625 Z M52.1281731,18 L56.7263462,18 C60.2659135,18 62.5547404,20.34375 62.5547404,23.9971875 C62.5547404,27.6534375 60.2659135,30 56.7263462,30 L52.1281731,30 L52.1281731,18 Z M73.7265288,18 L73.7265288,19.7971875 L68.3197115,19.7971875 L68.3197115,22.6846875 L73.1687788,22.6846875 L73.1687788,24.46125 L68.3187788,24.46125 L68.3187788,28.1840625 L73.7265288,28.1840625 L73.7265288,30 L66.2789808,30 L66.2789808,18 L73.7265288,18 Z M81.6562788,23.43375 L83.8732885,23.43375 C85.1855865,23.43375 85.9252115,22.71 85.9252115,21.5971875 C85.9252115,20.484375 85.1855865,19.7596875 83.8732885,19.7596875 L81.6562788,19.7596875 L81.6562788,23.4346875 L81.6562788,23.43375 Z M81.6562788,25.130625 L81.6562788,30 L79.6836346,30 L79.6836346,18 L83.9105962,18 C86.3206731,18 87.8801346,19.2478125 87.8801346,21.5971875 C87.8801346,23.60625 87.0145962,24.7603125 85.1706635,25.0565625 L89.3649808,30 L87.1209231,30 L83.0599808,25.1315625 L81.6572115,25.1315625 L81.6562788,25.130625 Z M6.66595192,6.178125 C7.53988462,5.8565625 8.22075,4.891875 8.22075,3.5653125 C8.22075,1.3546875 6.66595192,0.2090625 4.17846154,0.2090625 L0,0.2090625 L0,12.549375 L4.56646154,12.549375 C7.05395192,12.549375 8.60875,11.323125 8.60875,9.0121875 C8.60875,7.7053125 7.79264423,6.5596875 6.66595192,6.178125 Z M1.96238462,5.394375 L1.96238462,2.0184375 L4.15980769,2.0184375 C5.54019231,2.0184375 6.27795192,2.5209375 6.27795192,3.68625 C6.27795192,4.8515625 5.53925962,5.394375 4.15980769,5.394375 L1.96238462,5.394375 Z M1.96238462,7.123125 L4.52728846,7.123125 C5.88901923,7.123125 6.62677885,7.805625 6.62677885,8.9315625 C6.62677885,10.036875 5.88808654,10.7409375 4.52822115,10.7409375 L1.96331731,10.7409375 L1.96331731,7.1221875 L1.96238462,7.123125 Z M17.7258173,12.75 C20.5826538,12.75 22.5067981,11.02125 22.5067981,7.6453125 L22.5067981,0.2090625 L20.4856538,0.2090625 L20.4856538,7.4034375 C20.4856538,9.7753125 19.5137885,10.8815625 17.7258173,10.8815625 C15.9378462,10.8815625 14.9669135,9.7753125 14.9669135,7.4034375 L14.9669135,0.2090625 L12.9457692,0.2090625 L12.9457692,7.6246875 C12.9457692,11.02125 14.8885673,12.75 17.7258173,12.75 L17.7258173,12.75 Z M27.2653942,11.664375 C28.1010865,12.268125 29.4618846,12.75 31.0549231,12.75 C33.4845865,12.75 35.3303846,11.503125 35.3303846,9.253125 C35.3303846,7.464375 34.4760385,6.37875 32.6097212,5.675625 L30.6865096,4.951875 C29.6950577,4.5909375 29.1317115,4.2290625 29.1317115,3.324375 C29.1317115,2.319375 30.0252308,1.8375 31.2302692,1.8375 C32.6293077,1.8375 33.7177596,2.379375 34.7092115,3.1640625 L34.7092115,1.0125 C33.7569327,0.3703125 32.5323077,0.0084375 31.1910962,0.0084375 C28.9955385,0.0084375 27.1683942,1.194375 27.1683942,3.3646875 C27.1683942,5.394375 28.3734327,6.2784375 29.9664712,6.88125 L31.6966154,7.524375 C32.7654808,7.94625 33.368,8.32875 33.368,9.2934375 C33.368,10.39875 32.4157212,10.90125 31.0549231,10.90125 C29.6558846,10.90125 28.3538462,10.378125 27.2653942,9.474375 L27.2653942,11.664375 L27.2653942,11.664375 Z M42.5522212,0.2090625 L40.5320096,0.2090625 L40.5320096,12.5484375 L42.5522212,12.5484375 L42.5522212,0.2090625 Z M48.318125,12.5334375 L50.2655865,12.5334375 L50.2655865,4.505625 L58.4620865,12.7246875 L58.4620865,0.1903125 L56.5202212,0.1903125 L56.5202212,8.08125 L48.318125,0 L48.318125,12.5334375 L48.318125,12.5334375 Z M71.0916731,0.211875 L71.0916731,2.0596875 L65.8443462,2.0596875 L65.8443462,5.0296875 L70.5497788,5.0296875 L70.5497788,6.856875 L65.8443462,6.856875 L65.8443462,10.6846875 L71.0916731,10.6846875 L71.0916731,12.5521875 L63.8633077,12.5521875 L63.8633077,0.211875 L71.0916731,0.211875 Z M75.7971058,11.6559375 C76.6327981,12.2596875 77.9926635,12.7415625 79.5866346,12.7415625 C82.0153654,12.7415625 83.8620962,11.495625 83.8620962,9.2446875 C83.8620962,7.4559375 83.0068173,6.37125 81.1414327,5.6671875 L79.2172885,4.944375 C78.2258365,4.5825 77.6624904,4.220625 77.6624904,3.3159375 C77.6624904,2.3109375 78.5560096,1.8290625 79.7610481,1.8290625 C81.1600865,1.8290625 82.2485385,2.371875 83.2399904,3.155625 L83.2399904,1.005 C82.2877115,0.361875 81.0630865,0 79.721875,0 C77.5263173,0 75.6991731,1.1859375 75.6991731,3.35625 C75.6991731,5.3859375 76.9042115,6.27 78.49725,6.8728125 L80.2273942,7.5159375 C81.2962596,7.9378125 81.8987788,8.3203125 81.8987788,9.285 C81.8987788,10.3903125 80.9474327,10.8928125 79.5857019,10.8928125 C78.1866635,10.8928125 76.884625,10.370625 75.7971058,9.4659375 L75.7971058,11.6559375 Z M88.0023173,11.6559375 C88.8380096,12.2596875 90.1988077,12.7415625 91.7918462,12.7415625 C94.2215096,12.7415625 96.0673077,11.495625 96.0673077,9.2446875 C96.0673077,7.4559375 95.2120288,6.37125 93.3466442,5.6671875 L91.4225,4.944375 C90.4319808,4.5825 89.8677019,4.220625 89.8677019,3.3159375 C89.8677019,2.3109375 90.7621538,1.8290625 91.9662596,1.8290625 C93.3652981,1.8290625 94.4546827,2.371875 95.4452019,3.155625 L95.4452019,1.005 C94.4938558,0.361875 93.2692308,0 91.9280192,0 C89.7315288,0 87.9053173,1.1859375 87.9053173,3.35625 C87.9053173,5.3859375 89.1103558,6.27 90.7033942,6.8728125 L92.4335385,7.5159375 C93.5024038,7.9378125 94.1049231,8.3203125 94.1049231,9.285 C94.1049231,10.3903125 93.1526442,10.8928125 91.7918462,10.8928125 C90.3928077,10.8928125 89.0907692,10.370625 88.0023173,9.4659375 L88.0023173,11.6559375 Z" id="Shape"></path>
            </g>
            <g id="entrepreneur-wordmark" transform="translate(0.000000, 2.000000)" fill-rule="nonzero">
                <path d="M13.1448932,0 L12.8130777,5.019 L10.379301,5.019 L10.157165,1.8956 L6.28505825,1.8956 L6.28505825,9.3695 L7.95107767,9.3695 C8.06214563,8.8116 8.17321359,8.2537 8.39326699,7.6895 L10.1634126,7.6895 L10.1634126,12.8205 L8.4973932,12.8205 C8.38632524,12.2626 8.16557767,11.7047 8.05520388,11.1405 L6.38918447,11.1405 L6.38918447,19.075 L10.2612913,19.075 L10.5931068,15.617 L13.2483252,15.729 L13.4704612,20.979 L0.755262136,20.979 L0.755262136,19.18 L2.52540777,18.8454 L2.52540777,2.1196 C1.8234328,2.01667679 1.1227271,1.90513519 0.423446602,1.785 L0.423446602,0 L13.1455874,0 L13.1448932,0 Z M58.058,28 C58.058,27.4421 58.169068,26.9962 58.169068,26.5496 L59.4963301,26.215 L59.4963301,8.3664 C58.9430728,8.2544 58.5008835,8.2544 57.9483204,8.1424 L57.9483204,6.692 L62.1522427,6.1341 C62.2633107,6.692 62.4840583,7.2499 62.594432,7.6951 C62.7055,7.6951 62.7055,7.5831 62.816568,7.5831 C63.8120146,6.356 65.1399709,6.0221 66.6886748,6.1327 C68.5629466,6.3567 69.6757087,7.5831 70.1178981,9.2561 C70.340034,10.0373 70.5600874,10.8171 70.5600874,11.599 C70.6711553,13.279 70.6711553,14.945 70.4490194,16.5074 C70.3379515,17.0653 70.1172039,17.7345 69.8957621,18.2924 C69.1210631,19.9724 67.793801,20.9699 66.0236553,21.0812 C65.0282087,21.1932 64.1493835,21.0812 63.2580631,20.6353 L63.0359272,20.6353 L63.0359272,26.2129 C63.5124884,26.3366765 63.992086,26.4482457 64.4742573,26.5475 C64.4742573,26.9934 64.3631893,27.44 64.3631893,27.9979 L58.0573058,27.9979 L58.058,28 Z M63.035233,18.7411 C64.1417476,19.187 65.247568,19.299 66.3533883,18.8531 C66.5510073,18.7656224 66.7088281,18.6064773 66.7955777,18.4072 C66.9066456,17.8493 67.1273932,17.2914 67.1273932,16.7272 C67.3495291,15.0472 67.3495291,13.2692 67.2384612,11.5962 C67.2356461,10.9858775 67.1232263,10.3811157 66.9066456,9.8112 C66.5748301,8.5841 65.6897573,8.1312 64.4728689,8.3608 L64.250733,8.3608 C63.476034,8.4728 63.0338447,9.03 63.0338447,9.8112 L63.0338447,18.7362 L63.035233,18.7411 Z M105.074456,19.075 L106.512786,19.4096 C106.512786,19.9675 106.512786,20.4134 106.401718,20.9706 L101.534165,20.9706 L101.534165,10.9326 C101.534165,10.4867 101.423097,10.0401 101.312029,9.5942 C101.200961,9.0363 100.758772,8.813 100.205515,8.7017 C99.6522573,8.5904 99.210068,8.5897 98.7671845,8.8137 C98.324301,9.0377 97.9924854,9.2596 97.9924854,9.8175 L97.9924854,19.075 L99.4308155,19.4096 C99.4308155,19.8555 99.3197476,20.4134 99.3197476,20.9706 L93.124932,20.9706 L93.124932,19.4096 L94.5632621,19.075 L94.5632621,8.47 C94.0100049,8.358 93.5678155,8.358 93.0152524,8.246 L93.0152524,6.685 L97.1081068,6.1271 L97.4399223,7.4655 C97.7717379,7.2415 98.1035534,6.9076 98.4353689,6.6843 C99.7626311,5.7918 101.311335,5.6805 102.749665,6.2384 C103.966553,6.6843 104.623937,7.6888 104.851626,9.0272 C104.962694,9.3618 104.962694,9.8084 104.962694,10.143 L104.962694,18.5094 C105.073762,18.7334 105.073762,18.9553 105.073762,19.0673 L105.074456,19.075 Z M19.4507767,19.18 L20.8891068,19.5146 C20.8891068,20.0725 20.7780388,20.5184 20.7780388,21.0756 L14.4735437,21.0756 C14.4735437,20.6297 14.4735437,20.0718 14.5846117,19.5146 L15.9118738,19.18 C16.0229417,18.8454 16.0229417,9.1399 15.9118738,8.582 C15.4696845,8.47 14.9164272,8.47 14.3638641,8.358 L14.3638641,6.79 C15.6911262,6.566 17.0190825,6.4554 18.4567184,6.2321 L18.788534,7.5705 L19.1203495,7.2359 C20.4476117,6.1201 21.9963155,5.7855 23.6560874,6.2321 C25.0944175,6.5667 25.8684223,7.5705 26.2002379,9.0209 C26.3113058,9.3555 26.3113058,9.8021 26.3113058,10.1367 L26.3113058,19.0617 C26.8645631,19.1737 27.3067524,19.2857 27.7496359,19.3963 L27.7496359,20.9573 L22.88,20.9573 L22.88,11.2672 C22.88,10.9326 22.88,10.486 22.768932,10.1514 C22.6578641,9.2589 22.105301,8.813 21.3306019,8.701 C20.6669709,8.589 20.1137136,8.701 19.6645825,9.2589 C19.4424466,9.4829 19.4424466,9.7048 19.4424466,10.0401 L19.4424466,19.18 L19.4507767,19.18 Z M127.42133,8.1431 C126.868073,8.1431 126.425883,8.0311 125.87332,8.0311 L125.87332,6.692 L130.6305,6.1341 C130.852636,6.692 131.072689,7.2499 131.072689,7.9191 L131.072689,19.18 C131.554861,19.2792543 132.034458,19.3908235 132.511019,19.5146 C132.511019,20.0725 132.399951,20.5184 132.399951,21.0756 L128.307097,21.0756 C128.196029,20.741 128.084961,20.2944 127.975282,19.8485 C127.864214,19.9605 127.753146,20.0725 127.643466,20.0725 C125.977447,21.6335 123.771359,21.4109 122.333029,20.7417 C121.226515,20.1838 120.66701,19.2913 120.458757,18.0642 C120.347689,17.6183 120.347689,17.283 120.347689,16.8371 L120.347689,8.2481 C119.794432,8.1361 119.241175,8.1361 118.79968,8.0241 L118.79968,6.685 L123.445791,6.1271 C123.556859,6.685 123.777607,7.1309 123.777607,7.6881 L123.777607,16.1665 C123.777607,16.5011 123.777607,16.9477 123.888675,17.2823 C123.999743,18.2861 124.663374,18.9623 125.65882,18.9623 C125.990636,18.9623 126.433519,18.8503 126.765335,18.8503 C127.09715,18.7383 127.650408,18.0691 127.650408,17.7345 L127.650408,8.4784 C127.428272,8.3664 127.428272,8.2544 127.428272,8.1438 L127.42133,8.1431 Z M50.204801,14.5019 C50.204801,15.729 50.4269369,16.7328 50.9795,17.7373 C51.5327573,18.5185 52.3067621,18.9644 53.3029029,19.0757 C54.2983495,19.0757 55.1771748,18.8517 56.0684951,18.5178 C56.1795631,18.5178 56.2906311,18.4058 56.5106845,18.4058 C56.7328204,18.8517 56.8425,19.2983 57.0639417,19.7442 C56.8418058,19.9682 56.5106845,20.0788 56.2892427,20.3021 C54.5190971,21.3059 52.6378835,21.6405 50.7580583,20.9713 C49.0920388,20.5254 48.1028398,19.4103 47.328835,17.8479 C46.5541359,16.1679 46.3333883,14.3899 46.5541359,12.5979 C46.6652039,11.4821 46.8859515,10.367 47.328835,9.3625 C48.103534,7.6825 49.3211165,6.5737 51.0898738,6.2391 C52.8586311,5.9045 54.4080291,6.1271 55.7359854,7.3549 C56.5106845,8.1361 56.9528738,9.1399 57.2839951,10.1437 C57.6158107,11.2595 57.7261845,12.2633 57.7261845,13.3791 C57.7261845,13.7137 57.5040485,14.0483 57.3943689,14.4949 L50.2027184,14.4949 L50.204801,14.5019 Z M54.5190971,12.6119 C54.5190971,12.166 54.4080291,11.8307 54.4080291,11.4961 C54.2969612,10.6036 54.1858932,9.8161 53.7443981,9.0419 C53.3022087,8.1494 52.5275097,7.9261 51.6424369,8.2607 C51.3106214,8.3727 51.0891796,8.5953 50.8677379,8.9299 C50.4255485,10.157 50.2041068,11.3841 50.0930388,12.6119 L50.0930388,12.9465 L54.5184029,12.6119 L54.5190971,12.6119 Z M117.907665,14.5019 C115.473888,14.5019 113.150485,14.6139 110.716015,14.6139 C110.604947,15.1718 110.716015,15.6177 110.827083,16.0643 C110.93815,16.8455 111.269272,17.5147 111.712155,18.0733 C112.265413,18.7425 112.929044,19.0771 113.814117,19.0771 C114.699189,19.0771 115.584262,18.9651 116.469335,18.6312 C116.691471,18.5192 116.80115,18.5192 117.022592,18.4072 C117.244728,18.8531 117.354408,19.2997 117.57585,19.7456 C117.464782,19.7456 117.464782,19.8576 117.353714,19.8576 C115.805704,20.9734 114.145238,21.308 112.265413,21.196 C110.053078,20.972 108.504374,19.635 107.729675,17.514 C106.62316,14.8365 106.734228,12.159 107.840743,9.4822 C108.504374,7.8022 109.715015,6.5821 111.601782,6.2468 C113.040112,5.9122 114.477748,6.0228 115.694636,6.916 C116.579709,7.5852 117.132966,8.477 117.568908,9.3702 C118.011097,10.5973 118.232539,12.0477 118.232539,13.3861 C118.232539,13.7207 118.010403,14.0553 117.900723,14.5019 L117.907665,14.5019 Z M115.142073,12.6119 C115.142073,11.6081 115.031005,10.7219 114.699883,9.8231 C114.588816,9.3772 114.368068,8.9306 114.036252,8.596 C113.482995,7.8148 111.71285,8.0381 111.492102,9.0419 C111.269966,9.8231 111.049913,10.6029 110.938845,11.4961 C110.827777,11.942 110.827777,12.3886 110.827777,12.9465 L115.142073,12.6119 L115.142073,12.6119 Z M92.4633835,14.5019 C90.0296068,14.5019 87.7062039,14.6139 85.271733,14.6139 C85.271733,15.9523 85.4938689,17.0681 86.2671796,18.0719 C86.8204369,18.7411 87.484068,19.0757 88.2594612,19.0757 C89.144534,19.0757 90.133733,18.9637 90.9146796,18.6298 C91.1368155,18.5178 91.2464951,18.5178 91.4679369,18.4058 C91.6900728,18.8517 91.7997524,19.2983 92.0211942,19.7442 C91.7990583,19.8562 91.6893786,19.9682 91.5790049,20.0788 C89.9129854,21.0826 88.1497816,21.4172 86.268568,21.0826 C84.4984223,20.748 83.281534,19.6322 82.5075291,18.0705 C81.7328301,16.3905 81.5120825,14.7245 81.6224563,12.9395 C81.7335243,11.7124 81.9542718,10.5966 82.3971553,9.4815 C82.9504126,8.1431 83.8354854,7.1386 85.1627476,6.5814 C86.7107573,5.9122 88.2601553,5.9122 89.8088592,6.6934 C90.8043058,7.2513 91.4748786,8.1438 91.9108204,9.1476 C92.4640777,10.486 92.6855194,11.9364 92.6855194,13.3868 C92.7965874,13.7214 92.5744515,14.056 92.4633835,14.5026 L92.4633835,14.5019 Z M89.6977913,12.6119 C89.6977913,12.166 89.5867233,11.7194 89.5867233,11.2735 C89.4756553,10.4923 89.3645874,9.7125 88.9230922,9.0426 C88.369835,8.1501 87.5958301,7.8155 86.7107573,8.2614 C86.4886214,8.3734 86.268568,8.4854 86.1575,8.8193 C85.7153107,9.7118 85.4938689,10.7093 85.382801,11.7194 C85.382801,12.054 85.271733,12.3886 85.271733,12.8352 C86.7100631,12.8352 88.147699,12.7232 89.6970971,12.6112 L89.6977913,12.6119 Z M40.8015097,6.2468 L41.1333252,7.5852 C41.3554612,7.4732 41.4651408,7.3612 41.6865825,7.2506 C42.6775279,6.7001157 43.7691399,6.35859523 44.8950583,6.2468 C45.4483155,6.1348 45.8905049,6.3588 46.2223204,6.8047 L45.7808252,10.7107 C45.0061262,10.7107 44.2328155,10.5987 43.4574223,10.5987 C43.3463544,9.9295 43.2352864,9.2603 43.2352864,8.4791 C42.6820291,8.4791 42.2398398,8.7031 41.7969563,9.037 L41.7969563,19.075 L43.2352864,19.4096 C43.2352864,19.8555 43.2352864,20.4134 43.1242184,20.86 L36.9300971,20.86 L36.9300971,19.411 L38.2573592,19.0764 L38.2573592,8.4784 C37.7041019,8.3664 37.2619126,8.3664 36.7093495,8.2544 L36.7093495,6.6934 C38.0366117,6.6934 39.364568,6.4694 40.8022039,6.2475 L40.8015097,6.2468 Z M133.173956,20.972 C133.173956,20.4141 133.173956,19.9682 133.285024,19.5216 L134.612286,19.187 L134.612286,8.589 C134.170097,8.477 133.61684,8.477 133.064277,8.365 L133.064277,6.804 L137.268199,6.2461 L137.600015,7.4732 L139.37016,6.692 C140.033791,6.468 140.587049,6.3574 141.244432,6.2461 C141.797689,6.1341 142.239879,6.2461 142.571694,6.804 L142.129505,10.7086 C141.354806,10.7086 140.581495,10.5966 139.806102,10.5966 C139.695034,9.9274 139.583966,9.1462 139.583966,8.477 L138.145636,9.0349 L138.145636,19.18 C138.622197,19.3037765 139.101795,19.4153457 139.583966,19.5146 C139.583966,19.9605 139.472898,20.5184 139.472898,20.965 L133.167015,20.965 L133.173956,20.972 Z M78.1918447,8.4784 L76.7535146,9.0363 L76.7535146,19.18 L78.1918447,19.5146 C78.1918447,20.0725 78.0807767,20.5184 78.0807767,20.965 L71.8859612,20.965 L71.8859612,19.5146 L73.2132233,19.18 L73.2132233,8.589 C72.659966,8.477 72.2177767,8.477 71.6652136,8.365 L71.6652136,6.804 L75.8691359,6.2461 L76.2009515,7.4732 L77.4178398,6.804 C78.1929634,6.46407173 79.012665,6.23868363 79.8516165,6.1348 C80.5152476,6.1348 80.9581311,6.3588 81.2899466,6.804 L80.8477573,10.7086 C80.0730583,10.7086 79.2997476,10.5966 78.5243544,10.5966 L78.1925388,8.477 L78.1918447,8.4784 Z M32.8365485,3.458 L32.8365485,6.4701 L35.380699,6.4701 C35.2696311,7.1393 35.2696311,7.6972 35.2696311,8.3601 C34.494932,8.3601 33.7216214,8.4721 32.9462282,8.5841 L32.9462282,18.074 C33.0572961,18.6319 33.3884175,19.0778 34.0527427,19.0778 L35.4910728,19.0778 C35.4910728,19.6357 35.6021408,20.0816 35.6021408,20.6388 C35.2703252,20.8628 34.8274417,20.9734 34.3852524,21.0847 C33.5001796,21.3087 32.6151068,21.3087 31.730034,21.1967 C30.4027718,20.9727 29.517699,20.0809 29.2962573,18.6312 L29.2962573,8.589 C28.743,8.477 28.1897427,8.365 27.6302379,8.365 C27.6302379,7.8071 27.6302379,7.1379 27.7413058,6.58 C28.4049369,6.58 28.9581942,6.468 29.6155777,6.468 L30.3902767,3.6792 L32.8240534,3.4552 L32.8365485,3.458 Z" id="Shape" fill="#000000"></path>
                <path d="M64.4194175,25.77 C64.4194175,26.0557143 64.1417476,26.27 63.8640777,26.27 C63.5169903,26.27 63.2393204,26.0557143 63.2393204,25.77 C63.2393204,25.4842857 63.5169903,25.27 63.8640777,25.27 C64.211165,25.27 64.4194175,25.4842857 64.4194175,25.77 Z M63.4475728,25.77 C63.4475728,25.9842857 63.6558252,26.1271429 63.8640776,26.1271429 C64.0723301,26.1271429 64.2805825,25.9842857 64.2805825,25.77 C64.2805825,25.5557143 64.0723301,25.4128571 63.8640776,25.4128571 C63.5864078,25.4128571 63.4475728,25.5557143 63.4475728,25.77 Z M63.7946602,26.0557143 L63.6558252,26.0557143 L63.6558252,25.5557143 L63.8640777,25.5557143 C64.0029126,25.5557143 64.0029126,25.5557143 64.0723301,25.6271429 L64.1417476,25.6985714 C64.1417476,25.77 64.0723301,25.77 64.0029126,25.8414286 C64.0723301,25.8414286 64.0723301,25.9128571 64.1417476,25.9842857 C64.1417476,26.0557143 64.1417476,26.0557143 64.211165,26.1271429 L64.0029126,26.1271429 C64.0029126,26.1271429 64.0029126,26.0557143 63.9334951,26.0557143 C63.9334951,25.9842857 63.8640777,25.9842857 63.8640777,25.9842857 L63.7946602,25.9842857 L63.7946602,26.0557143 Z M63.7946602,25.77 C63.9334951,25.77 63.9334951,25.77 63.9334951,25.6985714 C63.9334951,25.6271429 63.8640776,25.6271429 63.8640776,25.6271429 L63.7946602,25.6271429 L63.7946602,25.77 Z" id="Shape" fill="#9D9E9E"></path>
            </g>
            <g id="hitchd-the-insider-logo" transform="translate(478.000000, 8.000000)" fill="#000000" fill-rule="nonzero">
                <g id="Group-13">
                    <g id="Group-11">
                        <path d="M10.009614,0.0103467246 C13.5024943,3.31628032 16.9946874,6.62358852 20.4910043,9.92608562 C20.4951281,6.70331582 20.4916916,3.48054604 20.4937535,0.25846357 C21.3247044,0.25846357 22.1570299,0.25846357 22.9879807,0.25846357 C22.9893553,5.39125195 22.9879807,10.5240403 22.9893553,15.657516 C19.4909765,12.3041584 16.0070311,8.93636745 12.5134635,5.57888602 C12.5134635,8.85801477 12.5141508,12.1364562 12.5127762,15.4155849 C11.6770142,15.4155849 10.8419395,15.4169595 10.0068648,15.4155849 C10.0082394,10.2800473 10.0027409,5.14519701 10.009614,0.0103467246" id="Fill-9"></path>
                        <path d="M31.8720759,0.558128237 C32.8604194,0.10588202 33.9656047,-0.039826488 35.0446724,0.00897211599 C36.4859495,0.0639564585 37.9320377,0.448846856 39.1520028,1.23031183 C39.1554394,2.11899626 39.1540647,3.0076807 39.1533774,3.89567783 C38.5423639,3.43587127 37.8901122,3.02211409 37.1787522,2.73688281 C36.2392073,2.35061781 35.2082509,2.19666165 34.1972263,2.27845086 C33.7168006,2.32587485 33.2315637,2.43653084 32.8136827,2.6867096 C32.500272,2.87159445 32.2390964,3.15613842 32.1153816,3.50185248 C31.917438,4.08606112 32.012286,4.80773061 32.4700306,5.24897996 C32.8246796,5.60362897 33.297545,5.79951069 33.7580388,5.9775225 C34.6762773,6.31155238 35.5958905,6.64077113 36.5148163,6.97342642 C37.2440461,7.24078779 37.9567807,7.58787645 38.5533608,8.0937324 C39.1375694,8.58446766 39.5774442,9.24771629 39.7726386,9.987943 C39.9657711,10.7371047 40.0042601,11.533003 39.8441182,12.291787 C39.6901621,13.0244533 39.3052717,13.7055719 38.7574902,14.2162389 C38.1829038,14.7681443 37.4502374,15.1324156 36.6900789,15.3537275 C35.741599,15.6334604 34.7415713,15.6863828 33.7587261,15.6265873 C32.7408285,15.5571696 31.7284293,15.3420434 30.7854478,14.948218 C30.3820002,14.7722681 29.9806145,14.5784483 29.6252782,14.3152108 C29.6342131,13.4141548 29.6259655,12.5130989 29.6300893,11.6113557 C30.9607104,12.684925 32.6377328,13.3543594 34.3573682,13.3674182 C35.0914091,13.3777277 35.8570661,13.299375 36.5120671,12.9426641 C36.8928337,12.7337236 37.2117428,12.3921334 37.3395814,11.9721905 C37.4667327,11.5536222 37.4543613,11.0896918 37.2969686,10.6807457 C37.1306409,10.2539298 36.7622458,9.94464283 36.371857,9.72608007 C35.7031099,9.35356115 34.9656324,9.13156187 34.2501487,8.86901163 C33.4350058,8.56728505 32.5958073,8.31641899 31.8267138,7.90334912 C31.1339111,7.53839054 30.4926562,7.03459651 30.0747752,6.36378751 C29.6534577,5.6888547 29.4885046,4.88058487 29.5015634,4.09224686 C29.4967523,3.3451471 29.7070674,2.5911743 30.1325087,1.97397506 C30.5593247,1.34509164 31.1847716,0.870851687 31.8720759,0.558128237" id="Fill-10"></path>
                        <path d="M0.00108900534,0.25846357 C0.870528922,0.25846357 1.73996884,0.25846357 2.61009606,0.25846357 C2.61009606,5.31083735 2.61009606,10.3632111 2.61009606,15.4155849 C1.73996884,15.4169595 0.870528922,15.416423 0.00108900534,15.4155849 C0.000401701064,10.3632111 -0.000972907501,5.31083735 0.00108900534,0.25846357" id="Fill-11"></path>
                        <path d="M46.6305607,0.25846357 C47.4965641,0.25846357 48.3625675,0.257776266 49.2285709,0.25846357 C49.2285709,5.31083735 49.2285709,10.3632111 49.2285709,15.4155849 C48.3625675,15.4169595 47.4965641,15.4155849 46.6305607,15.4155849 C46.6298734,10.3632111 46.6291861,5.31083735 46.6305607,0.25846357" id="Fill-12"></path>
                        <path d="M56.7854815,0.25846357 C58.7882862,0.25846357 60.7904035,0.25846357 62.7932082,0.25846357 C64.3478905,0.279082699 65.9335015,0.685279529 67.2036398,1.60832918 C68.2785837,2.37398615 69.0813547,3.49154291 69.5281025,4.72800332 C69.901996,5.7534613 70.0525157,6.85039894 70.0428934,7.93908894 C70.0291473,9.49377123 69.6696872,11.0814441 68.8043711,12.3907588 C68.0909496,13.4938821 67.0201295,14.3523252 65.8022264,14.8389366 C64.8503099,15.2252016 63.8214154,15.4025261 62.797332,15.4169595 C60.7931527,15.4155849 58.7889735,15.4169595 56.7854815,15.4155849 C56.7846434,10.3632111 56.7841069,5.31083735 56.7854815,0.25846357 Z M59.3718075,2.53756457 C59.3724948,6.06343554 59.3724948,9.58861922 59.3718075,13.1144902 C60.1931361,13.1158602 61.0137774,13.1144902 61.835106,13.1151775 C62.3382128,13.111741 62.8440687,13.1330474 63.3458008,13.0670662 C64.3004665,12.9557229 65.2475718,12.5907643 65.9513714,11.9213299 C66.576131,11.3391832 66.9885135,10.5570309 67.2057017,9.73776425 C67.4194533,8.92880711 67.4744377,8.08342284 67.4194533,7.25041005 C67.3685928,6.50262297 67.215324,5.75552322 66.9019132,5.07096815 C66.6029358,4.41115604 66.1403801,3.82007436 65.5479238,3.39944414 C64.8668052,2.90595967 64.037229,2.65234439 63.2069654,2.57124248 C62.7052333,2.51969466 62.2007519,2.54100109 61.6983325,2.53618996 C60.9230533,2.53687727 60.1470867,2.53550266 59.3718075,2.53756457 L59.3718075,2.53756457 Z" id="Fill-13"></path>
                        <path d="M75.4925291,0.25846357 C78.5785253,0.257088962 81.6652088,0.259838179 84.7518924,0.257088962 C84.7560162,1.0172475 84.7525797,1.77671873 84.753267,2.53618996 C82.5167788,2.53687727 80.280978,2.53618996 78.0451772,2.53618996 C78.0465518,3.75065663 78.0410533,4.96443599 78.0479264,6.17890265 C80.0500438,6.17546613 82.0521611,6.17752805 84.0549658,6.17752805 C84.057715,6.92325321 84.050842,7.66966566 84.057715,8.41539081 C82.0542231,8.42913689 80.0493565,8.41676542 78.0444899,8.42157655 C78.0444899,9.98588109 78.0444899,11.5501856 78.0444899,13.1151775 C80.280978,13.1151775 82.5167788,13.1144902 84.753267,13.1151775 C84.7539606,13.8822091 84.7539606,14.6485533 84.7525797,15.4155849 C81.6658961,15.416423 78.5785253,15.4169595 75.4925291,15.4155849 C75.4918418,10.3632111 75.4918418,5.31083735 75.4925291,0.25846357" id="Fill-14"></path>
                        <path d="M92.4710067,0.257776266 C94.3624681,0.25846357 96.2546168,0.257776266 98.1467655,0.25846357 C99.0869978,0.277020786 100.043038,0.428915032 100.893233,0.845421429 C101.565417,1.16639253 102.157186,1.66949926 102.548262,2.30731764 C103.014254,3.05716661 103.201888,3.954786 103.186768,4.83041165 C103.194328,5.72665644 103.044496,6.65314261 102.58194,7.43392029 C102.236226,8.02087815 101.697379,8.48068471 101.08018,8.76247947 C100.63137,8.97210728 100.148196,9.09650935 99.6602095,9.17623665 C101.48569,11.2560194 103.313919,13.3330529 105.137337,15.4148976 C104.153805,15.4176468 103.170272,15.4155849 102.18674,15.4155849 C100.41487,13.3674182 98.6484976,11.3144403 96.8745653,9.26833542 C96.2690502,9.26902273 95.6628478,9.26764812 95.0580201,9.26902273 C95.0538962,11.3185641 95.0635185,13.3681055 95.0525216,15.4183341 C94.1920167,15.413523 93.3308244,15.4176468 92.4703194,15.4155849 C92.4703194,10.3632111 92.4689448,5.31083735 92.4710067,0.257776266 Z M95.0580201,2.49082788 C95.0566455,4.03245138 95.0566455,5.57407489 95.0580201,7.11569841 C96.0566732,7.11569841 97.0567009,7.11569841 98.0560413,7.11569841 C98.735098,7.10401424 99.4485198,6.92600243 99.9591869,6.45657358 C100.306276,6.14041361 100.521402,5.69710235 100.591507,5.23592118 C100.678794,4.65377445 100.599067,4.02626564 100.273285,3.52522082 C99.9681218,3.04754435 99.4519563,2.73963203 98.9096733,2.60560769 C98.362579,2.45783727 97.7921165,2.4942644 97.2326508,2.49082788 C96.5075448,2.49082788 95.7824388,2.49014057 95.0580201,2.49082788 L95.0580201,2.49082788 Z" id="Fill-15"></path>
                    </g>
                </g>
            </g>
            <g id="hitchd-new-nbc-logo" transform="translate(183.000000, 2.000000)">
                <g id="nbc_logo">
                    <path d="M21.4573864,3.25953312 C20.7905354,1.59635535 19.1663113,-0.199864593 16.1244634,0.0468585666 C12.2495041,0.467756978 11.0419488,4.1780213 11.6274416,6.39152355 C10.0841987,5.34737607 7.45984898,4.88820733 5.16922632,6.84858289 C2.21175267,9.81069221 3.79367647,13.816497 5.41948395,14.7773989 C3.62764233,14.6115859 0.795787596,15.8213204 0.169276403,18.9857051 C-0.497197596,22.9145924 2.50054047,25.205012 5.41948395,25.205012 L37.7879221,25.205012 C41.1633464,25.205012 43.0362446,22.2875013 42.8261006,19.5360295 C42.4948617,15.945021 39.205923,14.5672134 37.4118947,14.8623771 C38.9108015,14.0269085 40.9127871,10.1020139 37.8687525,7.01650532 C35.4525109,4.7202849 32.3721328,5.55567822 31.2890655,6.55726125 C31.8729747,4.63899809 30.9156017,0.673723732 26.9964571,0.0464818901 C26.7257657,0.016197093 26.4649519,0 26.2163531,0 C23.2245717,0.000301341264 21.879484,2.18525152 21.4573864,3.25953312" id="path3113"></path>
                    <path d="M5.70842257,7.47379068 C3.9994472,9.01944536 3.3774601,12.5216336 6.45813983,14.5689461 L18.7480591,22.9933178 L12.7890019,9.35318084 C11.5403528,6.13440412 8.12436251,5.43250498 5.70842257,7.47379068" id="path3115" fill="#000000" fill-rule="nonzero"></path>
                    <path d="M16.2876322,0.841947491 C14.2899445,0.882553227 11.290246,3.25945778 12.6252298,6.88896262 L18.7882481,21.4114269 L20.9540059,6.13658885 C21.4551997,2.34112029 18.5803662,0.589046837 16.2876322,0.841947491" id="path3117" fill="#000000" fill-rule="nonzero"></path>
                    <path d="M21.9159784,5.55409618 L23.0813088,5.55409618 C23.0813088,5.55409618 23.7036729,5.55409618 23.7883489,5.84737657 C23.3297568,6.22156709 22.0813339,6.26842565 22.2470664,8.26722228 L24.2062995,21.4094682 L30.3273945,6.8488089 C31.5794367,3.59771336 28.9513168,0.882553227 26.6200528,0.799533712 C26.5112484,0.791698836 26.4019162,0.785370668 26.2889647,0.785370668 C24.1964218,0.785370668 21.7985783,2.30465799 21.9159784,5.55409618" id="path3119" fill="#000000" fill-rule="nonzero"></path>
                    <path d="M30.0809823,9.4768061 L24.2912769,22.9532395 L36.5777277,14.4844199 C39.4098841,12.4773364 38.9530263,9.26850395 37.3677095,7.68246953 C36.7031205,6.93597187 35.4828223,6.35927989 34.1900634,6.35927989 C32.6628811,6.35905403 31.0284024,7.16838132 30.0809823,9.4768061" id="path3121" fill="#000000" fill-rule="nonzero"></path>
                    <path d="M35.2021025,16.402005 L23.6636348,24.4543709 L37.8706375,24.4543709 C40.7853586,24.4543709 42.658483,21.4515806 41.8258241,18.6961914 C41.2681545,16.9643078 39.6181431,15.6047314 37.70302,15.6027727 C36.8969024,15.6031493 36.042,15.8457291 35.2021025,16.402005" id="path3123" fill="#000000" fill-rule="nonzero"></path>
                    <path d="M5.37733451,24.4543709 L19.3747211,24.4543709 L7.83346349,16.402005 C5.16726588,14.6903867 2.16907541,15.6918943 1.08676205,18.5321864 C0.169351805,21.7836587 2.45997445,24.4543709 5.37733451,24.4543709" id="path3125" fill="#000000" fill-rule="nonzero"></path>
                </g>
            </g>
            <g id="hitchd-fox-logo" transform="translate(964.000000, 6.000000)" fill="#000000" fill-rule="nonzero">
                <g id="fox_network_logo">
                    <polyline id="Fill-1" points="1.75504049e-13 18.013846 1.75504049e-13 -1.9397816e-13 10.8159382 -1.9397816e-13 11.1480361 4.92535735 5.09434611 4.92535735 5.09434611 7.2759523 10.0262481 7.2759523 10.0262481 12.1900109 5.0533408 12.1900109 5.06573251 18.013846 1.75504049e-13 18.013846"></polyline>
                    <polyline id="Fill-2" points="41.8182032 17.9871809 36.4111353 8.64084301 41.325013 0.0266650839 35.9116366 0.0266650839 33.6646809 3.90688673 31.4580547 0.0266650839 25.8542965 0.0266650839 30.8661814 8.7014044 25.5580219 17.9871809 31.0006878 17.9973498 33.5968644 13.4443997 36.2232319 17.9871809 41.8182032 17.9871809"></polyline>
                    <path d="M19.5922004,14.0913669 C18.7898932,14.0913669 18.1398915,13.4256437 18.1398915,12.6046755 L18.141694,5.42950822 C18.141694,4.60854 18.7901186,3.87389434 19.5924257,3.87389434 C20.3947328,3.87389434 21.0952026,4.60854 21.0952026,5.42950822 L21.117057,12.6254652 C21.117057,13.4466595 20.3945075,14.0913669 19.5922004,14.0913669 Z M19.5685435,0.271622295 C14.8418933,0.271622295 11.0101502,4.19297145 11.0101502,9.03042439 C11.0101502,13.8676514 14.841668,17.7892265 19.5685435,17.7892265 C24.294743,17.7892265 28.1262609,13.8676514 28.1262609,9.03042439 C28.1262609,4.19297145 24.2949683,0.271622295 19.5685435,0.271622295 L19.5685435,0.271622295 Z" id="Fill-3"></path>
                </g>
            </g>
            <g id="hitchd-abc-logo" transform="translate(624.000000, 0.000000)">
                <g id="Group-15">
                    <rect id="Rectangle" x="0" y="0" width="51.7688839" height="27.6100714"></rect>
                    <g id="ABC_Broadcast" transform="translate(0.000000, 2.876049)" fill="#000000" fill-rule="nonzero">
                        <path d="M12.5490281,21.6183871 L12.5490281,19.4200995 C11.4276292,20.6861587 10.1503614,21.5298197 8.26849333,21.5198843 C3.81578771,21.4954715 0.205346693,17.9221187 0.205346693,13.4846663 C0.205346693,9.04721384 3.81578771,5.45001594 8.26849333,5.45001594 C12.721199,5.45001594 16.5947584,9.01911073 16.5947584,13.456847 L16.5993344,21.590284 L12.5490281,21.6183871 Z M25.8370755,21.7444253 C21.3840839,21.7444253 17.5105245,18.1756144 17.5105245,13.7375942 L17.5062345,0.218295862 L21.5505348,0.218295862 L21.5559688,7.77434169 C22.6779396,6.50856636 23.9552075,5.66490537 25.8370755,5.67484081 C30.2892092,5.69953748 33.8996502,9.27260642 33.8996502,13.7100588 C33.8996502,18.1475113 30.2892092,21.7444253 25.8370755,21.7444253 Z M43.1739992,21.5559358 C38.7210075,21.5559358 35.1108524,17.9587379 35.1108524,13.5212854 C35.1108524,9.08383301 38.7210075,5.48663515 43.1739992,5.48663515 C47.0604284,5.48663515 50.3162317,8.31397817 51.0789888,11.961421 L47.0246786,11.9480791 C46.4032046,10.4844465 44.9428979,9.49572807 43.2477867,9.49572807 C40.987829,9.49572807 39.1557247,11.3210108 39.1557247,13.5732336 C39.1557247,15.8260242 40.987829,17.6518746 43.2477867,17.6518746 C44.9428979,17.6518746 46.4209365,16.6739433 47.0424105,15.2100268 L51.0964347,15.1912914 C50.3448315,18.8529277 47.0701523,21.5559358 43.1739992,21.5559358 Z M8.31854303,9.41709617 C6.05858543,9.41709617 4.22590909,11.2429466 4.22590909,13.4951695 C4.22590909,15.7471084 6.05858543,17.5735266 8.31854303,17.5735266 C10.5785007,17.5735266 12.411177,15.7471084 12.411177,13.4951695 C12.411177,11.2429466 10.5785007,9.41709617 8.31854303,9.41709617 Z M25.7332581,9.41709617 C23.4733006,9.41709617 21.6406242,11.2429466 21.6406242,13.4951695 C21.6406242,15.7471084 23.4733006,17.5735266 25.7332581,17.5735266 C27.9932158,17.5735266 29.8258921,15.7471084 29.8258921,13.4951695 C29.8258921,11.2429466 27.9932158,9.41709617 25.7332581,9.41709617 Z" id="Combined-Shape"></path>
                    </g>
                </g>
            </g>
            <g id="hitchd-cbs-logo" transform="translate(853.000000, 5.000000)" fill="#000000" fill-rule="nonzero">
                <g id="cbs">
                    <path d="M20.9420467,10.2536903 C20.9420467,4.89635035 25.0130951,1.28189618 30.3973376,1.28189618 C34.9062802,1.28189618 37.1727253,3.93468169 38.2039271,6.32714369 L33.720398,8.43315119 C33.2837256,7.08099723 31.9431631,5.91102047 30.3973376,5.91102047 C27.8985056,5.91102047 26.223169,7.83559034 26.223169,10.2536903 C26.223169,12.6727762 27.8985056,14.5973461 30.3973376,14.5973461 C31.9431631,14.5973461 33.2837256,13.4266298 33.720398,12.0742294 L38.2039271,14.1545989 C37.1991162,16.4699006 34.9062802,19.2264704 30.3973376,19.2264704 C25.0130951,19.2264704 20.9420467,15.5856388 20.9420467,10.2536903" id="Fill-1"></path>
                    <path d="M49.9036706,13.4530073 C49.9036706,12.8288225 49.4386522,12.3352924 48.6916418,12.3352924 L44.5182063,12.3352924 L44.5182063,14.5453308 L48.6916418,14.5453308 C49.4386522,14.5453308 49.9036706,14.1038161 49.9036706,13.4530073 Z M49.567919,6.92470452 C49.567919,6.32714369 49.078709,5.93665839 48.5379389,5.93665839 L44.5182063,5.93665839 L44.5182063,7.96525906 L48.5379389,7.96525906 C49.078709,7.96525906 49.567919,7.54888936 49.567919,6.92470452 Z M39.3140576,18.9146245 L39.3140576,1.56736459 L49.7480128,1.56736459 C53.304682,1.56736459 54.8502631,3.9600731 54.8502631,5.9886738 C54.8502631,8.14768276 53.5866742,9.60411407 51.9125594,9.96822186 C53.7665236,10.2536903 55.1838154,11.9701986 55.1838154,14.2078469 C55.1838154,16.6257003 53.5612607,18.9146245 50.1089335,18.9146245 L39.3140576,18.9146245 Z" id="Fill-2"></path>
                    <path d="M55.44577,16.4699006 L58.1510867,12.5687454 C59.4388673,13.8171151 61.3707826,14.8054078 63.6900095,14.8054078 C64.6684295,14.8054078 65.5955338,14.5453308 65.5955338,13.8691305 C65.5955338,12.2046376 56.0119536,13.895508 56.0119536,7.05535932 C56.0119536,4.1161193 58.4352782,1.30728758 63.1492393,1.30728758 C65.9576763,1.30728758 68.4819221,2.11414261 70.4402282,3.72637357 L67.6569602,7.44485855 C66.1639166,6.30076621 64.231757,5.72835027 62.6072474,5.72835027 C61.577023,5.72835027 61.2940534,6.06706668 61.2940534,6.5085813 C61.2940534,8.14768276 70.8514871,6.7432669 70.8514871,13.1931768 C70.8514871,17.0164322 68.0442721,19.2264704 63.4312315,19.2264704 C59.7746188,19.2264704 57.274565,18.1343935 55.44577,16.4699006" id="Fill-3"></path>
                    <path d="M14.9419204,10.0007623 C14.9419204,12.9409884 12.6207386,15.2826675 9.73239581,15.2826675 C6.84209811,15.2826675 4.49892386,12.9409884 4.49892386,10.0007623 C4.49892386,7.10836078 6.84209811,4.74129021 9.73239581,4.74129021 C12.6207386,4.74129021 14.9419204,7.10836078 14.9419204,10.0007623 Z M0.685431612,10.0007623 C2.05947153,12.9168296 5.2803892,15.7611599 9.73239581,15.7611599 C14.1604551,15.7611599 17.4036096,12.9168296 18.7774051,10.0007623 C17.4036096,7.13178004 14.1604551,4.28744966 9.73239581,4.28744966 C5.2803892,4.28744966 2.05947153,7.13178004 0.685431612,10.0007623 Z M19.4405999,10.0007623 C19.4405999,15.4988643 15.1784615,19.9679981 9.73239581,19.9679981 C4.30881127,19.9679981 0,15.4988643 0,10.0007623 C0,4.5504849 4.30881127,0.0803650295 9.73239581,0.0803650295 C15.1784615,0.0803650295 19.4405999,4.5504849 19.4405999,10.0007623 L19.4405999,10.0007623 Z" id="Fill-4"></path>
                </g>
            </g>
            <g id="re29" transform="translate(266.000000, 0.000000)" fill="#000000" fill-rule="nonzero">
                <g id="Group" stroke="#000000" stroke-width="0.4">
                    <path d="M21.767102,9.59327068 C20.9069151,9.59327068 20.1487843,9.8265417 19.507289,10.234766 C18.7783171,7.71252308 16.5768218,6.28373809 13.2381304,6.28373809 L7.96037354,6.28373809 L7.96037354,8.12074737 L13.3839247,8.12074737 C16.1540181,8.12074737 17.7869152,9.62242955 17.7869152,12.2467285 C17.7869152,14.8710275 16.1540181,16.3727097 13.3839247,16.3727097 L13.3401864,16.3727097 L13.6463546,15.9207471 C14.3170088,14.9147658 14.9293452,13.923364 14.9293452,12.9902799 C14.9293452,11.065794 13.7046724,9.60785011 11.3136444,9.60785011 C9.24336415,9.60785011 7.6833642,11.1970089 7.6833642,13.0631771 L9.65158843,13.0631771 C9.65158843,12.130093 10.2639249,11.4448594 11.3136444,11.4448594 C12.4362612,11.4448594 12.961121,12.1009341 12.961121,13.0485977 C12.961121,13.7775696 12.494579,14.5065415 11.9842986,15.2500929 L11.1970089,16.3872891 L7.96037354,16.3872891 L7.96037354,18.2242984 L9.94317721,18.2242984 L6.48785023,23.2833636 L14.7689714,23.2833636 L14.7689714,21.4317749 L9.88485945,21.4317749 L12.0863547,18.209719 L13.2381304,18.209719 C13.4276631,18.209719 13.6171958,18.209719 13.8067285,18.1951395 L19.5947656,25.7472888 L22.0878497,25.7472888 L20.1779432,23.2687842 L23.8082234,17.9618685 C24.7413075,16.649719 25.8347654,15.220934 25.8347654,13.5734574 C25.820186,11.4011211 24.15813,9.59327068 21.767102,9.59327068 Z M18.9532703,21.6942048 L15.9644854,17.8306536 C17.0579433,17.480747 17.9472891,16.8975695 18.5887844,16.0957003 C19.3031769,16.9996255 20.4257936,17.5682237 21.7816814,17.5682237 C21.7962609,17.5682237 21.8691581,17.5682237 21.8837375,17.5682237 L18.9532703,21.6942048 Z M21.767102,15.7457938 C20.5132703,15.7457938 19.6968217,14.7981303 19.6968217,13.5880369 C19.6968217,13.4859808 19.6968217,13.3985042 19.7114011,13.2964481 C19.7114011,13.2818687 19.7114011,13.2672892 19.7114011,13.2381304 C19.8571955,12.2029902 20.6299058,11.43028 21.7525226,11.43028 C23.0063543,11.43028 23.8228029,12.3779435 23.8228029,13.5880369 C23.8373823,14.7981303 23.0209337,15.7457938 21.767102,15.7457938 Z" id="Shape"></path>
                    <path d="M15.5562611,0.11663551 C7.01271002,0.11663551 0.0583177549,7.07102778 0.0583177549,15.6145789 C0.0583177549,24.15813 7.01271002,31.1125222 15.5562611,31.1125222 C24.0998122,31.1125222 31.0542045,24.15813 31.0542045,15.5999994 C31.0542045,7.05644834 24.0998122,0.11663551 15.5562611,0.11663551 Z M15.5562611,29.2755129 C8.01869129,29.2755129 1.89532703,23.1521487 1.89532703,15.6145789 C1.89532703,8.07700905 8.01869129,1.95364479 15.5562611,1.95364479 C23.0938309,1.95364479 29.2171952,8.07700905 29.2171952,15.6145789 C29.2171952,23.1375692 23.0938309,29.2755129 15.5562611,29.2755129 Z" id="Shape"></path>
                </g>
                <g id="Group" transform="translate(40.519999, 7.280000)" stroke="#DFE0E1" stroke-width="0.6">
                    <polygon id="Path" points="19.5179716 8.57227691 23.9751143 8.57227691 23.9751143 5.89504929 19.5179716 5.89504929 19.5179716 2.67722762 25.4129023 2.67722762 25.4129023 0 16.7142851 0 16.7142851 15.5999994 25.6285705 15.5999994 25.6285705 12.9227718 19.5179716 12.9227718"></polygon>
                    <polygon id="Path" points="30.0857132 15.5999994 32.9589126 15.5999994 32.9589126 8.57227691 37.526563 8.57227691 37.526563 5.89504929 32.9589126 5.89504929 32.9589126 2.67722762 38.9999986 2.67722762 38.9999986 0 30.0857132 0"></polygon>
                    <rect id="Rectangle" x="41.2285699" y="0" width="3.34285702" height="15.5999994"></rect>
                    <polygon id="Path" points="59.4866698 10.1683165 51.0703892 0 49.0285696 0 49.0285696 15.5999994 51.9418975 15.5999994 51.9418975 5.43168297 60.3581782 15.5999994 62.3999977 15.5999994 62.3999977 0 59.4866698 0"></polygon>
                    <polygon id="Path" points="69.6608269 8.57227691 74.1179696 8.57227691 74.1179696 5.89504929 69.6608269 5.89504929 69.6608269 2.67722762 75.5557576 2.67722762 75.5557576 0 66.8571404 0 66.8571404 15.5999994 75.7714258 15.5999994 75.7714258 12.9227718 69.6608269 12.9227718"></polygon>
                    <path d="M89.3232007,7.54257398 C90.1734071,6.74455421 90.7144475,5.61188098 90.7144475,4.35049489 C90.7144475,3.0891088 90.1734071,1.95643557 89.3232007,1.1584158 C88.5502858,0.437623746 87.5197325,0 85.922375,0 L80.2285685,0 L80.2285685,15.5999994 L83.2429367,15.5999994 L83.2429367,8.70098978 L84.3250176,8.70098978 L89.8642411,15.5999994 L93.5999966,15.5999994 L87.751607,8.44356405 C88.3957028,8.23762346 88.8852156,7.92871258 89.3232007,7.54257398 Z M87.2363304,5.56039584 C86.9786921,5.84356414 86.5922346,6.02376216 85.7162644,6.02376216 L83.2171728,6.02376216 L83.2171728,2.67722762 L85.7162644,2.67722762 C86.5922346,2.67722762 86.9786921,2.88316821 87.2363304,3.16633652 C87.4939687,3.44950482 87.6743155,3.91287114 87.6743155,4.37623746 C87.7000794,4.81386121 87.5197325,5.25148496 87.2363304,5.56039584 Z" id="Shape"></path>
                    <path d="M9.76320361,7.54257432 C10.61341,6.74455455 11.1544505,5.61188133 11.1544505,4.35049523 C11.1544505,3.08910914 10.61341,1.95643592 9.76320361,1.15841614 C8.99028869,0.43762409 7.95973546,3.43658485e-07 6.36237797,3.43658485e-07 L0.668571404,3.43658485e-07 L0.668571404,15.5999998 L3.68293958,15.5999998 L3.68293958,8.70099012 L4.76502047,8.70099012 L10.304244,15.5999998 L14.0399995,15.5999998 L8.19160994,8.44356439 C8.8357057,8.2376238 9.32521849,7.92871292 9.76320361,7.54257432 Z M7.67633333,5.56039618 C7.41869502,5.84356449 7.03223756,6.0237625 6.15626732,6.0237625 L3.65717575,6.0237625 L3.65717575,2.67722797 L6.15626732,2.67722797 C7.03223756,2.67722797 7.41869502,2.88316855 7.67633333,3.16633686 C7.93397163,3.44950517 8.11431845,3.91287149 8.11431845,4.37623781 C8.14008228,4.81386155 7.95973546,5.2514853 7.67633333,5.56039618 Z" id="Shape-Copy"></path>
                    <polygon id="Path" points="99.1965592 5.48316812 95.8285679 0 92.4857109 0 97.7136377 8.54653434 97.7136377 15.5999994 100.654346 15.5999994 100.654346 8.54653434 105.857139 0 102.514282 0"></polygon>
                    <path d="M114.806324,9.15598053 C115.853304,7.78755952 116.451578,6.61818158 116.451578,4.75215294 L116.451578,4.75215294 C116.451578,1.99043055 114.108337,0 111.515816,0 L111.416103,0 C108.823582,0 106.654838,1.9157894 106.480341,4.70239217 L109.396928,4.70239217 C109.396928,3.63253575 110.344195,2.63732048 111.465959,2.63732048 C112.612652,2.63732048 113.534991,3.63253575 113.534991,4.70239217 C113.534991,5.49856439 113.435279,6.31961699 112.338443,7.71291838 L105.857139,15.5999994 L116.999996,15.5999994 L116.999996,12.962679 L111.640456,12.962679 L114.806324,9.15598053 Z" id="Path"></path>
                    <path d="M124.710751,0 C121.701924,0 119.228567,2.41339704 119.228567,5.39904286 C119.228567,8.48421022 121.701924,10.6985642 124.634255,10.6985642 L124.838243,10.6985642 L121.905912,15.5999994 L125.195223,15.5999994 L128.841512,9.50430587 C129.657465,8.13588487 130.371424,6.79234425 130.371424,5.27464095 C130.371424,2.04019131 127.592084,0 124.710751,0 Z M124.787246,8.08612411 C123.257334,8.08612411 122.007907,6.86698539 122.007907,5.37416248 C122.007907,3.88133957 123.257334,2.66220086 124.787246,2.66220086 C126.317158,2.66220086 127.566586,3.88133957 127.566586,5.37416248 C127.566586,6.86698539 126.317158,8.08612411 124.787246,8.08612411 Z" id="Shape"></path>
                </g>
            </g>
        </g>
    </g>
</svg>